<svg width="587" height="604" fill="none" xmlns="http://www.w3.org/2000/svg"><path d="M116.34 114.321c-.292 0-.585-.014-.879-.044-3.618-.359-7.119-2.652-9.603-6.289a.498.498 0 0 1 .375-.781.501.501 0 0 1 .451.217c2.317 3.392 5.552 5.528 8.876 5.859 3.763.359 7.495-1.971 8.326-5.226a6.917 6.917 0 0 0-2.023-6.46 3.03 3.03 0 0 0-3.393-.448 2.363 2.363 0 0 0-1.196 2.754 2.964 2.964 0 0 0 3.023 2.21l.088-.001a.5.5 0 1 1 .009 1 3.972 3.972 0 0 1-4.09-2.965 3.328 3.328 0 0 1 1.726-3.895 4.017 4.017 0 0 1 4.471.575 8.008 8.008 0 0 1 2.354 7.478c-.883 3.456-4.593 6.016-8.515 6.016ZM54.204 317.972a3.197 3.197 0 0 1-1.91-.661 6.038 6.038 0 0 1-2.14-5.601c.553-2.873 3.627-5.083 6.872-4.98a10.34 10.34 0 0 1 7.543 4.313.501.501 0 0 1-.79.614 9.342 9.342 0 0 0-6.792-3.927c-2.787-.104-5.388 1.763-5.85 4.17a5.107 5.107 0 0 0 1.75 4.604c.689.56 1.655.628 2.417.172.68-.394.979-1.22.709-1.959a2.109 2.109 0 0 0-2.284-1.422.505.505 0 0 1-.538-.459.497.497 0 0 1 .46-.537 3.09 3.09 0 0 1 3.315 2.117 2.61 2.61 0 0 1-1.17 3.13 3.327 3.327 0 0 1-1.592.426ZM504.617 259.083a.502.502 0 0 1-.295-.096 5.62 5.62 0 0 1-2.007-4.148 9.526 9.526 0 0 1 2.049-6.952 11.831 11.831 0 0 1 9.569-3.326 10.857 10.857 0 0 1 7.392 4.057 6.867 6.867 0 0 1 .883 6.078 4.943 4.943 0 0 1-4.021 3.023 4.436 4.436 0 0 1-5.006-2.382 3.23 3.23 0 0 1 .563-3.915.5.5 0 0 1 .647.761 2.257 2.257 0 0 0-.308 2.723 3.422 3.422 0 0 0 3.92 1.831 4.003 4.003 0 0 0 3.275-2.407 5.87 5.87 0 0 0-.756-5.116 9.779 9.779 0 0 0-6.663-3.655 10.824 10.824 0 0 0-8.769 3.015 8.466 8.466 0 0 0-1.779 6.173 4.654 4.654 0 0 0 1.6 3.431.499.499 0 0 1-.295.905h.001ZM296.468 404.772a10.333 10.333 0 0 1-8.735-5.499c-1.601-2.902-2.143-6.545-1.61-10.827a.5.5 0 0 1 .993.123c-.506 4.069-.004 7.508 1.492 10.222a9.247 9.247 0 0 0 8.322 4.967 6.252 6.252 0 0 0 4.716-2.211 5.63 5.63 0 0 0 .983-4.559 4.437 4.437 0 0 0-3.768-3.299 2.915 2.915 0 0 0-3.158 1.498.5.5 0 0 1-.894-.447 3.855 3.855 0 0 1 4.19-2.041 5.459 5.459 0 0 1 4.613 4.106 6.615 6.615 0 0 1-1.176 5.355 7.217 7.217 0 0 1-5.442 2.596 8.375 8.375 0 0 1-.526.016Z" fill="#000"/><path fill-rule="evenodd" clip-rule="evenodd" d="M48.169 140.704a4.853 4.853 0 0 0 4.852 4.852 4.85 4.85 0 1 0 0-9.704 4.852 4.852 0 0 0-4.852 4.852Zm1.293-1.474a3.851 3.851 0 1 1 7.117 2.947 3.851 3.851 0 0 1-7.117-2.947ZM576.539 198.641a4.852 4.852 0 1 0 9.703 0 4.852 4.852 0 0 0-9.703 0Zm1 .001a3.852 3.852 0 1 1 7.704-.002 3.852 3.852 0 0 1-7.704.002Z" fill="#000"/><path d="M518.237 107.57a.499.499 0 0 1-.347-.859 3.853 3.853 0 1 0-5.355-5.54.5.5 0 1 1-.695-.719 4.852 4.852 0 1 1 6.745 6.978.5.5 0 0 1-.348.14ZM149.67 13.716a.498.498 0 0 1-.435-.254 4.853 4.853 0 1 1 8.443-4.783.5.5 0 0 1-.87.492 3.852 3.852 0 1 0-6.703 3.799.502.502 0 0 1-.188.68.494.494 0 0 1-.247.066Z" fill="#000"/><path fill-rule="evenodd" clip-rule="evenodd" d="M328.694 235.944a3.608 3.608 0 0 0 3.334 2.229 3.615 3.615 0 0 0 3.611-3.609 3.61 3.61 0 1 0-6.945 1.38Zm.725-1.381a2.61 2.61 0 0 1 2.609-2.61 2.61 2.61 0 1 1-2.609 2.61ZM549.3 354.358a3.622 3.622 0 1 0 7.232-.408 3.622 3.622 0 0 0-7.232.408Zm3.044-2.738a2.593 2.593 0 1 1 1.167 5.054 2.593 2.593 0 0 1-1.167-5.054ZM457.199 5.352a3.61 3.61 0 0 0 6.218.177 3.611 3.611 0 0 0-6.114-3.842 3.611 3.611 0 0 0-.104 3.665Zm2.581-4.289a2.595 2.595 0 1 1 1.167 5.057 2.595 2.595 0 0 1-1.167-5.057ZM343.685 54.47a3.61 3.61 0 1 0 7.22 0 3.61 3.61 0 0 0-7.22 0Zm1 0a2.61 2.61 0 1 1 5.22-.001 2.61 2.61 0 0 1-5.22 0ZM80.33 405.664a3.611 3.611 0 0 0 3.337 2.229 3.61 3.61 0 1 0-3.336-2.229Zm.925-2.381a2.611 2.611 0 0 1 2.412-1.611 2.61 2.61 0 1 1-2.412 1.611Z" fill="#000"/><path d="M3.61 245.712a3.61 3.61 0 1 1 0-7.22.5.5 0 0 1 0 1 2.608 2.608 0 0 0-2.264 3.916 2.608 2.608 0 0 0 2.264 1.304.5.5 0 0 1 0 1ZM23.17 454.951a3.61 3.61 0 0 1-2.961-5.666.5.5 0 1 1 .821.57 2.61 2.61 0 0 0 4.291 2.974.501.501 0 1 1 .821.57 3.61 3.61 0 0 1-2.972 1.552Z" fill="#000"/><path fill-rule="evenodd" clip-rule="evenodd" d="M368.757 438.508a3.61 3.61 0 1 0 6.671-2.766 3.61 3.61 0 0 0-6.671 2.766Zm.924-2.381a2.61 2.61 0 1 1 4.824 2 2.61 2.61 0 0 1-4.824-2ZM63.675 35.204a3.61 3.61 0 1 0 7.22 0 3.61 3.61 0 0 0-7.22 0Zm1.198-.999a2.61 2.61 0 1 1 4.823 1.997 2.61 2.61 0 0 1-4.823-1.997Z" fill="#000"/><path d="M251.516 170.077c14.774 2.281 29.271 2.699 36.068 2.134 8.309-.691 14.52-1.095 19.08-8.056 3.115-4.753 1.953-14.023-5.862-24.419-8.495-11.301-40.544-50.934-53.872-60.151-1.105-.807-2.627-3.979-3.897-5.515-1.393-1.683-4.205-3.228-4.86-3.075l2.359 10.021.314 3.848c17.542 19.877 40.688 51.757 44.571 57.306 4.633 6.619.96 9.344-11.649 8.894a162.584 162.584 0 0 1-18.337-2.798l-3.915 21.811Z" fill="#fff"/><path d="M251.383 170.555a205.52 205.52 0 0 0 26.364 2.343c6.119.132 12.526.063 18.531-1.244 5.029-1.094 10.081-4.26 11.83-9.357 1.892-5.514-.359-11.863-2.965-16.741-2.366-4.427-5.61-8.348-8.708-12.279a685.006 685.006 0 0 0-9.87-12.235c-7.91-9.606-15.991-19.1-24.547-28.14a137.256 137.256 0 0 0-11.894-11.493c-.742-.616-1.507-1.198-2.274-1.782a15.233 15.233 0 0 1-3.304-4.272c-1.29-1.996-3.752-4.828-6.373-4.863a.506.506 0 0 0-.482.632l1.878 7.978c.217.828.388 1.666.512 2.512.128 1.075-.086 2.503.333 3.499.385.916 1.663 1.909 2.317 2.667.767.888 1.53 1.78 2.288 2.676a447.659 447.659 0 0 1 5.147 6.192 648.87 648.87 0 0 1 10.364 13.006 997.36 997.36 0 0 1 17.939 23.745 847.932 847.932 0 0 1 5.316 7.325c1.331 1.864 4.04 4.855 2.762 7.26-1.015 1.91-4.169 2.241-6.03 2.436a44.82 44.82 0 0 1-9.583-.137 148.69 148.69 0 0 1-15.37-2.502.506.506 0 0 0-.615.349l-3.915 21.811c-.112.629.85.898.964.266l1.695-9.445 1.269-7.069c.249-1.389.976-3.308.847-4.719-.094-1.029.17.091-.383-.202a9.995 9.995 0 0 0 2.509.508c3.692.714 7.408 1.317 11.14 1.782 3.988.597 8.036.694 12.048.288 1.826-.229 3.972-.584 5.419-1.835 2.735-2.367.466-5.956-1.149-8.248-2.345-3.327-4.76-6.608-7.174-9.885-8.257-11.208-16.695-22.292-25.453-33.113a527.017 527.017 0 0 0-7.961-9.602c-.976-1.144-2.816-2.577-3.466-3.882-.408-.82-.164-2.414-.272-3.329-.417-3.553-1.593-7.113-2.413-10.597l-.481.632c3.446.046 5.52 4.613 7.164 6.976a17.79 17.79 0 0 0 3.777 3.398 116.818 116.818 0 0 1 9.624 9.062c7.9 8.112 15.32 16.699 22.593 25.372 6.044 7.208 12.006 14.497 17.73 21.963 6.686 8.72 15.005 24.996.676 31.265-5.918 2.589-13.424 2.449-19.793 2.404a198.325 198.325 0 0 1-28.295-2.339c-.629-.095-.9.867-.266.963Z" fill="#000"/><path d="M206.781 127.167c-1.278-3.464-.792-16.06 5.518-18.754 3.912-1.67 10.917 2.485 16.061 2.13 7.153-.494 8.219-7.291 10.049-12.083.216-.566.47-1.64 1.664-1.525.866.083 1.465.21 2.332.294 3.651.358 5.09-2.89 3.226-5.033a5.608 5.608 0 0 0-3.813-1.327 1.4 1.4 0 0 1-1.343-1.579c.528-4.46.267-8.979-.771-13.348-1.679-8.244-6.741-10.964-12.236-10.958-4.672.006-11.372 3.489-15.463 13.246-4.071 9.713-9.46 34.018-14.4 41.803a46.713 46.713 0 0 1-2.948 3.888 13.207 13.207 0 0 0 6.095 3.943c3.987 1.182 6.029-.697 6.029-.697Z" fill="#fff"/><path fill-rule="evenodd" clip-rule="evenodd" d="M200.61 128.343a9.415 9.415 0 0 0 2.676.413 5.823 5.823 0 0 0 3.834-1.222l.247-.227-.116-.314c-1.225-3.316-.788-15.545 5.245-18.12 2.006-.856 5.007-.026 8.182.853l.001.001.025.006c2.617.726 5.321 1.475 7.692 1.309 6.417-.443 8.159-5.612 9.696-10.172v-.001l.018-.052c.254-.751.502-1.486.766-2.18l.068-.184c.274-.767.487-1.086 1.081-1.02.43.04.793.092 1.157.145.368.053.738.105 1.174.148a4.054 4.054 0 0 0 4.223-1.937 3.471 3.471 0 0 0-.57-3.922c-1.012-1.164-3.108-1.49-4.188-1.499a.828.828 0 0 1-.617-.286.952.952 0 0 1-.232-.736 38.687 38.687 0 0 0-.778-13.504c-1.912-9.385-7.962-11.358-12.708-11.358h-.018c-4.727.005-11.733 3.557-15.923 13.552-1.652 3.942-3.507 10.224-5.47 16.875-2.804 9.5-5.981 20.267-8.892 24.854a46.847 46.847 0 0 1-2.901 3.827l-.275.313.259.326a13.607 13.607 0 0 0 6.344 4.112Zm.285-.959a12.971 12.971 0 0 1-5.576-3.469c.815-.982 2.169-2.765 2.708-3.615 2.986-4.705 6.047-15.076 9.007-25.106 1.955-6.624 3.802-12.88 5.433-16.771 4-9.543 10.582-12.934 15.002-12.939h.016c4.374 0 9.953 1.834 11.729 10.557a37.81 37.81 0 0 1 .764 13.193 1.949 1.949 0 0 0 .478 1.511c.342.393.836.62 1.357.623a5.138 5.138 0 0 1 3.441 1.155 2.49 2.49 0 0 1 .436 2.807 3.09 3.09 0 0 1-3.236 1.4c-.42-.04-.776-.091-1.131-.142a24.145 24.145 0 0 0-1.202-.151 2.034 2.034 0 0 0-2.119 1.68l-.06.163c-.27.708-.524 1.46-.783 2.228l-.014.042c-1.508 4.472-3.066 9.096-8.818 9.494-2.213.148-4.838-.576-7.381-1.28-3.348-.929-6.512-1.805-8.843-.811-6.466 2.76-7.102 14.969-5.908 19.029-.619.408-2.382 1.267-5.3.402Z" fill="#000"/><path d="M244.612 571.525a3.973 3.973 0 0 1-3.95 3.46h-6.69a3.986 3.986 0 0 1-3.98-4.09c1.8-75.18-17.52-154.88-41.74-219.11-.62 69.01-17.79 199.51-22.81 217.69-.74 2.18-1.43 5.77-5.08 5.75a51.405 51.405 0 0 1-8.12-.72c-3.63-.58-2.99-5.3-2.7-7.38 6.75-61.2-2.29-114.77-7.07-178.54-1.55-20.72-9.89-43.61-9.89-43.61-8.08-21.33-12.87-36.42-13.31-57.03 10.15 9.91 45.52 12.63 60.81 12.41 10.41-.15 38.9 1.84 53.12-5.89 13.51 57.36 15.15 89.31 17.14 155.69.96 31.93-1.16 85.26-5.73 121.37Z" fill="#fff"/><path d="M244.13 571.392c-.712 3.365-3.71 3.093-6.337 3.093-2.272 0-5.404.546-6.73-1.748-1.017-1.759-.513-4.38-.488-6.358a418.595 418.595 0 0 0-.174-18.609 496.679 496.679 0 0 0-4.137-49.781 636.297 636.297 0 0 0-20.786-96.424 713.877 713.877 0 0 0-16.743-49.913.502.502 0 0 0-.982.133c-.304 31.729-3.087 63.46-6.226 95.015-3.063 30.774-6.676 61.52-11.201 92.116-1.314 8.885-2.614 17.807-4.466 26.6-.244 1.159-.487 2.325-.803 3.467a15.567 15.567 0 0 1-1.368 3.715c-1.606 2.738-4.944 2.069-7.645 1.806-2.784-.271-5.766-.247-6.19-3.636-.081-1.886.05-3.776.392-5.633a389.774 389.774 0 0 0 1.431-17.276c2.759-45.364-2.668-90.556-6.73-135.666-1.018-11.306-1.407-22.771-3.218-33.985a194.849 194.849 0 0 0-6.392-26.594c-1.835-5.918-4.119-11.657-6.184-17.496a164.975 164.975 0 0 1-8.006-29.989 128.69 128.69 0 0 1-1.375-16.284l-.853.354c4.692 4.452 11.576 6.43 17.695 7.949a160.322 160.322 0 0 0 25.068 3.86c6.918.587 13.807.7 20.742.743 7.946.048 15.882.281 23.823-.151 9.145-.497 18.987-1.445 27.208-5.803l-.735-.299c4.133 17.584 7.745 35.295 10.308 53.18 2.399 16.738 3.849 33.588 4.796 50.466 2.086 37.13 2.893 74.276 1.209 111.436-.936 20.653-2.34 41.326-4.921 61.845-.08.637.921.631 1 0 4.57-36.336 6.219-73.303 5.938-109.912-.147-19.088-.946-38.209-1.902-57.272-.852-16.996-2.123-33.974-4.336-50.851a599.026 599.026 0 0 0-11.127-59.158.508.508 0 0 0-.735-.298c-7.458 3.953-16.332 4.978-24.631 5.54-7.861.533-15.737.407-23.609.302-14.634-.197-29.144-.648-43.543-3.622-7.259-1.499-15.979-3.385-21.541-8.662a.506.506 0 0 0-.854.353 130.846 130.846 0 0 0 4.526 31.126c2.461 9.073 5.866 17.788 9.013 26.631a196.677 196.677 0 0 1 5.731 19.543c2.74 11.282 3.824 22.553 4.781 34.093 3.885 46.841 10.223 93.69 8.255 140.794a408.633 408.633 0 0 1-1.115 17.588 337.984 337.984 0 0 1-.817 8.46 18.832 18.832 0 0 0-.224 5.198c.606 3.597 3.621 3.757 6.725 4.084 3.711.392 7.466.936 9.257-2.952 1.308-2.838 1.82-6.126 2.413-9.173.827-4.255 1.542-8.531 2.23-12.81 4.653-28.959 8.148-58.127 11.278-87.285 3.605-33.582 6.754-67.316 7.726-101.091.1-3.454.167-6.91.202-10.366l-.983.133a698.581 698.581 0 0 1 29.123 98.295c7.609 35.172 12.377 71.089 12.699 107.105.021 2.418.022 4.835.002 7.252-.019 2.277-.4 4.803-.054 7.051a4.604 4.604 0 0 0 4.603 3.864c3.805.211 9.919 1.052 10.952-3.827.133-.628-.831-.896-.965-.266Z" fill="#000"/><path d="M242.955 574.79c-.319 3.044 1.533 6.801 3.268 9.323a11.404 11.404 0 0 0 6.301 4.448 33.47 33.47 0 0 0 8.432 1.104c2.253.006 4.609-.118 6.62.898a6.14 6.14 0 0 1 3.099 3.523c.578 1.638-.067 3.932-1.793 4.121a55.614 55.614 0 0 1-4.802.275c-9.876.312-16.386.047-24.995-.171a2.093 2.093 0 0 1-1.35-.353c-.52-.452-.467-1.255-.438-1.943a4.194 4.194 0 0 0-.714-2.845 1.94 1.94 0 0 0-2.65-.43c-1.35 1.187-.243 4.761-1.933 5.374-.274.1-3.328.031-5.218-.045a1.488 1.488 0 0 1-1.418-1.355c-.358-3.888-.04-8.783 1.701-12.163.866-1.68 2.164-3.101 3.108-4.739a8.5 8.5 0 0 0 1.55-5.101l11.232.079ZM162.075 575.021c-.318 3.043 1.533 6.801 3.268 9.322a11.403 11.403 0 0 0 6.301 4.448 33.47 33.47 0 0 0 8.432 1.104c2.253.006 4.609-.118 6.62.898a6.14 6.14 0 0 1 3.099 3.524c.578 1.637-.067 3.931-1.793 4.12a55.213 55.213 0 0 1-4.802.275c-9.876.312-16.386.047-24.994-.171a2.084 2.084 0 0 1-1.35-.353c-.52-.452-.468-1.254-.439-1.943a4.19 4.19 0 0 0-.714-2.844 1.94 1.94 0 0 0-2.65-.431c-1.35 1.187-.243 4.761-1.933 5.374-.274.1-3.327.032-5.217-.045a1.485 1.485 0 0 1-1.418-1.354c-.359-3.889-.041-8.784 1.7-12.164.866-1.68 2.164-3.101 3.108-4.738a11.822 11.822 0 0 0 1.596-6.051l5.239 1.242 5.947-.213Z" fill="#000"/><circle cx="234.019" cy="85.875" r="1.352" fill="#000"/><path d="M229.843 81.974a3.991 3.991 0 0 1 5.329-2.025c.895.362 1.284-1.089.399-1.446a5.454 5.454 0 0 0-7.023 2.714c-.418.866.875 1.627 1.295.757Z" fill="#000"/><path d="M214.471 79.993a2.89 2.89 0 0 0-2.371-1.537c-2.342-.236-4.071 1.905-4.527 2.713a9.104 9.104 0 0 0-1.083 4.742 4.983 4.983 0 0 0 2.206 4.042c1.366.83 4.195 1.105 5.328-.557l.447-9.403Z" fill="#fff"/><path d="M214.903 79.739c-1.016-1.95-3.544-2.186-5.335-1.21a7.423 7.423 0 0 0-3.514 5.852c-.278 2.412.442 5.084 2.796 6.214a4.674 4.674 0 0 0 5.527-.847c.418-.486-.287-1.196-.707-.707a3.652 3.652 0 0 1-4.346.648c-2.19-1.032-2.588-3.609-2.203-5.745a6.989 6.989 0 0 1 1.449-3.306c1.258-1.47 4.206-2.82 5.469-.394.297.57 1.161.066.864-.505Z" fill="#000"/><path d="M212.637 81.416a3.281 3.281 0 0 0-3.584 1.02 3.829 3.829 0 0 0-.692 3.65c.215.602 1.182.342.965-.266a2.571 2.571 0 0 1 3.045-3.44.5.5 0 0 0 .266-.964ZM243.671 70.574a20.11 20.11 0 0 1-4.71.57c-9.47.28-18.45.9-27.46 7.03a13.448 13.448 0 0 1 3.82-20.71 1.794 1.794 0 0 1-.41-1.15 1.86 1.86 0 0 1 3.72-.09 13.474 13.474 0 0 1 14.94 6.97c2.2.37 4.4.75 6.6 1.12 1.043.137 2.075.344 3.09.62 1.39.42 2.76 1.16 2.91 2.3.21 1.67-.65 2.77-2.5 3.34ZM230.232 101.295a2.84 2.84 0 0 1 2.343.885c.413.401 1.311 1.916.011 1.88-.516-.014-1.147-.569-1.56-.84-.554-.364-2.211-1.422-.794-1.925.602-.214.342-1.181-.266-.965a1.699 1.699 0 0 0-.518 3.027c.892.711 2.371 1.921 3.598 1.685 1.357-.261 1.437-1.808.849-2.816a3.987 3.987 0 0 0-3.929-1.896c-.633.112-.365 1.075.266.965ZM219.453 180.386a6.444 6.444 0 0 1 6.368-7.086c1.059.023 2.115.106 3.163.248 5.258.619 9.243 1.941 14.483 3.04 4.372.916 6.472-.118 7.259-2.905 1.528-5.413 3.964-18.016 5.2-22.567.582-2.142 1.695-5.991-.764-8.519-1.197-1.23-3.488-1.914-5.13-2.414a387.115 387.115 0 0 1-40.727-14.488 1.305 1.305 0 0 0-1.239.133c-1.536 1.036-4.606 2.314-7.225 1.253-3.42-1.386-5.049-2.751-6.218-4.392a1.32 1.32 0 0 0-2.021-.174c-6.086 6.207-15.338 12.515-22.557 18.727-43.955 35.71-62.833 95.303-53.262 142.821 3.862 13.097 46.175 16.544 63.301 16.299 12.03-.171 48.19 2.507 58.601-10.254 10.746-12.681 9.094-30.085 4.298-47.529-5.604-20.384-21.57-41.146-23.53-62.193Z" fill="#000"/><path d="M174.543 247.803c4.096 6.727 8.577 14.005 13.709 21.926 5.391 8.322 19.896 26.339 28.074 31.945 9.267 6.354 36.464 16.009 74.682 17.53 3.907.479 5.448.947 14.535 7.527 3.72 2.694 11.201 5.54 15.379 5.865l9.416 1.112c1.358.106 6.681.649 8.305.036.982-.273 1.513-2.494-2.681-2.913-12.509-1.25-12.042-3.183-12.042-3.183.156-1.06 3.56-.478 4.616-.367 3.572.376 5.988.533 9.447.951 2.682.323 4.966.587 5.204-1.005.061-.924-.408-1.367-2.214-1.588-5.077-.623-9.55-1.004-14.588-1.89-.808-.157-1.277-1.069-.701-1.634 1.04-.92 12.689 1.287 16.517 1.629.6.054 1.827.112 2.176-.881a1.472 1.472 0 0 0-1.074-1.905c-.995-.264-2.888-.555-4.033-.726-4.385-.653-8.616-.853-13.019-1.362a.747.747 0 0 1-.203-1.452c1.137-.296 8.929.536 12.792.704a3.623 3.623 0 0 0 2.056-.43c1.119-.572.942-1.919-.031-2.655a5.123 5.123 0 0 0-1.955-.553c-6.188-.895-17.518-.793-23.064-1.709a.612.612 0 0 1 .013-1.21c2.202-.32 3.841-.057 6.981-.532 2.835-.43 3.703-.898 3.608-1.847-.129-1.288-1.867-1.423-2.487-1.479a33.863 33.863 0 0 0-7.311.25c-2.063.251-4.375.777-6.706 1.272-4.833 1.026-10.648-.663-16.873-2.056-26.758-6.691-51.094-17.845-58.954-23.665-9.347-6.921-15.433-17.301-20.857-27.588-4.023-7.628-7.677-14.916-11.055-22.147l-27.662 14.03Z" fill="#fff"/><path fill-rule="evenodd" clip-rule="evenodd" d="M330.853 334.253c1.761.15 3.6.281 5.115.281a8.993 8.993 0 0 0 2.809-.308 1.51 1.51 0 0 0 1.051-1.585c-.051-.584-.524-1.979-3.816-2.307-9.692-.969-11.305-2.318-11.557-2.644.2-.15.946-.297 3.527.028.197.025.368.047.502.06 1.455.154 2.718.271 3.937.383l.056.005c1.757.163 3.422.318 5.446.561l.001.001c2.8.338 5.445.659 5.762-1.467.098-1.476-.989-1.914-2.652-2.118-1.304-.161-2.568-.304-3.812-.445l-.36-.041c-3.489-.393-6.785-.765-10.383-1.399a.695.695 0 0 1-.533-.445.307.307 0 0 1 .052-.31c.78-.459 6.986.456 10.742 1.01l.062.009c2.223.329 4.143.612 5.354.72 1.463.132 2.363-.278 2.692-1.213a1.946 1.946 0 0 0-.122-1.554 2.012 2.012 0 0 0-1.295-1c-.753-.2-2.09-.441-4.088-.737-2.626-.391-5.242-.624-7.772-.85l-.037-.003-.035-.003c-1.692-.151-3.442-.306-5.182-.507a.281.281 0 0 1-.28-.265.185.185 0 0 1 .137-.209c2.426-.032 4.85.085 7.261.351 1.94.151 3.945.307 5.383.37a4.184 4.184 0 0 0 2.306-.484 1.808 1.808 0 0 0 1.036-1.474 2.355 2.355 0 0 0-.992-2.025 5.141 5.141 0 0 0-2.187-.65c-3.055-.441-7.377-.643-11.558-.839l-.034-.001c-4.264-.2-8.668-.406-11.462-.868a.094.094 0 0 1-.07-.034.096.096 0 0 1-.022-.076.098.098 0 0 1 .024-.077.097.097 0 0 1 .073-.034 23.3 23.3 0 0 1 2.756-.193 32.189 32.189 0 0 0 4.228-.341c2.3-.347 4.191-.767 4.029-2.39-.167-1.676-2.227-1.863-2.939-1.927a34.332 34.332 0 0 0-7.417.252c-1.806.22-3.751.636-5.809 1.077l-.003.001-.937.2c-4.064.864-8.952-.271-14.125-1.472l-.023-.005c-.829-.194-1.667-.388-2.5-.575-27.739-6.935-51.472-18.171-58.778-23.581-9.468-7.011-15.655-17.83-20.712-27.419-4.18-7.926-7.792-15.164-11.043-22.125l-.219-.468-28.605 14.509.281.46c4.038 6.632 8.495 13.879 13.717 21.938 5.237 8.084 19.925 26.406 28.21 32.086 5.372 3.683 15.081 7.563 26.638 10.647a225.287 225.287 0 0 0 48.267 6.966c3.768.462 5.257.887 14.302 7.437 3.771 2.73 11.369 5.627 15.614 5.956l9.435 1.113.554.047Zm-142.182-64.795c-5.093-7.862-9.46-14.954-13.42-21.453l26.72-13.552c3.202 6.833 6.753 13.938 10.846 21.7 5.109 9.688 11.366 20.62 21.002 27.756 7.37 5.458 31.26 16.78 59.142 23.752.754.169 1.502.342 2.242.514l.262.06.014.003c5.29 1.229 10.287 2.389 14.568 1.48l.939-.201c2.037-.437 3.961-.849 5.724-1.064a33.671 33.671 0 0 1 7.242-.245c.89.081 1.922.271 1.999 1.027.039.391-.172.847-3.186 1.303-1.36.201-2.732.311-4.107.329-.96.011-1.919.079-2.87.203a1.113 1.113 0 0 0-.024 2.198c3.854.488 7.729.782 11.612.881l.034.002c4.146.194 8.43.394 11.453.831a5.01 5.01 0 0 1 1.701.454c.376.257.601.684.6 1.14a.822.822 0 0 1-.496.671c-.55.307-1.18.437-1.807.375-1.42-.061-3.417-.217-5.348-.367-4.226-.328-6.845-.515-7.591-.321a1.184 1.184 0 0 0-.883 1.237 1.276 1.276 0 0 0 1.154 1.196c1.773.205 3.542.363 5.253.514 2.527.225 5.139.457 7.751.846l.03.004c.75.112 2.898.432 3.948.71.284.064.527.246.667.501a.96.96 0 0 1 .063.755c-.163.462-.693.639-1.659.549-1.184-.105-3.182-.4-5.298-.713-7.548-1.113-10.832-1.471-11.615-.774a1.32 1.32 0 0 0-.345 1.344 1.693 1.693 0 0 0 1.309 1.138c3.614.637 6.906 1.009 10.386 1.403l.067.007.134.016c1.314.148 2.649.299 4.029.468 1.828.224 1.803.629 1.78 1.017v.001c-.156 1.046-1.942.91-4.651.582a185.167 185.167 0 0 0-5.477-.564l-.052-.005-.201-.019a293.442 293.442 0 0 1-3.723-.363l-.482-.058-.006-.001c-1.78-.224-4.468-.561-4.667.806a.874.874 0 0 0 .184.705c.93 1.313 5.182 2.382 12.295 3.092 2.083.209 2.874.884 2.918 1.399a.52.52 0 0 1-.365.549c-1.344.507-5.838.124-7.528-.02l-9.977-1.157c-4.121-.322-11.471-3.126-15.126-5.773-9.244-6.694-10.798-7.133-14.807-7.622-38.151-1.518-65.407-11.263-74.42-17.441-8.182-5.61-22.737-23.781-27.937-31.805Z" fill="#000"/><path d="M153.011 223.598c4.55 7.47 8.88 15.14 13.683 22.45 1.469 2.237 3.296 3.696 6.1 3.318 3.404-.459 6.808-2.611 9.85-4.087a249.47 249.47 0 0 0 10.82-5.583c2.923-1.599 6.658-3.104 8.934-5.622 2.211-2.445 1.284-5.227.304-8.024a3917.03 3917.03 0 0 0-4.392-12.466l-9.923-28.164c-.213-.602-1.179-.343-.964.266l9.434 26.779c1.627 4.617 3.266 9.23 4.881 13.851.986 2.822 1.781 5.558-.8 7.78a33.508 33.508 0 0 1-5.521 3.374 248.783 248.783 0 0 1-17.936 9.146c-2.644 1.216-5.973 3-8.58.658-1.637-1.471-2.673-3.901-3.795-5.743l-3.574-5.867-7.658-12.571c-.334-.549-1.199-.047-.863.505Z" fill="#fff"/><path d="M184.06 313.852c4.062 13.935 4.192 37.94 4.192 37.94s8.351-3.483 6.064-26.615M124.77 298.984a171.079 171.079 0 0 0 62.4 10.049c32.996-.98 35.092-3.829 35.092-3.829" stroke="#000" stroke-linecap="round" stroke-dasharray="6"/><path fill-rule="evenodd" clip-rule="evenodd" d="M155.291 569.064a.501.501 0 0 0 .138-.991 24.865 24.865 0 0 1-5.687-1.409.5.5 0 0 0-.392.92 25.298 25.298 0 0 0 5.941 1.48Zm3.034.277a32.455 32.455 0 0 0 6.077-.299.498.498 0 0 0 .322-.804.497.497 0 0 0-.464-.186 32.333 32.333 0 0 1-5.891.291.506.506 0 0 0-.521.477.5.5 0 0 0 .477.521ZM235.602 569.184l.044.002a.5.5 0 0 0 .042-.998 24.94 24.94 0 0 1-5.752-1.111.502.502 0 0 0-.344.94 25.383 25.383 0 0 0 6.01 1.167Zm2.538-.38a.5.5 0 0 0 .502.498h.004a32.648 32.648 0 0 0 6.054-.617.5.5 0 0 0-.194-.981 31.594 31.594 0 0 1-5.868.598.5.5 0 0 0-.498.502Z" fill="#000"/><path d="M432.171 558.686c-2.44 8.26-7.65 22.95-10.1 31.21-.15.52-.33 1.15-.54 1.83a17.92 17.92 0 0 1-2.16 5.1 4.811 4.811 0 0 1-7.58-.32c-1.17-1.86-.53-5.51-.06-7.62.13-.6.24-1.08.3-1.35 2.7-12.25 6.32-29.02 9.02-41.27l11.12 12.42Z" fill="#fff"/><path fill-rule="evenodd" clip-rule="evenodd" d="M415.461 599.017c.105.005.209.008.313.008a5.031 5.031 0 0 0 3.989-1.89 17.088 17.088 0 0 0 2.245-5.264c.209-.677.389-1.304.542-1.835 1.213-4.089 3.138-9.864 5.002-15.449l.01-.031c1.897-5.687 3.858-11.566 5.088-15.731l.079-.267-11.957-13.355-.21.953c-1.35 6.125-2.93 13.381-4.51 20.637l-.063.289a8954.661 8954.661 0 0 1-4.447 20.345l-.3 1.348c-.862 3.874-.821 6.49.125 7.995a5.182 5.182 0 0 0 4.094 2.247Zm1.844-33.276a8599.407 8599.407 0 0 1 4.024-18.417l10.283 11.486c-1.232 4.137-3.151 9.892-5.009 15.461-1.866 5.592-3.794 11.377-5.018 15.5l-.006.021c-.147.511-.322 1.124-.527 1.787a18.827 18.827 0 0 1-2.072 4.934 4.02 4.02 0 0 1-3.462 1.505 4.224 4.224 0 0 1-3.304-1.781c-.788-1.253-.786-3.69.005-7.248l.3-1.347c1.35-6.125 2.93-13.381 4.51-20.636v-.001l.276-1.264Z" fill="#000"/><path d="M456.151 569.18c-2.66 8.24-4.82 16.96-6.77 23.53-.2.67-.49 1.73-.86 2.92-.67 2.2-1.62 4.83-2.74 6.14-1.91 2.25-6.17 1.09-7.35-.99-1.06-1.85-.75-4.64-.46-6.29.08-.4.15-.73.2-.96 1.77-8.02 3.79-17.67 5.94-27.78l12.04 3.43Z" fill="#fff"/><path fill-rule="evenodd" clip-rule="evenodd" d="M442.298 603.472c.193.017.381.027.567.027a4.19 4.19 0 0 0 3.296-1.4c.956-1.119 1.883-3.186 2.838-6.318.239-.772.446-1.489.617-2.082l.01-.033.235-.811c.735-2.478 1.5-5.258 2.31-8.203 1.312-4.775 2.8-10.188 4.456-15.316l.159-.492-13.053-3.719-1.694 7.987c-1.557 7.352-3.029 14.296-4.356 20.315-.051.231-.121.564-.204.979-.511 2.904-.336 5.133.518 6.624a5.638 5.638 0 0 0 4.301 2.442Zm.719-30.153 1.472-6.938 11.028 3.14c-1.592 4.982-3.026 10.193-4.296 14.812l-.015.055c-.808 2.938-1.572 5.715-2.304 8.181l-.238.821c-.17.593-.378 1.316-.621 2.097a18.218 18.218 0 0 1-2.643 5.963 3.47 3.47 0 0 1-3.008 1.026 4.683 4.683 0 0 1-3.527-1.941c-.725-1.266-.863-3.326-.403-5.944.079-.397.149-.724.198-.95 1.328-6.022 2.8-12.968 4.357-20.322Z" fill="#000"/><path d="M518.461 565.489c1.88 8.46 4.43 19.696 5.77 26.436.1.52.22 1.14.38 1.81a12.238 12.238 0 0 0 2.24 5.3 4.757 4.757 0 0 0 6.68.31c1.65-1.84 1.08-5.97.92-7.2l-.09-.7c-1.13-9.15-2.48-21.02-3.78-32l-12.12 6.044Z" fill="#fff"/><path fill-rule="evenodd" clip-rule="evenodd" d="M530.372 601.065h.009a4.838 4.838 0 0 0 3.521-1.387c1.778-1.982 1.232-6.163 1.044-7.598l-.09-.697c-.726-5.884-1.53-12.774-2.38-20.069-.464-3.98-.935-8.01-1.399-11.928l-.083-.706-13.106 6.534 1.247 5.592c1.653 7.403 3.527 15.795 4.611 21.247.101.52.22 1.135.376 1.79a12.203 12.203 0 0 0 2.357 5.525 5.162 5.162 0 0 0 3.893 1.697Zm-10.262-30.478-1.076-4.827 11.134-5.551c.412 3.484.828 7.049 1.24 10.582l.074.64c.851 7.296 1.655 14.187 2.382 20.076l.099.763c.441 3.384.171 5.652-.804 6.738a3.811 3.811 0 0 1-2.778 1.057h-.007a4.18 4.18 0 0 1-3.153-1.367 11.325 11.325 0 0 1-2.124-5.08 37.939 37.939 0 0 1-.364-1.73l-.012-.062c-1.08-5.432-2.955-13.83-4.611-21.239Z" fill="#000"/><path d="M491.961 571.566c1.59 7.59 3.05 13.09 4.24 19.09.21 1.05.67 3.39 1.29 5.67a17.828 17.828 0 0 0 1.9 4.92c1.69 2.42 4.32 2.04 6.02.98 1.92-1.19 1.92-4.22 1.69-6.31-.08-.83-.2-1.5-.24-1.86-.89-7.18-1.81-15.1-2.85-24.04l-12.05 1.55Z" fill="#fff"/><path fill-rule="evenodd" clip-rule="evenodd" d="M498.98 601.53a4.409 4.409 0 0 0 3.713 2.018 5.713 5.713 0 0 0 2.981-.9c1.66-1.027 2.307-3.312 1.925-6.782a28.18 28.18 0 0 0-.176-1.389c-.028-.193-.052-.355-.067-.485-.866-6.999-1.749-14.585-2.771-23.371l-.001-.009-.135-1.159-13.089 1.685.112.529c.761 3.637 1.482 6.747 2.179 9.754.741 3.193 1.44 6.21 2.059 9.331l.025.125c.218 1.094.672 3.368 1.273 5.578a17.417 17.417 0 0 0 1.972 5.075Zm-4.354-20.335c-.662-2.854-1.346-5.802-2.064-9.204l11.01-1.417.019.155.015.134c1.016 8.733 1.895 16.283 2.757 23.246.015.129.039.297.069.498l.002.014c.051.356.118.816.17 1.348.232 2.104.168 4.824-1.458 5.831-1.53.953-3.846 1.304-5.348-.845a16.918 16.918 0 0 1-1.825-4.762c-.591-2.177-1.041-4.429-1.257-5.511l-.026-.125c-.622-3.137-1.322-6.161-2.064-9.362Z" fill="#000"/><path d="M433.194 148.071c.889-3.089 4.057-6.401 6.439-8.56a2.907 2.907 0 0 0 3.369-.016 3.265 3.265 0 0 0 .862-3.196 4.525 4.525 0 0 0-2.272-2.68 3.398 3.398 0 0 0-3.591.172c-1.487 1.093-1.37 2.777-.118 4.084-2.661 3.563-7.393 5.202-11.833 4.957l3.989 3.785 3.155 1.454Z" fill="#fff"/><path fill-rule="evenodd" clip-rule="evenodd" d="M432.985 148.523a.5.5 0 0 0 .69-.316c.811-2.822 3.667-5.91 6.026-8.084a3.307 3.307 0 0 0 3.642-.264 3.752 3.752 0 0 0 1.005-3.692 5.046 5.046 0 0 0-2.53-2.996 3.91 3.91 0 0 0-4.113.214 2.944 2.944 0 0 0-1.279 2.127 3.37 3.37 0 0 0 .81 2.38c-2.431 2.994-6.676 4.675-11.159 4.438a.5.5 0 0 0-.371.862l3.989 3.785a.482.482 0 0 0 .135.092l3.155 1.454Zm-.092-1.144-2.57-1.184-2.999-2.845a14.02 14.02 0 0 0 10.96-5.178.498.498 0 0 0-.039-.644 2.553 2.553 0 0 1-.823-1.929 1.976 1.976 0 0 1 .875-1.408 2.889 2.889 0 0 1 3.068-.129 3.998 3.998 0 0 1 2.017 2.365 2.774 2.774 0 0 1-.721 2.699 2.428 2.428 0 0 1-2.754-.036.501.501 0 0 0-.61.048c-2.358 2.138-5.31 5.25-6.404 8.241Z" fill="#000"/><path d="M446.621 145.423a34.884 34.884 0 0 0-7.622 5.799 7.249 7.249 0 0 0-1.122 7.27 5.95 5.95 0 0 0 5.218 4.357c2.444.06 4.869-.435 7.093-1.448 6.97-2.909 10.354-.112 11.266 3.412 1.116 4.317-1.136 8.187-4.843 8.795-4.309.706-5.584-1.275-9.99-3.375-3.499-1.668-8.093-1.467-8.763 1.995-4.528 33.011.685 156.256.966 187.665.104 11.74.237 23.669 3.643 34.905 4.338 14.312 13.334 25.914 23.667 36.82 16.502 16.631 47.55 29.379 62.574 47.356 10.447 12.501 14.518 21.514 16.553 37.506 2.912 22.875-5.233 43.032-30.963 50.976-21.095 6.513-40.57 4.365-59.469 1.36-13.299-2.115-23.626-9.498-31.976-20.062-11.721-14.829-12.131-40.731-10.364-54.882 3.06-24.515 4.594-40.732 7.655-65.248 3.715-23.619 3.459-47.662 3.095-71.569-.435-28.671 3.159-147.239-.911-178.056-1.128-6.898-2.263-7.666-9.907-10.806a3.14 3.14 0 0 1-1.758-3.549c.172-.622.427-3.041-2.009-3.246a2.4 2.4 0 0 0-1.703.562 3.53 3.53 0 0 0-.852 1.902c-.262 1.303-3.543-1.801-4.508-2.697-4.685-4.355-8.057-10.29-5.735-16.589a12.784 12.784 0 0 1 4.606-5.916c5.618-4.013 12.842-3.533 18.786-.817a31.453 31.453 0 0 1 10.19 7.657 7.162 7.162 0 0 0 8.445 1.539 29.138 29.138 0 0 0 6.405-4.194 3.627 3.627 0 0 1-.285-.915 2.964 2.964 0 0 1 1.278-2.746 3.62 3.62 0 0 1 4.879.41 3.55 3.55 0 0 1 .271 5.21c-1.1.8-2.514 1.03-3.81.619Z" fill="#fff"/><path fill-rule="evenodd" clip-rule="evenodd" d="M454.75 569.312a190.737 190.737 0 0 0 30.155 2.902 98.939 98.939 0 0 0 29.541-4.279c23.496-7.255 34.616-25.55 31.311-51.517-2.025-15.916-6.075-25.091-16.665-37.762-8.163-9.768-21.123-18.063-33.657-26.084l-.014-.009c-10.514-6.73-21.384-13.687-28.925-21.286-9.053-9.557-18.93-21.381-23.55-36.622-3.413-11.258-3.52-23.208-3.622-34.765-.07-7.78-.433-20.878-.893-37.46l-.002-.058-.001-.021c-1.383-49.891-3.474-125.268-.079-150.027a2.873 2.873 0 0 1 1.596-2.111c1.591-.799 4.186-.611 6.462.473 1.191.568 2.158 1.132 3.012 1.631l.024.013c2.298 1.344 3.961 2.316 7.249 1.773a6.37 6.37 0 0 0 4.344-2.856 8.243 8.243 0 0 0 .902-6.557 6.462 6.462 0 0 0-3.314-4.299c-2.215-1.103-5.12-.917-8.629.551a15.626 15.626 0 0 1-6.86 1.411 5.449 5.449 0 0 1-4.783-4.018 6.733 6.733 0 0 1 1.011-6.768 34.862 34.862 0 0 1 7.311-5.607 4.709 4.709 0 0 0 4.104-.795 3.786 3.786 0 0 0 1.162-2.711 4.427 4.427 0 0 0-1.427-3.212 4.094 4.094 0 0 0-5.535-.454 3.457 3.457 0 0 0-1.47 3.214c.037.239.098.474.183.701a29.032 29.032 0 0 1-6.028 3.888 6.694 6.694 0 0 1-7.855-1.425 32.046 32.046 0 0 0-10.352-7.776c-6.9-3.154-14.111-2.831-19.286.865a13.19 13.19 0 0 0-4.783 6.15c-2.789 7.567 2.477 13.979 5.863 17.128l.098.09c2.628 2.446 3.893 3.26 4.674 3.012a.83.83 0 0 0 .566-.67 3.054 3.054 0 0 1 .691-1.625c.373-.31.849-.468 1.334-.442.519 0 1.009.242 1.326.654.334.616.417 1.337.23 2.012a3.621 3.621 0 0 0 2.061 4.094c7.51 3.085 8.511 3.736 9.602 10.409 2.84 21.494 1.945 85.607 1.292 132.436l-.001.034c-.276 19.792-.514 36.885-.383 45.528.337 22.157.718 47.271-3.092 71.5-1.527 12.229-2.694 22.564-3.821 32.555l-.011.099c-1.128 10.004-2.295 20.348-3.823 32.593-2.09 16.736-.602 41.249 10.467 55.253 9.192 11.63 19.754 18.253 32.29 20.247Zm-46.053-408.41a2.435 2.435 0 0 0-.209-.009 2.926 2.926 0 0 0-1.865.691 3.72 3.72 0 0 0-.994 2.083c-.317-.073-1.2-.542-3.599-2.776l-.098-.091c-3.205-2.979-8.195-9.025-5.607-16.05a12.189 12.189 0 0 1 4.427-5.68c4.877-3.486 11.716-3.775 18.288-.77a31.031 31.031 0 0 1 10.028 7.538 7.703 7.703 0 0 0 9.033 1.654 29.723 29.723 0 0 0 6.518-4.271l.273-.242-.146-.334a3.118 3.118 0 0 1-.248-.783 2.477 2.477 0 0 1 1.085-2.278 3.127 3.127 0 0 1 4.223.365 3.493 3.493 0 0 1 1.134 2.497 2.795 2.795 0 0 1-.857 2.001 3.835 3.835 0 0 1-3.308.502l-.195-.064-.184.093a35.094 35.094 0 0 0-7.762 5.903 7.725 7.725 0 0 0-1.23 7.774 6.416 6.416 0 0 0 5.651 4.694 16.577 16.577 0 0 0 7.325-1.485c3.189-1.329 5.884-1.53 7.8-.577a5.459 5.459 0 0 1 2.789 3.653 7.244 7.244 0 0 1-.771 5.762 5.384 5.384 0 0 1-3.668 2.415c-2.936.48-4.308-.321-6.582-1.649l-.001-.001-.006-.003c-.875-.511-1.867-1.091-3.105-1.68-2.578-1.23-5.461-1.412-7.341-.463a3.886 3.886 0 0 0-2.132 2.84c-3.411 24.871-1.319 100.316.067 150.24l.009.318c.456 16.453.816 29.449.885 37.181.103 11.627.211 23.649 3.665 35.045 4.679 15.44 14.648 27.379 23.79 37.028 7.63 7.689 18.552 14.68 29.117 21.441l.009.005c12.467 7.98 25.358 16.231 33.42 25.877 10.448 12.501 14.443 21.552 16.44 37.249 3.236 25.428-7.636 43.34-30.614 50.435-21.235 6.556-40.911 4.259-59.244 1.344-12.277-1.952-22.633-8.455-31.662-19.879-6.798-8.601-13.565-28.037-10.26-54.51 1.526-12.229 2.692-22.561 3.819-32.552l.006-.052c1.13-10.018 2.299-20.379 3.828-32.627 3.82-24.292 3.439-49.445 3.102-71.64v-.015c-.131-8.627.107-25.714.383-45.499l.001-.033c.653-46.859 1.548-111.015-1.302-132.597-1.151-7.033-2.356-7.961-10.211-11.187a2.623 2.623 0 0 1-1.467-2.953 3.63 3.63 0 0 0-.384-2.799 2.638 2.638 0 0 0-2.063-1.079Z" fill="#000"/><path d="M395.103 149.77a7.966 7.966 0 0 0 9.814-1.985 7.88 7.88 0 0 0-.846-10.691s-4.166 1.342-6.175 3.961a14.351 14.351 0 0 0-2.793 8.715Z" fill="#000"/><path d="M402.414 141.522a2.122 2.122 0 0 0-1.036.566c-.466.446.242 1.153.707.707.163-.16.37-.268.595-.309.627-.141.362-1.105-.266-.964Z" fill="#fff"/><circle cx="421.592" cy="148.309" r="1.582" fill="#000"/><path d="M532.639 483.961a43.22 43.22 0 0 1 38.943 29.363c.197.61 1.163.349.964-.266a44.25 44.25 0 0 0-39.907-30.097c-.644-.022-.643.978 0 1Z" fill="#000"/><path d="M571.839 512.539a14.652 14.652 0 0 0 2.14 15.079c1.535 1.816 4.527 3.181 6.108 1.406.892-1.001.813-2.519.569-3.837-1.056-5.696-4.201-9.147-8.817-12.648M436.236 205.599a4.782 4.782 0 0 1 5.213 1.826 3.78 3.78 0 0 1-.787 4.906 5.275 5.275 0 0 1-4.525.507M436.137 220.052c2.938-1.247 5.648 1.151 5.185 3.501-.463 2.351-2.991 2.769-5.185 2M436.308 233.046c2.661-.752 6.116 1.156 6.116 4.468 0 3.079-2.941 4.521-6.248 4.068M436.422 246.819c3.624-.579 6.703 1.603 6.364 5.279-.27 2.937-2.934 4.184-6.111 3.82M436.689 260.926c4.409-1.082 8.15 3.555 5.181 6.936-1.259 1.062-3.815 1.32-5.181 1.253M436.867 274.848a9.877 9.877 0 0 1 5.712.741 4.78 4.78 0 0 1 2.066 4.56c-.341 2.924-5.301 3.981-7.778 3.272M437.421 289.635c1.522-.143 4.537-.392 6.161 1.064a4.79 4.79 0 0 1 .817 6.38c-1.384 1.787-4.738 2.664-6.978 2.137M437.848 304.311a8.989 8.989 0 0 1 5.23.56c2.186 1.232 2.186 3.151 1.29 4.928-.874 1.733-4.588 2.251-6.52 2.073M437.848 318.427c1.589 0 4.105-.409 5.846.784a4.515 4.515 0 0 1 1.06 5.937c-1.284 1.905-4.476 2.02-6.245 1.869M438.2 332.204c4.149-.787 6.893.333 6.892 4.409-.001 2.982-4.591 2.925-6.584 2.815M457.651 473.849c-1.718-.59-2.707-3.866-3.248-5.339-.736-2.003-1.465-4.002-.535-6.088a43.884 43.884 0 0 1 4.804-7.631c3.016-4.123 4.903.875 5.88 3.271a48.53 48.53 0 0 1 2.11 6.362c.333 1.308 1.266 3.905.51 5.195-.689 1.176-3.072 1.998-4.233 2.535-1.519.705-3.668 1.871-5.421 1.678-.639-.071-.634.93 0 1 1.552.171 3.262-.666 4.651-1.249a18.679 18.679 0 0 0 5.275-2.845c2.253-2.051.095-7.146-.66-9.467-.753-2.312-2.635-9.852-5.951-9.576-2.349.195-4.258 4.318-5.31 5.97-1.343 2.11-3.278 4.538-3.141 7.191.25 1.949.834 3.841 1.725 5.593.665 1.527 1.552 3.772 3.278 4.365.61.209.872-.756.266-.965ZM482.094 469.099c-.714 3.549-2.111 7.563-2.049 11.195.037 2.193 1.437 3.818 3.206 4.994 4.925 3.275 9.038-.631 10.192-5.535.798-3.39 2.527-8.707-1.451-10.625a22.111 22.111 0 0 0-6.799-1.745c-1.563-.17-2.526.179-3.099 1.716-.225.604.741.865.964.266.836-2.242 6.78-.094 8.279.572 3.404 1.514 1.863 6.38 1.215 9.233-.511 2.251-1.3 4.741-3.519 5.876-2.395 1.225-5.028-.022-6.712-1.823-1.969-2.107-1.073-4.723-.57-7.27.433-2.197.869-4.393 1.307-6.588.127-.629-.837-.897-.964-.266ZM427.874 500.841c1.727 3.158 3.249 7.174 5.638 9.878 1.453 1.644 3.577 1.968 5.686 1.719 5.494-.649 6.529-5.856 4.453-10.265-1.38-2.93-3.693-8.636-7.787-7.84a21.261 21.261 0 0 0-5.985 2.704c-1.577.904-2.661 1.739-2.055 3.684.19.613 1.156.351.964-.265-.75-2.41 5.661-4.89 7.342-5.159 3.102-.494 5.064 4.264 6.23 6.528.947 1.84 1.831 3.926 1.293 6.045-.69 2.72-3.403 3.737-5.93 3.639-2.891-.112-4.019-2.149-5.286-4.447a4395.133 4395.133 0 0 1-3.699-6.726c-.309-.565-1.173-.061-.864.505ZM522.761 481.613c-3.222-1.635-6.722-4.069-10.234-4.968a6.216 6.216 0 0 0-5.674 1.757c-4.287 3.738-2.005 8.716 2.329 11.144 3.078 1.724 7.948 4.976 10.91 1.593a22.132 22.132 0 0 0 3.501-6.084c.582-1.462.495-2.48-.832-3.442-.521-.379-1.021.488-.504.863 1.917 1.391-1.748 6.607-2.775 7.825-2.426 2.88-6.91-.036-9.509-1.463-1.914-1.05-3.698-2.339-4.275-4.542-.695-2.65.887-4.793 3.122-6.078 2.557-1.471 4.637-.173 7.01 1.02 2.144 1.077 4.286 2.156 6.427 3.238.572.29 1.079-.572.504-.863ZM437.434 437.126c3.536-.649 7.84-.832 11.146-2.266 2.166-.939 3.167-3.146 3.485-5.395.764-5.405-4.171-7.505-8.777-6.849-3.425.488-9.249.838-9.578 5.266-.042 2.25.233 4.494.819 6.666.369 1.602.99 2.637 2.772 2.595a.5.5 0 0 0 0-1c-2.497.058-2.783-6.485-2.591-8.261.36-3.321 5.201-3.71 7.864-4.148 2.15-.352 4.534-.617 6.477.634 2.362 1.521 2.461 4.407 1.565 6.781-1.048 2.774-3.314 3.124-5.902 3.608-2.515.47-5.03.938-7.546 1.404-.632.116-.365 1.08.266.965ZM526.664 519.928c1.447-2.754 3.595-5.735 4.399-8.749a5.325 5.325 0 0 0-1.354-4.816c-3.212-3.963-7.666-2.008-9.877 1.836-1.554 2.702-4.329 6.813-1.344 9.411 1.754 1.526 6.216 4.942 8.176 2.318.386-.515-.482-1.015-.863-.504-1.149 1.537-5.464-1.556-6.468-2.419-2.493-2.142-.043-5.807 1.21-8.029a7.669 7.669 0 0 1 3.156-3.479c2.582-1.185 5.049.595 6.138 2.886 1.029 2.163-.512 4.285-1.492 6.168-.846 1.626-1.694 3.25-2.544 4.873-.299.569.564 1.075.863.504ZM488.163 509.73c-1.115-2.855 1.11-4.506 3.314-5.776 1.822-1.049 3.816-2.385 5.913-2.764 5.966-1.08 5.906 7.709 5.836 11.457a31.27 31.27 0 0 1-.72 6.604c-.28 1.186-.643 2.688-1.782 3.368-2.047 1.223-4.082-1.05-5.276-2.281a41.66 41.66 0 0 1-7.335-10.728c-.286-.576-1.149-.07-.864.505a43.485 43.485 0 0 0 5.366 8.559c1.592 1.92 3.692 4.8 6.354 5.219 5.902.93 5.313-10.545 5.249-13.818-.085-4.38-1.555-11.155-7.401-9.776a21.26 21.26 0 0 0-7.871 4.125c-1.807 1.488-2.627 3.32-1.747 5.572.231.593 1.199.335.964-.266ZM475.39 553.116c-.027 4.46-7.34 4.646-10.57 4.475-6.591-.349-4.386-7.74-2.787-11.686a38.489 38.489 0 0 1 2.92-5.901 9.066 9.066 0 0 1 2.14-2.799c2.69-1.809 4.031-.113 5.021 1.903a37.85 37.85 0 0 1 3.276 14.008c.045.638 1.046.643 1 0a43.565 43.565 0 0 0-1.874-10.524c-.762-2.333-1.762-6.16-4.418-7.072-5.057-1.739-8.398 8.376-9.63 11.652-1.726 4.592-2.054 11.138 4.352 11.419 3.879.171 11.538-.148 11.57-5.475a.5.5 0 0 0-1 0ZM488.831 537.965c-.461 5.245-1.646 11.469 2.306 15.682 1.79 1.908 4.87 4.515 7.495 4.959 2.461.416 2.951-1.99 3.449-3.856 1.423-5.333 2.578-12.037-2.416-15.786-2.332-1.751-9.973-6.654-10.816-1.132-.096.629.868.901.965.266.68-4.461 8.682.963 10.326 2.551 3.612 3.488 2.049 9.939.88 14.195a5.324 5.324 0 0 1-.466 1.605 2.66 2.66 0 0 1-3.471.419 25.167 25.167 0 0 1-2.74-1.807c-2.213-1.618-4.086-3.454-4.696-6.231-.768-3.504-.126-7.338.184-10.865.057-.641-.944-.637-1 0ZM517.315 535.943c-.617 4.506-1.285 9.671 2.45 12.947 1.478 1.296 4.325 3.289 6.469 2.812 2.127-.473 3.02-3.636 3.57-5.357 1.333-4.174 3.581-11.868-2.286-13.486a17.475 17.475 0 0 0-7.088-.403c-2.053.334-2.792 1.473-3.115 3.487-.1.63.863.901.965.266.358-2.236 1.511-2.788 3.613-2.868 1.713-.095 3.43.045 5.105.416 5.221 1.267 3.088 8.206 1.979 11.891-.829 2.754-2.095 6.024-5.605 4.409a10.606 10.606 0 0 1-4.611-3.786c-1.6-2.62-.879-7.16-.481-10.062.086-.629-.878-.901-.965-.266ZM429.167 542.724a49.256 49.256 0 0 1 .622-8.081c.177-1.075.397-2.143.636-3.205.305-1.355.346-2.701 1.614-3.357 1.806-.935 4.996-.119 6.84.551 2.696.98 3.815 3.024 4.822 5.539.732 1.831 1.447 3.686 1.995 5.58.289.985.519 1.986.689 2.997.201 1.215.268 2.8-.985 3.606-.449.289-1.745.098-2.31.108a35.775 35.775 0 0 1-6.841-.459c-1.894-.338-6.551-1.173-7.1-3.412-.153-.624-1.118-.36-.964.266.564 2.302 3.745 3.087 5.738 3.64a34.018 34.018 0 0 0 10.062.95c2.48-.07 3.772-.973 3.569-3.584-.252-3.25-1.512-6.424-2.683-9.429-.863-2.215-1.704-4.473-3.778-5.828a14.662 14.662 0 0 0-8.253-1.884c-2.773.151-2.966 2.542-3.47 4.852a51.929 51.929 0 0 0-1.203 11.15.5.5 0 0 0 1 0ZM424.306 463.654c.287 3.047.625 6.55 2.058 9.312.854 1.647 2.221 2.003 4.01 1.861 2.769-.22 8.463-1.306 8.53-4.857a22.079 22.079 0 0 0-4.094-12.296c-1.012-1.276-1.954-1.268-3.333-.443a62.099 62.099 0 0 0-5.109 3.835c-1.084.814-1.986 1.194-2.062 2.588-.035.643.965.641 1 0 .064-1.175 2.568-2.476 3.391-3.094a25.031 25.031 0 0 1 3.285-2.465c1.841-.935 2.338.483 3.079 1.962a25.013 25.013 0 0 1 2.82 9.348 2.246 2.246 0 0 1-1.466 2.588 17.605 17.605 0 0 1-5.087 1.702 5.534 5.534 0 0 1-3.012-.04 3.811 3.811 0 0 1-1.575-2.43c-.774-2.459-1.255-5-1.435-7.571-.059-.635-1.06-.642-1 0ZM455.387 505.508a43.056 43.056 0 0 0 1.703 9.281c.474 1.469 1.043 3.297 2.559 3.978 3.33 1.495 9.104-.737 11.923-2.599 2.474-1.634 1.322-5.326.717-7.711-.856-3.376-2.097-8.135-4.648-10.698-1.793-1.801-3.769.162-5.357 1.354l-5.484 4.117c-.922.693-1.419 1.087-1.413 2.278a.5.5 0 0 0 1 0c-.007-1.524 3.501-3.354 4.573-4.159 1.348-1.012 2.896-2.621 4.553-3.037 1.229-.308 1.318-.082 2.019.942a16.45 16.45 0 0 1 1.214 2.213c1.622 3.398 3.183 7.57 3.279 11.381.044 1.725-.533 2.298-2.04 3.053a21.94 21.94 0 0 1-6.495 2.079 6.228 6.228 0 0 1-3.436-.145c-1.098-.535-1.529-1.92-1.901-3.002a39.998 39.998 0 0 1-1.766-9.325c-.058-.635-1.059-.641-1 0ZM411.731 588.883a76.71 76.71 0 0 0 9.8 2.84 17.907 17.907 0 0 1-2.16 5.1 4.808 4.808 0 0 1-7.58-.32c-1.17-1.86-.53-5.51-.06-7.62ZM448.3 596.335a15.334 15.334 0 0 1-2.519 5.434c-1.91 2.25-6.17 1.09-7.35-.99-1.06-1.85-.65-5.129-.36-6.779a97.536 97.536 0 0 0 10.229 2.335ZM507.015 595.164c.416 2.486.316 5.869-1.604 7.059-1.7 1.06-4.33 1.44-6.02-.98a17.828 17.828 0 0 1-1.9-4.92c2.092-.144 6.524-.853 9.524-1.159ZM533.531 599.339a4.833 4.833 0 0 1-6.68-.309c-1.17-1.29-1.916-3.833-2.326-5.673a70.668 70.668 0 0 0 9.894-1.56c.03.24 1.078 5.607-.888 7.542Z" fill="#000"/></svg>