<svg width="465" height="496" fill="none" xmlns="http://www.w3.org/2000/svg"><g clip-path="url('#clip0_2614_3223')"><path d="M153.002 110.883c22.429 18.135 54.895 38.815 82.643 46.688 16.284 4.621 45.846 7.654 64.825 8.237a2.731 2.731 0 0 1 2.647 2.721l.025 5.148a2.74 2.74 0 0 1-2.299 2.716c-20.858 3.451-22.039 3.808-42.653 4.171-13.551.239-29.926-1.267-43.026-4.745a140.254 140.254 0 0 1-23.58-9.317" fill="#fff"/><path d="M255.312 181.088c-13.995 0-28.85-1.754-40.277-4.787a140.599 140.599 0 0 1-23.671-9.351l.44-.899a139.59 139.59 0 0 0 23.487 9.284c12.133 3.22 28.169 4.993 42.891 4.727 19.541-.344 21.437-.658 39.58-3.667l2.999-.497a2.234 2.234 0 0 0 1.881-2.22l-.026-5.149a2.225 2.225 0 0 0-2.162-2.223c-19.486-.598-48.871-3.695-64.946-8.256-28.359-8.047-61.376-29.442-82.82-46.78l.628-.778c21.368 17.277 54.251 38.591 82.465 46.596 15.997 4.539 45.277 7.622 64.704 8.218a3.225 3.225 0 0 1 3.131 3.218l.026 5.149a3.23 3.23 0 0 1-2.718 3.211l-2.999.497c-18.208 3.02-20.111 3.336-39.726 3.681-.957.017-1.919.026-2.887.026Z" fill="#000"/><path d="M303.142 167.324c1.418.034 10.402-.629 14.081-.775 3.697-.146 5.91-.076 7.743 1.759 2.04 2.044 3.004 8.084 1.12 12.91a6.28 6.28 0 0 1-1.654 2.5c-1.777 1.415-7.255 1.176-9.521.85-7.012-1.008-12.186-9.439-12.186-9.439l.417-7.805Z" fill="#fff"/><path d="M318.826 185.32a30.362 30.362 0 0 1-3.986-.257c-7.161-1.03-12.325-9.321-12.541-9.673l-.082-.133.451-8.444.485.011c.762.022 3.765-.171 6.951-.37 2.666-.166 5.423-.338 7.1-.405 3.721-.145 6.121-.091 8.115 1.905 2.2 2.202 3.194 8.42 1.233 13.446a6.682 6.682 0 0 1-1.808 2.709c-1.191.948-3.668 1.211-5.918 1.211Zm-15.594-10.325c.681 1.05 5.52 8.182 11.75 9.078 2.422.349 7.59.487 9.139-.746a5.863 5.863 0 0 0 1.499-2.291c1.796-4.602.934-10.431-1.008-12.375-1.648-1.651-3.605-1.76-7.369-1.613-1.664.066-4.416.238-7.076.404-2.74.172-5.351.335-6.551.367l-.384 7.176Z" fill="#000"/><path d="M462.935 402.377a6.478 6.478 0 0 0-6.194-3.389 25.152 25.152 0 0 0-4.037.928c-1.327.388-2.633.788-3.583.993a37.083 37.083 0 0 1-20.332-1.554 166.434 166.434 0 0 0 12.907-25.804c13.437-34.934 21.199-72.653 19.926-92.317-5.825 5.448-12.458 8.127-19.98 5.483-13.673-4.813-27.131-18.476-35.441-30.347-12.184-17.429-22.372-34.438-20.041-55.407.228-2.045.82-4.034 1.748-5.871-5.007 8.364-13.49 15.649-23.332 21.369a23.52 23.52 0 0 1-27.143-2.5 23.53 23.53 0 0 1-5.859-7.634 111.742 111.742 0 0 1-9.12-28.275c-.442-2.504-1.557-13.84-7.327-15.358-2.984-.784-7.909.136-11.19 7a48.518 48.518 0 0 0-2.367 10.256c-1.025-.755-1.477-7.035-4.833-7.165-4.177-.151-8.958 4.824-11.041 7.058-8.644 9.249-17.925 29.398-16.835 45.823a54.167 54.167 0 0 0 3.334 16.782c-24.347 5.601-44.01 12.26-64.655 22.156-14.451 8.17-33.618 22.275-45.985 41.615a114.652 114.652 0 0 0-9.875 19.156 31.711 31.711 0 0 1-4.813-2.936.662.662 0 0 0 .097-.054c3.961-1.975 7.446-6.399 5.385-11.029-2.385-5.375-10.673-4.77-12.713.507a9.167 9.167 0 0 0 1.047 8.72c-2.763.022-5.396-1.068-6.691-3.712-1.209-2.429-.939-5.429-.335-7.987.475-2.028-2.719-2.547-3.194-.528-.821 3.485-.864 7.5 1.025 10.662 2.417 4.037 7.317 5.364 11.763 4.576a29.564 29.564 0 0 0 7.274 4.824 93.322 93.322 0 0 0-2.935 9.638 87.535 87.535 0 0 0-2.299 22.145h-.011c-6.637 1.597-14.17 2.407-20.181-.572-.605-.302-7.296-3.734-9.81-3.961a7.502 7.502 0 0 0-6.227 2.817c-2.741 3.68-.119 7.565 1.532 9.314a17.049 17.049 0 0 0 3.929 3.043c9.432 5.396 24.228 3.27 31.437-.043a133.012 133.012 0 0 0 3.41 18.67c-6.097 3.896-16.101 7.22-24.811 6.368-1.025-.098-2.665-.335-4.338-.519a23.117 23.117 0 0 0-4.91-.215c-2.882.41-5.31 2.752-5.709 4.888-.842 4.404 2.579 7.587 4.845 8.742 1.73.869 3.583 1.47 5.494 1.781 11.687 2.061 26.613-4.706 32.624-10.458a129.309 129.309 0 0 0 1.856 4.997c16.264 41.053 48.759 69.868 92.553 75.512 11.062 1.414 41.237 2.126 52.299.723 41.83-5.299 73.149-19.803 98.64-43.718 7.328 6.745 20.71 11.763 31.588 10.425a22.119 22.119 0 0 0 2.116-.335 21.479 21.479 0 0 0 3.852-1.155 6.074 6.074 0 0 0 3.724-6.766 6.486 6.486 0 0 0-5.137-4.857 22.665 22.665 0 0 0-3.475-.129c-.713.011-1.436.032-2.116.054-.852.032-1.64.043-2.266.021a36.53 36.53 0 0 1-19.145-6.496 210.252 210.252 0 0 0 4.306-4.835c3.604-4.198 7.554-9.152 10.641-13.512 6.615 3.853 22.555 6.389 33.391 2.752a19.928 19.928 0 0 0 5.655-2.871 6.095 6.095 0 0 0 1.888-7.489Zm-319.954-90.082c1.727-2.623 6.432-1.662 6.691 1.532a5.268 5.268 0 0 1-2.136 4.403 10.75 10.75 0 0 1-3.346 1.77c-2.018-2.255-3.032-4.942-1.209-7.705Z" fill="#fff"/><path d="M332.048 228.345c-10.279 0-17.949-5.327-22.849-15.895-3.812-8.225-5.052-15.421-6.486-23.754l-.519-2.99c-.188-1.072-.339-1.719-.495-2.394-.188-.81-.383-1.649-.661-3.27l1.065-.183a48.08 48.08 0 0 0 .647 3.209c.161.696.313 1.352.507 2.451.18 1.017.35 2.014.519 2.994 1.422 8.257 2.651 15.388 6.402 23.483 5.568 12.009 14.859 16.972 27.611 14.746 4.716-.823 16.558-4.966 23.66-9.337l.567.919c-7.322 4.505-19.129 8.624-24.041 9.482-1.957.35-3.94.53-5.927.539Z" fill="#000"/><path d="M386.161 200.963c-2.328 20.974 7.852 37.974 20.044 55.404 8.309 11.878 21.76 25.541 35.434 30.354 12.347 4.347 20.343-3.935 21.356-10.016 1.596-9.575 1.038-16.079-3.146-29.671-5.608-18.222-26.285-47.354-43.366-59.1-12.067-8.298-28.832-.399-30.322 13.029Z" fill="#fff"/><path d="M385.621 200.963c-2.287 22.184 9.837 42.441 22.856 59.409 6.606 8.61 14.506 16.637 23.784 22.366 7.401 4.57 17.042 8.448 25.057 3.038 6.238-4.212 7.108-11.397 7.038-18.401-.089-8.94-2.73-18.235-6.177-26.426a130.48 130.48 0 0 0-13.924-24.32 142.69 142.69 0 0 0-19.13-22.347c-6.483-6.032-13.685-11.6-23.068-9.972a19.774 19.774 0 0 0-16.436 16.653c-.088.687.992.68 1.08 0 1.046-8.103 7.717-14.257 15.643-15.612 8.725-1.492 15.461 3.672 21.525 9.238a143.533 143.533 0 0 1 31.257 42.242 85.12 85.12 0 0 1 7.607 24.103c.594 3.84.692 7.74.293 11.605-.38 3.69-.962 6.985-3.481 9.852-6.712 7.635-16.893 4.997-24.662.641-8.927-5.006-16.556-12.325-23.048-20.168a146.54 146.54 0 0 1-18.448-28.346c-5.167-10.51-7.896-21.824-6.686-33.555.071-.69-1.009-.685-1.08 0Z" fill="#000"/><path d="M439.156 234.341c1.668-1.204 1.26-4.618-.911-7.624-2.17-3.007-5.282-4.468-6.95-3.264-1.668 1.204-1.26 4.617.911 7.624 2.17 3.007 5.282 4.468 6.95 3.264ZM423.796 246.638c1.668-1.204 1.261-4.618-.91-7.624-2.171-3.007-5.282-4.469-6.95-3.264-1.668 1.204-1.26 4.617.91 7.624 2.171 3.007 5.283 4.468 6.95 3.264ZM364.159 268.649a11.578 11.578 0 0 1-6.693-2.127 11.587 11.587 0 1 1 18.012-6.993 11.607 11.607 0 0 1-11.319 9.12Zm-.003-22.093a10.501 10.501 0 0 0-9.476 5.972 10.505 10.505 0 0 0 6.069 14.473 10.512 10.512 0 0 0 10.902-2.574 10.513 10.513 0 0 0 2.772-5.128 10.516 10.516 0 0 0-2.087-8.826 10.511 10.511 0 0 0-8.18-3.917Z" fill="#000"/><path d="M365.551 257.539a4.176 4.176 0 1 0-.001-8.351 4.176 4.176 0 0 0 .001 8.351ZM419.033 329.976c-3.044 5.666-8.947 8.99-15.346 10.814-4.76 1.36-10.728 1.91-15.239.712-4.986-1.327-9.476-5.104-10.792-10.09-1.317-4.975 1.327-10.987 6.238-12.53a15.814 15.814 0 0 1 6.292-.324c.474.044.938.097 1.392.141 2.687.323 4.953.744 7.144 1.1 1.198.195 2.374.367 3.594.486 2.244.238 4.506.267 6.756.086a48.423 48.423 0 0 0 4.694-.604c4.123-.734 5.85 1.565 6.411 3.745a9.134 9.134 0 0 1-1.144 6.464Z" fill="#000"/><path d="M398.723 319.796a34.033 34.033 0 0 1-.432 3.486 5.89 5.89 0 0 1-.928 2.353 3.697 3.697 0 0 1-3.799 1.068 3.012 3.012 0 0 1-2.428-3.173c.01-.572.01-1.144.075-1.705.087-.777.248-2.212.367-3.13 2.406.188 4.794.556 7.145 1.101ZM409.072 320.367c0 .939.208 4.194-.982 5.548a3.559 3.559 0 0 1-2.741.885 2.997 2.997 0 0 1-2.245-1.339 5.858 5.858 0 0 1-.68-2.827c-.043-.55-.075-1.673-.108-2.353 2.188.166 4.471.145 6.756.086Z" fill="#fff"/><path d="M320.775 225.393c-6.659 0-15.77-6.434-20.017-15.479-4.247-9.045-5.295-22.13.033-30.93 0 0 2.453 11.623 5.564 24.955 3.613 15.485 14.42 21.454 14.42 21.454ZM122.585 358.285l-8.062 12.562a17.08 17.08 0 0 1-3.929-3.044c-1.651-1.748-4.273-5.633-1.532-9.313a7.485 7.485 0 0 1 2.774-2.159 7.489 7.489 0 0 1 3.453-.658 20.985 20.985 0 0 1 7.296 2.612ZM120.221 395.324c-.086 5.061-.179 10.126-.28 15.195a19.057 19.057 0 0 1-5.493-1.781c-2.267-1.154-5.688-4.338-4.846-8.741.399-2.137 2.828-4.479 5.709-4.889a23.046 23.046 0 0 1 4.91.216Z" fill="#000"/><path d="M366.427 253.36a1.328 1.328 0 1 0 0-2.656 1.328 1.328 0 0 0 0 2.656Z" fill="#fff"/><path d="M386.025 198.816c-4.873 6.611-12.12 12.803-21.197 18.078a24.02 24.02 0 0 1-19.114 2.194 24.01 24.01 0 0 1-14.59-12.542 111.631 111.631 0 0 1-9.162-28.407c-.043-.246-.093-.577-.154-.975-.524-3.473-1.918-12.698-6.808-13.985-3.176-.834-7.63.496-10.612 6.733a48.248 48.248 0 0 0-2.321 10.092l-.091.868-.703-.518a5.125 5.125 0 0 1-1.119-2.345c-.643-1.962-1.523-4.649-3.437-4.723a4.624 4.624 0 0 0-.168-.003c-4.05 0-8.883 5.184-10.487 6.902-8.854 9.474-17.758 29.544-16.702 45.449a53.368 53.368 0 0 0 3.305 16.642l.198.533-.555.128c-24.807 5.707-44.112 12.322-64.552 22.119-11.261 6.369-32.228 20.243-45.78 41.434a113.938 113.938 0 0 0-9.831 19.071l-.201.505-.486-.241a32.27 32.27 0 0 1-4.891-2.984l-.647-.485.822-.417c3.973-1.981 7.019-6.182 5.15-10.379a5.984 5.984 0 0 0-5.795-3.452 6.449 6.449 0 0 0-5.994 3.938 8.694 8.694 0 0 0 .999 8.265l.501.767-.916.007c-3.295-.018-5.889-1.43-7.144-3.994-1.051-2.111-1.177-4.912-.373-8.321a.896.896 0 0 0-.106-.747.902.902 0 0 0-.636-.407 1.18 1.18 0 0 0-1.478.855c-.547 2.324-1.148 6.749.968 10.291 2.083 3.48 6.498 5.18 11.247 4.341l.246-.044.182.171a29.2 29.2 0 0 0 7.149 4.738l.408.197-.155.426a93.11 93.11 0 0 0-2.919 9.585 86.825 86.825 0 0 0-2.284 22.019l.007.508h-.459c-8.71 2.087-15.403 1.882-20.463-.624l-.129-.066c-4.578-2.312-8.042-3.714-9.504-3.845a7.03 7.03 0 0 0-5.78 2.617c-2.739 3.677.451 7.567 1.495 8.672a16.56 16.56 0 0 0 3.811 2.952c9.374 5.363 24.028 3.134 30.982-.063l.631-.29.075.691a132.173 132.173 0 0 0 3.397 18.599l.09.351-.305.194c-6.013 3.843-16.111 7.327-25.129 6.445-.537-.051-1.244-.141-2.036-.241-.72-.09-1.51-.19-2.308-.278a23.428 23.428 0 0 0-4.785-.218c-2.735.389-4.942 2.634-5.289 4.486-.809 4.231 2.643 7.216 4.581 8.204a18.575 18.575 0 0 0 5.35 1.733c11.634 2.055 26.424-4.802 32.195-10.326l.561-.537.257.733c.645 1.842 1.251 3.47 1.849 4.978 16.801 42.409 50.39 69.818 92.153 75.201 11.385 1.455 41.351 2.095 52.172.723 40.936-5.186 72.191-19.036 98.36-43.587l.339-.319.342.315c7.72 7.108 21.13 11.536 31.188 10.297a21.833 21.833 0 0 0 2.077-.328 21.035 21.035 0 0 0 3.764-1.128 5.614 5.614 0 0 0 3.419-6.224 5.948 5.948 0 0 0-4.725-4.443 23.077 23.077 0 0 0-3.387-.122c-.709.01-1.43.032-2.107.053-.922.034-1.697.042-2.3.022a36.894 36.894 0 0 1-19.404-6.581l-.487-.325.397-.431a206.043 206.043 0 0 0 4.295-4.823c3.883-4.521 7.751-9.432 10.611-13.473l.265-.373.396.23c6.119 3.564 22.009 6.393 32.979 2.71a19.469 19.469 0 0 0 5.513-2.795 5.624 5.624 0 0 0 1.732-6.889 5.91 5.91 0 0 0-5.688-3.093c-1.339.196-2.659.5-3.948.911l-.605.179c-1.125.331-2.188.644-3.01.821a37.678 37.678 0 0 1-20.601-1.569l-.585-.203.321-.53a163.568 163.568 0 0 0 12.868-25.723c13.031-33.882 21.211-71.757 19.894-92.105l.998-.064c1.326 20.476-6.881 58.525-19.958 92.528a164.088 164.088 0 0 1-12.624 25.351 36.48 36.48 0 0 0 19.474 1.339c.788-.17 1.833-.479 2.94-.805l.61-.179c1.348-.43 2.73-.747 4.131-.947a7.004 7.004 0 0 1 6.696 3.682 6.603 6.603 0 0 1-2.045 8.094 20.41 20.41 0 0 1-5.795 2.945c-11.169 3.749-26.731 1.065-33.403-2.57-2.85 3.994-6.622 8.773-10.409 13.182a222.018 222.018 0 0 1-3.918 4.415 35.718 35.718 0 0 0 18.398 6.091c.577.022 1.326.013 2.228-.022.685-.021 1.411-.043 2.126-.053a23.902 23.902 0 0 1 3.559.134 7.019 7.019 0 0 1 5.554 5.27 6.588 6.588 0 0 1-4.028 7.311 22.01 22.01 0 0 1-3.943 1.182c-.784.159-1.492.272-2.162.341-10.162 1.254-23.669-3.139-31.635-10.242-26.261 24.506-57.601 38.344-98.582 43.535-6.309.598-12.645.853-18.981.764-12.336 0-26.416-.589-33.443-1.487-42.136-5.43-76.017-33.067-92.955-75.824a121.381 121.381 0 0 1-1.611-4.301c-6.276 5.567-20.898 12.118-32.492 10.07a19.56 19.56 0 0 1-5.633-1.828c-2.17-1.106-6.031-4.467-5.111-9.281.468-2.502 3.218-4.875 6.131-5.29a23.656 23.656 0 0 1 5.038.214c.801.088 1.597.189 2.321.28.78.099 1.476.187 2.006.237 8.627.851 18.289-2.425 24.19-6.098a133.502 133.502 0 0 1-3.257-17.709c-7.37 3.127-21.865 5.122-31.265-.256a17.598 17.598 0 0 1-4.041-3.131c-1.18-1.25-4.776-5.657-1.572-9.959a8.014 8.014 0 0 1 6.672-3.015c2.168.195 7.111 2.557 9.865 3.949l.125.062c4.777 2.369 11.149 2.572 19.463.623a87.559 87.559 0 0 1 2.319-21.868 93.72 93.72 0 0 1 2.797-9.266 30.188 30.188 0 0 1-6.81-4.542c-5.065.809-9.771-1.077-12.033-4.854-1.702-2.85-2.087-6.768-1.083-11.033a2.172 2.172 0 0 1 .999-1.371 2.174 2.174 0 0 1 1.681-.23 1.89 1.89 0 0 1 1.533 1.581c.039.259.024.524-.045.777-.75 3.176-.65 5.749.296 7.649a6.236 6.236 0 0 0 5.336 3.4 9.506 9.506 0 0 1-.607-8.364 7.457 7.457 0 0 1 2.757-3.337 7.455 7.455 0 0 1 4.147-1.24 7.05 7.05 0 0 1 6.733 4.046c2.024 4.544-.914 9.039-5 11.351a31.692 31.692 0 0 0 3.613 2.179 115.232 115.232 0 0 1 9.714-18.733c13.668-21.373 34.788-35.351 46.161-41.78 20.386-9.774 39.621-16.386 64.237-22.081a54.502 54.502 0 0 1-3.169-16.389c-1.073-16.172 7.973-36.572 16.97-46.198 2.903-3.114 7.203-7.22 11.213-7.22.071 0 .14.001.209.004 2.611.101 3.617 3.17 4.35 5.411.059.179.123.374.19.569a46.008 46.008 0 0 1 2.192-8.787c3.244-6.786 8.206-8.204 11.768-7.267 5.527 1.453 6.992 11.15 7.543 14.801.059.389.108.712.15.952a110.588 110.588 0 0 0 9.077 28.145 23.01 23.01 0 0 0 23.362 12.884 23.013 23.013 0 0 0 8.94-2.965c10.5-6.102 18.507-13.431 23.154-21.193l.875.483-2.33 3.496Z" fill="#000"/><path d="M320.926 172.5c-2.55 6.287-3.204 14.945-.151 24.255 2.923 8.916 10.885 17.516 18.716 18.798a28.028 28.028 0 0 1-8.449-10.336 134.206 134.206 0 0 1-7.565-22.104c-1.01-4.895-2.551-10.613-2.551-10.613ZM350.82 410.542a3.01 3.01 0 0 1-1.185 1.997 3.002 3.002 0 0 1-2.254.554l-5.431-.6a2.995 2.995 0 0 1-2.53-2.951c-.18-26.3-3.89-52.94-14.93-76.78-6.24-13.49-14.169-27.639-25.059-37.729-11.161-9.96-33.1-25.46-76.441-16.23-17.93 3.82-36.49 11.929-58.29 8.299-16.639-2.78-34.26-13.579-39.869-38.01a86.265 86.265 0 0 1-2.65-16.399c12.5.82 32.009-2.02 43.67-5.03 7.42-1.92 18.68-7.121 24.909-14.351 21.02 2.221 41.24 6.23 61.95 10.98 12.911 2.97 26.081 6.031 37.421 12.891 11.72 7.08 24.519 17.799 33.01 28.539 33.29 43.38 35.299 90.291 27.679 144.82Z" fill="#000"/><path d="M81.677 89.398a1.747 1.747 0 0 0-2.203 1.368c-5.685 32.019-5.525 66.445 1.559 98.126 2.382 10.654 5.608 21.422 12.243 30.091 6.618 8.646 16.569 12.715 28.076 13.645 12.452 1.007 32.574-1.886 44.494-4.97 9.009-2.332 23.678-9.492 28.148-19.248a45.053 45.053 0 0 0 2.06-30.431c-7.04-23.247-18.702-41.745-34.857-59.883-15.817-17.759-41.843-31.547-65.649-33.94a1.723 1.723 0 0 0-1.796 1.148c-1.298 3.77-6.564 5.215-9.21 4.758a28.181 28.181 0 0 1-2.865-.664Z" fill="#fff"/><path d="M126.827 233.328c-1.966 0-3.82-.064-5.516-.202-12.617-1.019-22.183-5.675-28.433-13.839-6.925-9.048-10.12-20.387-12.334-30.286-6.935-31.019-7.476-65.019-1.562-98.322a2.248 2.248 0 0 1 2.832-1.762c.925.267 1.864.485 2.812.653 2.283.394 7.408-.814 8.654-4.43a2.224 2.224 0 0 1 2.318-1.48c23.384 2.35 49.896 16.055 65.972 34.103 17.574 19.73 28.356 38.257 34.962 60.071a45.235 45.235 0 0 1-2.084 30.785c-4.636 10.116-19.571 17.217-28.478 19.523-10.697 2.768-27.064 5.186-39.143 5.186ZM81.195 89.831a1.26 1.26 0 0 0-1.037.546 1.224 1.224 0 0 0-.192.477c-5.89 33.174-5.353 67.038 1.555 97.93 2.19 9.792 5.344 21.002 12.152 29.895 6.07 7.929 15.396 12.455 27.718 13.45 12.007.972 31.97-1.756 44.329-4.955 8.389-2.172 23.359-9.242 27.82-18.972a44.82 44.82 0 0 0 2.037-30.072c-6.564-21.674-17.282-40.086-34.753-59.702-15.921-17.874-42.173-31.447-65.326-33.774a1.23 1.23 0 0 0-1.273.812c-1.446 4.197-7.132 5.545-9.769 5.09-.983-.175-1.956-.4-2.916-.677a1.264 1.264 0 0 0-.345-.048Z" fill="#000"/><path d="M109.241 37.884c.22.83.36 1.44.39 1.6 1.07 5.44 1.62 10.77-3.48 14.18-4.28 2.87-14.82 3.14-17.6 6.36-2.1 2.42-1.45 8.61-.86 11.99a38.867 38.867 0 0 0 5.8 13.93c-1.64 3.3-6.45 4.55-8.95 4.12a24.962 24.962 0 0 1-2.62-.6c-1.39-7.26-2.05-14.62-3.45-22.05-.15-1.12-.69-3.84-.77-4.51-1.64-13.42-2.88-15.79-4.01-26.26-1.13-10.52.42-19.17 5.62-23.29 3.68-2.92 10.8-5.36 19.81 3.89a37.38 37.38 0 0 1 8.37 14.17s2.72.05 3.65.15c2.299.24 3.259 1.23 3.29 2.82.03 2.35-2.92 2.98-5.19 3.5Z" fill="#fff"/><path d="M85.603 90.647a6.816 6.816 0 0 1-1.147-.091 25.572 25.572 0 0 1-2.673-.612l-.296-.085-.057-.302c-.704-3.675-1.23-7.44-1.739-11.083-.502-3.588-1.02-7.298-1.712-10.968-.083-.618-.272-1.658-.443-2.603-.154-.85-.293-1.623-.331-1.94-.827-6.76-1.563-10.771-2.211-14.31-.638-3.473-1.24-6.754-1.8-11.956-1.24-11.536.768-19.744 5.806-23.736 2.823-2.24 10.472-6.341 20.48 3.933a38.397 38.397 0 0 1 8.395 14.027c.784.018 2.578.065 3.319.145 2.442.254 3.699 1.367 3.736 3.307.034 2.57-2.809 3.356-5.076 3.882.15.589.243 1.006.268 1.135 1.075 5.462 1.676 11.099-3.693 14.689-2.046 1.371-5.421 2.16-8.686 2.922-3.647.853-7.42 1.734-8.813 3.349-2.138 2.463-1.113 9.484-.748 11.577a38.285 38.285 0 0 0 5.734 13.752l.147.237-.125.25c-1.494 3.005-5.48 4.48-8.335 4.48Zm-3.249-1.583c.763.209 1.542.382 2.27.506 2.375.405 6.692-.8 8.29-3.608a38.906 38.906 0 0 1-5.712-13.84c-.497-2.847-1.389-9.707.97-12.427 1.607-1.86 5.365-2.738 9.343-3.667 3.177-.742 6.462-1.51 8.357-2.78 4.862-3.25 4.32-8.32 3.268-13.668a31.76 31.76 0 0 0-.382-1.57l-.132-.5.632-.144c2.092-.479 4.697-1.074 4.672-2.977-.017-.946-.357-2.07-2.841-2.329-.9-.097-3.58-.146-3.607-.147l-.381-.007-.094-.368a36.717 36.717 0 0 0-8.245-13.946c-9.1-9.345-15.899-6.42-19.141-3.847-4.755 3.768-6.634 11.667-5.434 22.845.558 5.165 1.13 8.278 1.79 11.882.652 3.553 1.39 7.58 2.22 14.37.037.31.174 1.06.323 1.883.174.961.365 2.02.447 2.622.691 3.667 1.212 7.39 1.714 10.989.494 3.529 1.003 7.175 1.673 10.728Z" fill="#000"/><path d="M94.02 28.913a4.352 4.352 0 0 1 2.915-4.149c.908-.311.518-1.76-.399-1.446a5.888 5.888 0 0 0-4.016 5.595.751.751 0 0 0 1.5 0ZM98.874 29.781a1.004 1.004 0 1 0 0-2.008 1.004 1.004 0 0 0 0 2.008ZM102.818 43.824a6.093 6.093 0 0 0 5.723 2.975c.637-.05.643-1.05 0-1a5.115 5.115 0 0 1-4.86-2.48.499.499 0 0 0-.905.132.499.499 0 0 0 .042.373ZM79.222 32.437c1.404-.284.178-2.934-.093-4.288-.877-4.395 1.042-7.385 3.797-9.784a12.835 12.835 0 0 1 7.752-2.96c2.587.08 5.157.453 7.66 1.11-.504-5.255-2.166-11.833-6.703-15.13C88.67-.77 85.741-.18 84.132 1.58c-1.019 1.116-1.172 2.801-2.104 3.99-1.278 1.632-3.589 1.894-5.525 2.632-4.42 1.685-7.257 6.37-7.592 11.09a23.555 23.555 0 0 0 3.786 14.3l6.525-1.156Z" fill="#000"/><path d="M79.082 31.983a3.583 3.583 0 0 0-4.78.065 5.956 5.956 0 0 0-1.716 4.807 7.162 7.162 0 0 0 1.827 4.545 5.07 5.07 0 0 0 4.529 1.57 3.947 3.947 0 0 0 3.171-3.406l-3.03-7.58Z" fill="#fff"/><path d="M78.109 43.55a5.676 5.676 0 0 1-4.06-1.807 7.622 7.622 0 0 1-1.962-4.862 6.38 6.38 0 0 1 1.884-5.209 4.061 4.061 0 0 1 5.472-.036.5.5 0 0 1-.722.692 3.082 3.082 0 0 0-4.088.093 5.472 5.472 0 0 0-1.548 4.406 6.626 6.626 0 0 0 1.69 4.227 4.583 4.583 0 0 0 4.07 1.424 3.431 3.431 0 0 0 2.77-2.95.5.5 0 0 1 .997.071 4.46 4.46 0 0 1-3.574 3.86c-.306.06-.617.09-.93.09Z" fill="#000"/><path d="M77.433 34.123c-3.058-.371-3.901 4.135-1.16 5.167.536.202.768-.657.237-.857-1.872-.705-1.062-3.662.923-3.42.567.068.562-.821 0-.89ZM340.587 411.633a27.743 27.743 0 0 0-2.955 18.928c.034.213.112.417.231.598a1.595 1.595 0 0 0 1.247.432l3.908.166a1.396 1.396 0 0 0 1.023-.389 1.39 1.39 0 0 0 .424-1.008l-.014-1.895c-.006-.86.067-1.873.793-2.332 1.132-.716 2.496.655 2.822 1.954.325 1.299.327 2.843 1.37 3.683a4.253 4.253 0 0 0 3.013.541l14.51-1.022c.765-.053 3.208-.028 3.51-.409.902-1.133 1.055-4.938-1.624-6.827a6.72 6.72 0 0 0-2.71-1.043l-10.971-1.988c-1.991-.361-4.359-1.05-4.883-3.005-.38-1.419-.006-4.201-1.188-5.701l-8.506-.683Z" fill="#000"/><path d="M163.147 285.358a.5.5 0 0 1-.443-.732 12.534 12.534 0 0 0 1.213-3.633.496.496 0 0 1 .9-.199.502.502 0 0 1 .084.372 13.568 13.568 0 0 1-1.311 3.923.505.505 0 0 1-.443.269Zm1.461-7.765a.502.502 0 0 1-.499-.47 24.203 24.203 0 0 0-.569-3.872.49.49 0 0 1 .377-.598.488.488 0 0 1 .376.065.49.49 0 0 1 .221.312c.307 1.326.505 2.675.593 4.034a.513.513 0 0 1-.125.362.496.496 0 0 1-.345.166l-.029.001Zm-1.697-7.794a.497.497 0 0 1-.472-.335 46.687 46.687 0 0 0-1.477-3.674.503.503 0 0 1 .251-.662.503.503 0 0 1 .662.251 47.225 47.225 0 0 1 1.507 3.755.508.508 0 0 1-.021.382.496.496 0 0 1-.45.283Zm-3.26-7.311a.5.5 0 0 1-.441-.266 75.63 75.63 0 0 0-1.961-3.46.503.503 0 0 1 .025-.556.503.503 0 0 1 .524-.188.49.49 0 0 1 .308.229 75.725 75.725 0 0 1 1.986 3.506.508.508 0 0 1-.055.553.502.502 0 0 1-.386.182Zm-4.115-6.868a.492.492 0 0 1-.416-.224 105.998 105.998 0 0 0-2.273-3.276.513.513 0 0 1-.089-.373.504.504 0 0 1 .574-.415.502.502 0 0 1 .326.202c.79 1.094 1.562 2.207 2.294 3.309a.498.498 0 0 1-.16.706.501.501 0 0 1-.256.071Zm-29.204-.658a.497.497 0 0 1-.5-.485.498.498 0 0 1 .47-.514 35.457 35.457 0 0 0 3.91-.533.5.5 0 0 1 .184.984 35.848 35.848 0 0 1-4.035.547l-.029.001Zm7.874-1.439a.5.5 0 0 1-.133-.982 43.895 43.895 0 0 0 3.762-1.223.5.5 0 0 1 .354.935 44.348 44.348 0 0 1-3.851 1.252.494.494 0 0 1-.132.018Zm7.469-2.842a.497.497 0 0 1-.309-.108.494.494 0 0 1-.144-.602.497.497 0 0 1 .228-.236 32.141 32.141 0 0 0 3.402-1.981.5.5 0 1 1 .557.83 32.813 32.813 0 0 1-3.508 2.043.492.492 0 0 1-.226.054Zm9.168-1.558a.5.5 0 0 1-.393-.192 80.337 80.337 0 0 0-2.293-2.81.427.427 0 0 1-.196-.121.443.443 0 0 1-.118-.508.456.456 0 0 1 .105-.152l.334.37-.285-.414.376-.343.386.336c.01.011 1.008 1.146 2.478 3.026a.498.498 0 0 1-.129.732.495.495 0 0 1-.265.076ZM345.938 409.556a.487.487 0 0 1-.418-.226.496.496 0 0 1-.071-.376c.021-.107.043-.221.063-.341a.504.504 0 0 1 .578-.411.493.493 0 0 1 .324.204.516.516 0 0 1 .085.375 9.798 9.798 0 0 1-.072.377.5.5 0 0 1-.489.398Zm.468-4.338-.031-.001a.496.496 0 0 1-.442-.337.507.507 0 0 1-.026-.193c.071-1.147.128-2.485.168-3.98a.496.496 0 0 1 .5-.486h.014a.501.501 0 0 1 .486.514 120.109 120.109 0 0 1-.17 4.014.503.503 0 0 1-.499.469Zm.238-7.997h-.004a.506.506 0 0 1-.352-.149.49.49 0 0 1-.144-.355c.006-.752.009-1.524.009-2.317l-.005-1.677a.494.494 0 0 1 .145-.354.498.498 0 0 1 .352-.149h.003a.502.502 0 0 1 .5.497l.005 1.683c0 .795-.003 1.57-.009 2.325a.499.499 0 0 1-.5.496Zm-.039-8.005a.501.501 0 0 1-.5-.492c-.02-1.302-.048-2.638-.082-3.997a.501.501 0 0 1 .487-.513h.013a.498.498 0 0 1 .5.488c.034 1.363.062 2.701.082 4.006a.501.501 0 0 1-.492.508h-.008Zm-.196-8.004a.5.5 0 0 1-.5-.483 531.743 531.743 0 0 0-.149-3.996.5.5 0 0 1 .48-.521.518.518 0 0 1 .52.48c.055 1.345.105 2.683.149 4.004a.501.501 0 0 1-.484.516h-.016Zm-.327-7.999a.497.497 0 0 1-.499-.475 586.409 586.409 0 0 0-.211-3.994.5.5 0 0 1 .47-.528.484.484 0 0 1 .369.118.489.489 0 0 1 .159.353c.075 1.331.145 2.668.211 4.002a.51.51 0 0 1-.129.36.486.486 0 0 1-.346.163l-.024.001Zm-.455-7.994a.498.498 0 0 1-.499-.468 451.838 451.838 0 0 0-.279-3.988.5.5 0 0 1 .998-.074c.098 1.318.191 2.651.279 3.998a.501.501 0 0 1-.467.531l-.032.001Zm-.596-7.984a.498.498 0 0 1-.497-.457 303.797 303.797 0 0 0-.366-3.981.5.5 0 0 1 .449-.547.515.515 0 0 1 .547.45c.128 1.297.25 2.628.366 3.992a.5.5 0 0 1-.455.541l-.044.002Zm-.791-7.967a.5.5 0 0 1-.496-.443 167.562 167.562 0 0 0-.497-3.961.512.512 0 0 1 .096-.371.501.501 0 0 1 .699-.094c.105.08.175.197.195.328.175 1.263.342 2.595.501 3.984a.499.499 0 0 1-.498.557Zm-1.11-7.93a.498.498 0 0 1-.491-.414 59.835 59.835 0 0 0-.741-3.655l-.04-.165a.533.533 0 0 1 .359-.639.482.482 0 0 1 .369.04.471.471 0 0 1 .226.293l.018.071.039.16a60.12 60.12 0 0 1 .755 3.723.511.511 0 0 1-.083.374.504.504 0 0 1-.411.212Zm-1.809-7.806a.497.497 0 0 1-.482-.368c-.32-1.163-.691-2.448-1.117-3.838a.516.516 0 0 1 .036-.383.488.488 0 0 1 .296-.245c.063-.019.129-.026.194-.019a.494.494 0 0 1 .431.354c.428 1.4.801 2.695 1.124 3.866a.505.505 0 0 1-.175.527.485.485 0 0 1-.307.106Zm-2.346-7.671a.5.5 0 0 1-.473-.341 152.578 152.578 0 0 0-1.322-3.77.515.515 0 0 1 .131-.54.502.502 0 0 1 .809.197c.48 1.314.923 2.579 1.329 3.795a.504.504 0 0 1-.145.535.488.488 0 0 1-.17.097.479.479 0 0 1-.159.027Zm-2.75-7.529a.503.503 0 0 1-.465-.316 142.815 142.815 0 0 0-1.518-3.692.499.499 0 0 1 .263-.657.503.503 0 0 1 .657.264c.54 1.264 1.049 2.506 1.528 3.718a.503.503 0 0 1-.117.543.506.506 0 0 1-.348.14Zm-3.147-7.367a.498.498 0 0 1-.454-.29 146.87 146.87 0 0 0-1.723-3.6.497.497 0 0 1-.027-.383.5.5 0 0 1 .923-.062 138.688 138.688 0 0 1 1.735 3.625.5.5 0 0 1-.454.71Zm-3.562-7.174a.498.498 0 0 1-.441-.264 130.857 130.857 0 0 0-1.934-3.489.502.502 0 0 1 .185-.682.497.497 0 0 1 .682.184 126.594 126.594 0 0 1 1.95 3.516.505.505 0 0 1-.206.677.488.488 0 0 1-.236.058Zm-3.994-6.938a.503.503 0 0 1-.425-.236 115.949 115.949 0 0 0-2.158-3.352.499.499 0 0 1 .317-.772.497.497 0 0 1 .515.215c.73 1.093 1.462 2.231 2.176 3.381a.5.5 0 0 1-.425.764Zm-4.45-6.652a.499.499 0 0 1-.405-.207 104.965 104.965 0 0 0-2.393-3.186.504.504 0 0 1-.104-.369.516.516 0 0 1 .061-.186.519.519 0 0 1 .302-.236.514.514 0 0 1 .381.048.487.487 0 0 1 .147.128c.813 1.039 1.626 2.12 2.416 3.215a.5.5 0 0 1-.405.793Zm-4.932-6.304a.498.498 0 0 1-.381-.177 99.9 99.9 0 0 0-2.637-2.98.504.504 0 0 1-.087-.549.51.51 0 0 1 .474-.29.514.514 0 0 1 .347.161 94.336 94.336 0 0 1 2.665 3.012.494.494 0 0 1 .072.533.502.502 0 0 1-.453.29Zm-5.426-5.876a.502.502 0 0 1-.353-.145 85.653 85.653 0 0 0-2.887-2.735.501.501 0 0 1 .67-.742 87.663 87.663 0 0 1 2.922 2.766.5.5 0 0 1-.352.856Zm-5.933-5.361a.495.495 0 0 1-.317-.114 78.686 78.686 0 0 0-3.134-2.443.5.5 0 0 1 .594-.805 79.476 79.476 0 0 1 3.174 2.475.495.495 0 0 1 .154.555.501.501 0 0 1-.471.332Zm-6.426-4.754a.502.502 0 0 1-.276-.083 77.063 77.063 0 0 0-3.366-2.108.5.5 0 1 1 .507-.861 78.133 78.133 0 0 1 3.411 2.135.5.5 0 0 1-.276.917Zm-6.885-4.06a.487.487 0 0 1-.23-.057 72.926 72.926 0 0 0-3.569-1.731.503.503 0 0 1-.263-.279.503.503 0 0 1 .292-.645.499.499 0 0 1 .383.012 72.69 72.69 0 0 1 3.618 1.757.498.498 0 0 1-.231.943Zm-7.278-3.29a.509.509 0 0 1-.181-.033 71.95 71.95 0 0 0-3.737-1.332.512.512 0 0 1-.291-.249.5.5 0 0 1 .602-.702c1.257.41 2.532.864 3.788 1.349a.499.499 0 0 1 .311.559.497.497 0 0 1-.492.408Zm-7.592-2.477a.512.512 0 0 1-.129-.016 74.64 74.64 0 0 0-3.859-.923.503.503 0 0 1-.384-.593.498.498 0 0 1 .591-.386c1.307.276 2.622.591 3.91.936a.504.504 0 0 1 .287.204.503.503 0 0 1-.086.654.494.494 0 0 1-.33.124Zm-49.554-1.241a189.78 189.78 0 0 1-2.148-.014.502.502 0 0 1 .006-1h.006c1.302.016 2.631.018 3.988.004h.005a.497.497 0 0 1 .358.852.505.505 0 0 1-.353.148c-.627.006-1.248.01-1.862.01Zm5.857-.096a.501.501 0 0 1-.5-.492.499.499 0 0 1 .484-.507c1.304-.042 2.632-.099 3.986-.17a.502.502 0 0 1 .395.833.502.502 0 0 1-.343.166c-1.36.071-2.696.127-4.006.17h-.016Zm-11.996-.018h-.019c-1.367-.052-2.702-.12-4.006-.206a.509.509 0 0 1-.346-.168.505.505 0 0 1-.125-.364.502.502 0 0 1 .536-.466c1.296.085 2.622.153 3.978.205a.496.496 0 0 1 .482.508.498.498 0 0 1-.5.491Zm47.882-.299a.415.415 0 0 1-.079-.007 81.625 81.625 0 0 0-3.935-.522.495.495 0 0 1-.34-.182.494.494 0 0 1-.05-.557.495.495 0 0 1 .497-.255c1.333.143 2.673.322 3.984.529a.5.5 0 0 1-.077.994Zm-27.9-.101a.5.5 0 0 1-.034-.998c1.305-.094 2.63-.2 3.977-.321a.5.5 0 1 1 .09.996c-1.354.121-2.686.229-3.997.322l-.036.001Zm-27.959-.124a.77.77 0 0 1-.048-.002 122.448 122.448 0 0 1-3.988-.442.5.5 0 0 1 .127-.992c1.282.164 2.601.31 3.955.439a.495.495 0 0 1 .453.52.5.5 0 0 1-.499.477Zm35.932-.544a.498.498 0 0 1-.371-.834.498.498 0 0 1 .337-.164 98.079 98.079 0 0 1 4.014-.205.513.513 0 0 1 .515.485.5.5 0 0 1-.485.515 96.21 96.21 0 0 0-3.974.202l-.036.001Zm11.985-.09-.029-.001a87.888 87.888 0 0 0-3.969-.144.502.502 0 0 1-.496-.504.498.498 0 0 1 .503-.496h.007c1.345.018 2.695.068 4.014.146a.503.503 0 0 1 .469.514.498.498 0 0 1-.499.485Zm-55.842-.381a.442.442 0 0 1-.081-.006 101.815 101.815 0 0 1-3.95-.723.492.492 0 0 1-.318-.214.49.49 0 0 1-.074-.376.504.504 0 0 1 .591-.39c1.284.261 2.599.502 3.912.716a.502.502 0 0 1 .418.533.5.5 0 0 1-.498.46Zm-7.83-1.597a.493.493 0 0 1-.12-.015 86.619 86.619 0 0 1-3.878-1.058.508.508 0 0 1-.297-.242.493.493 0 0 1 .203-.678.514.514 0 0 1 .381-.038c1.245.372 2.534.724 3.832 1.045a.506.506 0 0 1 .376.546.502.502 0 0 1-.497.44Zm-7.652-2.293a.507.507 0 0 1-.168-.029 69.955 69.955 0 0 1-3.75-1.458.482.482 0 0 1-.162-.109.484.484 0 0 1-.145-.355.483.483 0 0 1 .149-.353.49.49 0 0 1 .355-.144.509.509 0 0 1 .192.041c1.19.502 2.433.985 3.697 1.436a.5.5 0 0 1-.168.971Zm-7.352-3.117a.495.495 0 0 1-.223-.053 56.284 56.284 0 0 1-3.539-1.929.5.5 0 1 1 .51-.86 55.07 55.07 0 0 0 3.476 1.894.5.5 0 0 1 .087.84.5.5 0 0 1-.311.108Zm-6.862-4.083a.501.501 0 0 1-.289-.092 46.12 46.12 0 0 1-3.193-2.473.501.501 0 0 1 .282-.879.501.501 0 0 1 .364.116 45.18 45.18 0 0 0 3.125 2.42.5.5 0 0 1-.289.908Zm-6.075-5.18a.508.508 0 0 1-.36-.152 36.46 36.46 0 0 1-2.648-3.069.502.502 0 0 1 .267-.787.494.494 0 0 1 .526.178 35.143 35.143 0 0 0 2.575 2.983.504.504 0 0 1 .1.543.496.496 0 0 1-.46.304Zm-4.836-6.349a.505.505 0 0 1-.434-.251 18.042 18.042 0 0 1-1.712-3.76.5.5 0 1 1 .962-.267 17.55 17.55 0 0 0 1.618 3.53.507.507 0 0 1-.001.499.502.502 0 0 1-.433.249ZM290.686 186.083a63.328 63.328 0 0 0 7.201-4.325c3.02-2.136 5.458-3.339 8.342-2.51 2.775.798 4.39 3.67 5.296 6.412a29.239 29.239 0 0 1 1.325 6.238 7.11 7.11 0 0 1-.267 3.358c-1.011 2.522-4.138 3.435-6.852 3.567-7.97.388-14.112-6.022-14.383-6.904l-.662-5.836Z" fill="#fff"/><path d="M305.027 199.34c-7.777 0-13.775-6.033-14.157-7.274l-.722-6.278.319-.154a63.486 63.486 0 0 0 7.131-4.284c3.169-2.24 5.743-3.453 8.768-2.582 2.465.709 4.412 3.037 5.633 6.735a29.799 29.799 0 0 1 1.348 6.345 7.537 7.537 0 0 1-.301 3.595c-1.3 3.244-5.532 3.794-7.291 3.88-.244.011-.487.017-.728.017Zm-13.19-7.543c.459.963 6.302 6.9 13.869 6.527 1.566-.077 5.327-.547 6.412-3.254a6.661 6.661 0 0 0 .234-3.122 28.74 28.74 0 0 0-1.302-6.131c-.776-2.35-2.266-5.313-4.96-6.088-2.652-.764-4.912.316-7.914 2.438a65.072 65.072 0 0 1-6.954 4.207l.615 5.423ZM461.046 409.874a19.873 19.873 0 0 1-5.655 2.87 161.634 161.634 0 0 0-2.687-12.821 25.273 25.273 0 0 1 4.036-.928 6.473 6.473 0 0 1 6.195 3.389 6.095 6.095 0 0 1-1.889 7.49ZM435.47 446.512a21.49 21.49 0 0 1-3.853 1.155c-.691.14-1.392.259-2.115.335a122.503 122.503 0 0 0-1.036-13.188c.68-.022 1.403-.043 2.115-.054a22.66 22.66 0 0 1 3.475.129 6.477 6.477 0 0 1 5.137 4.857 6.074 6.074 0 0 1-3.723 6.766Z" fill="#000"/><path d="M322.143 184.471c-1.261.068-8.379-.052-8.379-.052-1.924-.083-3.436-.399-3.241-2.359.205-1.076 1.767-1.203 2.859-1.186 8.598.14 7.226-1.237 7.226-1.237.034-.608-6.208-.224-8.864-.227-1.226.092-4.298-.038-4.407-1.446-.046-.595.279-1.46 2.145-1.586 3.839-.261 6.422-.031 10.249-.408.448-.107.847-.23.836-.772-.031-.543-2.423-.797-3.692-.819-2.866-.053-5.744-.093-8.62-.147-.45-.005-1.157-.248-1.143-.928.029-1.481 1.435-1.752 3.522-1.84 3.324-.14 6.562.401 9.877.334.393-.041.5-.56.332-1.016-.277-.727-1.332-.802-1.571-.819-2.874-.22-5.066-.198-7.949-.294-.24-.003-1.358-.041-1.532-.816-.451-1.932 1.807-1.77 2.189-1.798 2.556-.146 6.101-.188 9.479-.188 3.432 0 4.724 2.57 5.491 5.151a15.7 15.7 0 0 1-1.664 10.54 3.906 3.906 0 0 1-3.143 1.913Z" fill="#fff"/><path d="M320.569 184.993c-2.459 0-6.589-.07-6.813-.073-1.479-.064-2.589-.259-3.241-1.012a2.427 2.427 0 0 1-.493-1.902c.215-1.135 1.352-1.648 3.368-1.639 4.466.073 6.025-.272 6.56-.489a52.61 52.61 0 0 0-5.56-.019c-1.01.028-1.931.05-2.646.053-.009.002-4.736.329-4.909-1.913a1.692 1.692 0 0 1 .409-1.264 3.08 3.08 0 0 1 2.204-.863c1.723-.117 3.199-.136 4.628-.155 1.802-.023 3.504-.045 5.605-.252a.821.821 0 0 0 .351-.133 10.504 10.504 0 0 0-3.165-.452l-4.251-.073c-1.456-.023-2.913-.048-4.37-.074a1.879 1.879 0 0 1-1.276-.507 1.272 1.272 0 0 1-.362-.935c.043-2.167 2.427-2.268 4.005-2.334 1.76-.042 3.522.011 5.276.159 1.479.099 3.003.202 4.517.176a.624.624 0 0 0-.035-.339c-.102-.266-.516-.446-1.134-.491-1.964-.15-3.623-.187-5.38-.226-.81-.017-1.646-.036-2.551-.066-1.086-.015-1.839-.468-2.006-1.211a1.838 1.838 0 0 1 .26-1.612 2.902 2.902 0 0 1 2.255-.795l.128-.003c2.21-.126 5.409-.19 9.517-.19 3.843 0 5.211 2.946 5.973 5.513a16.3 16.3 0 0 1-1.713 10.939 4.369 4.369 0 0 1-3.549 2.16c-.289.015-.872.022-1.602.022Zm-7.346-3.619c-.832 0-2.078.113-2.204.777a1.432 1.432 0 0 0 .258 1.097 3.854 3.854 0 0 0 2.509.664c.058.001 7.099.117 8.33.052a3.381 3.381 0 0 0 2.735-1.664 15.127 15.127 0 0 0 1.616-10.141c-.704-2.369-1.849-4.791-5.007-4.791-4.089 0-7.269.063-9.451.187a2.845 2.845 0 0 1-.175.006c-.323.006-1.179.022-1.477.405a.909.909 0 0 0-.124.376.915.915 0 0 0 .05.392c.068.307.606.422 1.047.428.91.03 1.743.048 2.55.067 1.77.039 3.443.075 5.431.228 1.331.095 1.825.673 2.003 1.142a1.476 1.476 0 0 1-.065 1.264.904.904 0 0 1-.686.433c-1.633.033-3.211-.071-4.741-.174a47.627 47.627 0 0 0-5.166-.158c-2.283.097-3.021.424-3.04 1.347a.272.272 0 0 0 .078.213c.16.131.361.202.568.2 1.459.027 2.917.052 4.371.075l4.253.072c1.536.026 4.124.229 4.185 1.295.02.996-.82 1.196-1.224 1.291-2.211.223-3.934.245-5.758.269-1.415.018-2.878.037-4.573.151a2.115 2.115 0 0 0-1.509.518.68.68 0 0 0-.166.527c.059.784 2.294 1.101 3.866.982.726 0 1.657-.026 2.656-.053 4.628-.126 6.14-.094 6.574.356l.155.158.006.095a.8.8 0 0 1 .094.339.801.801 0 0 1-.063.345c-.171.404-.577 1.339-7.754 1.231l-.152-.001ZM92.897 87.622c12.288 5.17 24.379 11.007 35.381 18.589 10.193 7.025 19.24 15.804 27.48 25.012a116.533 116.533 0 0 1 28.721 63.223c.763 7.8 1.042 15.639.837 23.473a.5.5 0 0 0 1 0 203.892 203.892 0 0 0-.586-21.178 113.57 113.57 0 0 0-7.245-30.218 118.173 118.173 0 0 0-19.179-32.735 163.53 163.53 0 0 0-26.293-25.392c-12.138-9.15-25.891-15.864-39.85-21.738-.592-.25-.85.718-.266.964Z" fill="#000"/><path d="M89.26 90.043c16.397 11.858 29.667 28.111 40.32 45.184 11.226 17.992 18.809 37.867 24.548 58.221 3.26 11.565 5.904 23.296 8.123 35.103.119.632 1.083.364.964-.266-4.119-21.921-9.67-43.702-18.031-64.417a190.42 190.42 0 0 0-31.422-52.027 137.664 137.664 0 0 0-23.997-22.662c-.522-.377-1.022.49-.504.864ZM85.112 90.717c1.332 40.762 8.227 82.943 31.266 117.493a153.486 153.486 0 0 0 19.882 24.009c.458.453 1.165-.254.707-.707a153.519 153.519 0 0 1-31.809-45.578c-8.2-17.984-13.06-37.34-15.858-56.858a350.97 350.97 0 0 1-3.188-38.36c-.021-.641-1.021-.644-1 0Z" fill="#000"/><path d="m114.453 122.57 36.771 24.584c23.978 16.03 48.374 30.009 76.72 35.339 16.636 3.128 41.075 2.966 60.03 1.828a2.732 2.732 0 0 1 2.882 2.471l.491 5.125a2.74 2.74 0 0 1-2.043 2.912c-20.461 5.325-14.13 4.021-35.772 7.489-13.383 2.145-30.972 2.48-44.333.202-11.339-1.933-33.598-10.866-43.884-16.014-24.867-12.444-43.433-21.081-67.4-37.532" fill="#fff"/><path d="M230.045 204.587c-7.008.05-14.008-.477-20.93-1.574-11.213-1.911-33.197-10.642-44.023-16.059a2811.483 2811.483 0 0 0-8.428-4.201c-21.13-10.507-37.82-18.807-59.033-33.367a.499.499 0 0 1 .192-.903.497.497 0 0 1 .374.079c21.155 14.52 37.818 22.806 58.912 33.296 2.738 1.361 5.548 2.762 8.43 4.201 10.771 5.39 32.622 14.072 43.744 15.968 12.629 2.153 29.966 2.074 44.17-.202 2.736-.439 5.025-.801 6.978-1.11 11.307-1.789 11.307-1.789 21.582-4.492 1.964-.517 4.302-1.132 7.165-1.877a2.236 2.236 0 0 0 1.672-2.382l-.493-5.125a2.216 2.216 0 0 0-2.353-2.019c-11.486.69-40.336 1.891-60.152-1.836-29.265-5.502-54.257-20.273-76.907-35.415l-36.77-24.583a.504.504 0 0 1-.212-.514.5.5 0 0 1 .768-.317l36.771 24.583c22.56 15.083 47.446 29.794 76.535 35.264 19.708 3.706 48.46 2.507 59.906 1.82a3.201 3.201 0 0 1 3.41 2.922l.493 5.125a3.234 3.234 0 0 1-2.416 3.445c-2.862.744-5.2 1.359-7.162 1.876-10.325 2.716-10.325 2.716-21.681 4.513-1.952.309-4.24.671-6.976 1.109a152.262 152.262 0 0 1-23.566 1.775ZM28.381 331.428c-.386 0-.764-.015-1.134-.046-3.288-.274-6.318-1.667-9.249-3.015-1.444-.664-2.936-1.351-4.432-1.888-4.445-1.598-10.084-1.553-12.655 2.149a.502.502 0 0 1-.822-.571c2.875-4.137 9.009-4.247 13.815-2.519 1.536.553 3.049 1.248 4.512 1.921 2.984 1.371 5.801 2.667 8.914 2.927 4.89.408 9.855-1.861 11.847-5.39a.497.497 0 0 1 .496-.251.507.507 0 0 1 .334.189.495.495 0 0 1 .041.554c-2.262 4.007-7.368 5.94-11.667 5.94ZM104.901 495.152a18.234 18.234 0 0 1-3.189-.278 30.323 30.323 0 0 1-7.045-2.493 44.003 44.003 0 0 0-4.626-1.875c-3.764-1.201-8.564-.997-10.789 2.168a.51.51 0 0 1-.323.205.494.494 0 0 1-.374-.084.507.507 0 0 1-.205-.323.503.503 0 0 1 .084-.374c2.517-3.579 7.794-3.857 11.912-2.545a45.256 45.256 0 0 1 4.732 1.916 29.6 29.6 0 0 0 6.808 2.421c4.723.836 11.257-.138 14.134-5.645a.498.498 0 0 1 .675-.212.5.5 0 0 1 .212.675c-2.508 4.801-7.514 6.444-12.006 6.444ZM363.047 115.283c-.139 0-.276-.003-.414-.009a18.285 18.285 0 0 1-7.029-1.968c-.837-.365-1.701-.743-2.662-1.105-4.06-1.527-7.707-.926-10.013 1.649a.492.492 0 0 1-.345.167.508.508 0 0 1-.361-.127.496.496 0 0 1-.138-.539.503.503 0 0 1 .1-.168c2.596-2.898 6.646-3.598 11.109-1.918a54.59 54.59 0 0 1 2.71 1.125 17.493 17.493 0 0 0 6.674 1.885c3.58.161 8.152-2.096 9.018-5.588a.493.493 0 0 1 .606-.368.495.495 0 0 1 .365.608c-.963 3.885-5.66 6.356-9.62 6.356ZM277.175 90.711c-.067 0-.134-.001-.201-.004a10.847 10.847 0 0 1-4.264-1.422 15.55 15.55 0 0 0-2.622-1.112 6.021 6.021 0 0 0-6.345 1.574.5.5 0 0 1-.742-.67 6.985 6.985 0 0 1 7.361-1.865c.965.306 1.9.7 2.793 1.177a9.963 9.963 0 0 0 3.864 1.319c2.205.104 4.471-1.803 4.715-3.37a.499.499 0 1 1 .988.153c-.339 2.182-3.048 4.22-5.547 4.22ZM64.707 459.943a27.127 27.127 0 0 1-9.633-1.808 63.815 63.815 0 0 1-9.34-4.835 58.58 58.58 0 0 0-9.927-5.039 29.321 29.321 0 0 0-15.33-.863 29.319 29.319 0 0 0-13.661 7.005.497.497 0 0 1-.549.09.511.511 0 0 1-.261-.279.503.503 0 0 1 .126-.542 30.339 30.339 0 0 1 30.003-6.355 59.213 59.213 0 0 1 10.106 5.121 62.968 62.968 0 0 0 9.186 4.762c9.907 3.755 20.27 1.348 27.73-6.439a.503.503 0 0 1 .706-.014.499.499 0 0 1 .016.706 26.363 26.363 0 0 1-19.172 8.49Z" fill="#000"/></g><defs><clipPath id="clip0_2614_3223"><path fill="#fff" d="M0 0h464.36v495.153H0z"/></clipPath></defs></svg>