<svg width="537" height="492" fill="none" xmlns="http://www.w3.org/2000/svg"><path d="M79.344 378.149a4.908 4.908 0 0 0-4.667 1.011 14.479 14.479 0 0 0-3.069 3.912c-2.207 3.601-4.182 6.926-6.67 10.339-1.301 1.785-1.272 2.76-.577 3.386a52.505 52.505 0 0 0 4.728 3.743c1.987 1.309 4.411-2.749 6.899-5.645.976-1.136 3.057-.357 3.698.715.29.481.456 1.025.488 1.585a5.6 5.6 0 0 1-1.499 3.767c-1.312 1.555-3.266 3.012-2.334 5.315a4.256 4.256 0 0 0 1.544 1.845 63.109 63.109 0 0 0 9.296 5.396 4.606 4.606 0 0 0 3.42.589 4.337 4.337 0 0 0 1.968-1.848 7.147 7.147 0 0 0 1.522-4.965c-.48-2.796-3.482-4.243-5.697-6.016a4.918 4.918 0 0 1-2.063-3.086 4.757 4.757 0 0 1 .319-2.041c.736-2.152 2.069-4.077 2.66-6.274.59-2.196.166-4.953-1.821-6.061l-8.145-5.667Z" fill="#000"/><path d="M116.862 322.852c-14.745 21.668-30.403 43.083-35.829 51.086-1.765 2.594-3.14 5.572-.412 7.906 2.737 2.322 5.151 3.153 8.156.712 9.724-9.659 19.425-20.19 30.575-32.693" fill="#fff"/><path d="M85.207 384.513a7.873 7.873 0 0 1-4.909-2.288c-3.087-2.64-1.45-5.966.322-8.569 2.1-3.097 5.693-8.147 10.241-14.541 6.983-9.814 16.545-23.257 25.587-36.545l.827.563c-9.047 13.297-18.614 26.744-25.599 36.562-4.544 6.388-8.134 11.435-10.229 14.523-2.314 3.4-2.463 5.567-.5 7.246 2.987 2.535 5.025 2.726 7.515.705 8.68-8.627 17.817-18.398 30.517-32.64l.746.666c-12.714 14.257-21.864 24.041-30.595 32.716a6.19 6.19 0 0 1-3.923 1.602Z" fill="#000"/><path d="M457.9 320.829c4.537 87.572-64.043 170.525-170.526 170.525-94.163-.022-170.484-76.363-170.484-170.525 0-94.163 76.321-170.503 170.484-170.526 0 0 161.498-3.716 170.526 170.526Z" fill="#fff"/><path fill-rule="evenodd" clip-rule="evenodd" d="M116.349 320.826c0 94.303 76.721 171.025 171.026 171.025 49.869 0 94.933-18.536 126.892-52.192A161.342 161.342 0 0 0 458.399 320.8c-2.064-39.837-12.339-73.619-30.539-100.408-14.567-21.442-34.21-38.472-58.384-50.617-40.792-20.494-81.032-19.988-82.083-19.975h-.018c-94.305 0-171.026 76.722-171.026 171.026ZM287.386 150.8c.027-.001.233-.004.606-.004 5.203 0 42.89.698 81.07 19.89 24.012 12.071 43.521 28.99 57.984 50.288 18.088 26.633 28.3 60.236 30.355 99.877a160.342 160.342 0 0 1-43.859 118.119c-31.768 33.456-76.575 51.881-126.167 51.881-93.753 0-170.026-76.273-170.026-170.025 0-93.753 76.273-170.026 170.037-170.026Z" fill="#000"/><path d="M178.765 373.916c-6.122-3.017-13.287-1.933-19.609-4.51a37.408 37.408 0 0 1-15.724-12.605c-9.047-12.29-9.773-27.902-5.69-42.128a20.905 20.905 0 0 0 .966-9.332c-.628-3.827-2.408-7.358-3.049-11.185-1.406-8.403 1.493-16.714 4.849-24.299a115.398 115.398 0 0 1 11.256-20.267c2.595-3.643 7.538-9.419 11.489-3.976 2.099 2.892 2.251 6.706 4.293 9.647 3.33 4.796 12.397 7.557 11.331 14.67-.788 5.259-7.062 2.05-10.19 1.409a10.892 10.892 0 0 0-6.832.798c-4.846 2.274-6.875 7.711-5.807 12.79.89 4.234 4.793 9.795 9.707 7.225 5.582-2.918 6.31-14.551 14.587-10.938 3.497 1.527 6.165 4.665 8.51 7.579 3.13 3.89 6.04 8.237 2.036 12.826-2.138 2.45-5.19 3.962-7.592 6.138a28.845 28.845 0 0 0-5.61 6.908 25.311 25.311 0 0 0-3.011 17.263 23.347 23.347 0 0 0 3.344 8.496c1.764 2.704 5.302 5.315 4.944 8.85a2.742 2.742 0 0 1-3.073 2.506 18.73 18.73 0 0 1-2.937-.621 21.35 21.35 0 0 0-5.009-.602 7.965 7.965 0 0 0-6.363 2.994c-3.066 4.086-.189 8.658 4.22 9.897 3.369.946 6.921-.061 10.319.696 4.135.92 8.77 5.14 8.397 9.696a3.344 3.344 0 0 1-2.175 3.158c-1.407.599-2.436.175-3.731-.567-1.334-.764-2.485-1.79-3.846-2.516-.568-.303-1.074.56-.505.864 2.331 1.243 4.821 4.108 7.743 3.558a4.696 4.696 0 0 0 3.546-4.359c.491-6.064-5.999-10.783-11.453-11.122-3.931-.244-8.69.874-11.656-2.511a5.01 5.01 0 0 1 .633-6.962c2.221-2.123 5.453-2.014 8.277-1.527 2.209.38 5.606 2.061 7.523.147 1.463-1.46 1.342-3.902.587-5.663-1.401-3.269-4.388-5.586-5.93-8.825a23.974 23.974 0 0 1-2.253-11.559c.435-8.129 5.184-15.122 11.627-19.809 2.556-1.86 5.294-3.667 6.511-6.73 1.171-2.948.263-5.63-1.452-8.128-3.145-4.58-8.608-12.25-15.004-11.769-7.193.54-6.788 12.35-13.8 12.182-4.993-.12-6.852-7.219-6.262-11.224a9.663 9.663 0 0 1 7.624-8.187c3.841-.785 6.937 1.646 10.649 1.684a4.466 4.466 0 0 0 4.605-3.278c1.59-6.05-4.801-9.898-8.612-13.092a13.84 13.84 0 0 1-3.572-4.219c-1.009-1.97-1.409-4.184-2.296-6.204-.94-2.141-2.629-4.533-5.106-4.95-3.157-.532-5.86 2.516-7.65 4.689a71.148 71.148 0 0 0-6.207 9.363 106.189 106.189 0 0 0-10.167 22.102 38.025 38.025 0 0 0-1.876 11.787c.071 4.066 1.305 7.748 2.49 11.59a21.16 21.16 0 0 1-.124 13.064 58.644 58.644 0 0 0-2.21 10.797 48.527 48.527 0 0 0 2.941 22.182c4.706 12.082 15.399 22.566 28.564 24.479 4.192.609 8.429.581 12.31 2.494.575.283 1.082-.579.505-.864Z" fill="#000"/><path fill-rule="evenodd" clip-rule="evenodd" d="M282.332 470.332c3.044 1.474 8.459 2.196 15.321 2.196 24.809 0 68.524-9.43 87.432-26.798a15.122 15.122 0 0 0 3.652-4.569 4.685 4.685 0 0 0-.748-5.537c-3.874-4.211-4.083-6.849-3.087-11.172a20.788 20.788 0 0 1 1.539-4.027c.461-.953.872-1.93 1.233-2.926 1.567-4.565.538-9.895-2.754-14.258a15.516 15.516 0 0 0-12.951-6.563c-3.28.172-7.08 1.921-7.675 5.356-.483 2.782 1.306 5.014 3.038 7.173 1.348 1.681 2.741 3.42 3.039 5.389a5.434 5.434 0 0 1-1.166 4.1 6.664 6.664 0 0 1-4.403 2.582 8.842 8.842 0 0 1-8.223-4.526 22.453 22.453 0 0 1-1.218-2.56 15.545 15.545 0 0 0-5.74-7.457 29.687 29.687 0 0 1-3.007-2.82 29.333 29.333 0 0 1-3.834-6.179 32.334 32.334 0 0 0-3.648-6.01 11.042 11.042 0 0 0-8.422-3.921 5.712 5.712 0 0 0-4.655 2.439c-2.119 3.069-.675 6.613.72 10.039a22.032 22.032 0 0 1 1.81 5.953c.221 2.381-.551 4.837-1.298 7.211l-.001.003c-.96 3.054-1.952 6.211-.872 9.293.768 2.192 2.428 3.823 4.034 5.401a25.72 25.72 0 0 1 2.596 2.816 6.957 6.957 0 0 1 1.044 6.033 2.83 2.83 0 0 1-2.052 1.893c-1.486.334-2.878-.515-4.351-1.413l-.001-.001a12.84 12.84 0 0 0-3.065-1.517 11.487 11.487 0 0 0-4.955.044 13.462 13.462 0 0 1-3.768.241 6.678 6.678 0 0 1-4.665-2.994 12.391 12.391 0 0 1-1.67-9.478 35.728 35.728 0 0 1 4.086-9.17 59.528 59.528 0 0 0 2.958-5.73 28.342 28.342 0 0 0-2.805-27.319c-5.7-7.846-16.109-11.964-25.306-10.014-1.133.24-2.26.565-3.35.88a24.425 24.425 0 0 1-6.051 1.219 24.811 24.811 0 0 1-5.348-.622 21.382 21.382 0 0 0-6.645-.549c-5.225.658-11.461 5.62-13.294 17.577-.592 3.864-1.623 7.888-4.782 8.438-1.648.282-3.31-.564-4.967-1.414a86.939 86.939 0 0 0-20.311-7.39c-4.229-.964-11.799-1.803-14.985 3.413-2.809 4.602.108 10.347 3.459 13.868.952 1 1.989 1.962 2.992 2.893l.003.002c2.553 2.37 5.193 4.819 6.493 8.003a23.705 23.705 0 0 1 1.287 5.729c.173 1.442.435 2.871.784 4.28 2.769 10.246 13.485 15.555 24.653 19.767l.051.02c7.067 2.664 15.091 5.689 23.219 5.469a68.407 68.407 0 0 0 9.921-1.246c6.618-1.159 12.869-2.253 18.544.493 2.578 1.248 4.225 3.197 4.405 5.213a4.442 4.442 0 0 1-1.343 3.617c-1.844 1.894-5.559 3.072-9.035 2.849-.949-.059-2.052-.191-3.22-.331l-.019-.002c-3.859-.46-8.225-.981-10.258.703a3.112 3.112 0 0 0-1.119 2.279c-.109 1.476.817 2.701 2.754 3.639Zm-.996-5.148a6.605 6.605 0 0 1 4.036-.925c1.835.045 3.665.194 5.482.448h.001c1.183.141 2.3.275 3.277.335 3.172.205 7.429-.7 9.813-3.15a5.473 5.473 0 0 0 1.623-4.404c-.212-2.368-2.068-4.62-4.966-6.024-5.965-2.886-12.67-1.713-19.152-.577a67.656 67.656 0 0 1-9.774 1.231c-7.96.205-15.87-2.777-22.854-5.41l-.037-.014c-10.919-4.118-21.389-9.281-24.04-19.094a34.286 34.286 0 0 1-.76-4.157 24.728 24.728 0 0 0-1.352-5.967c-1.382-3.389-4.105-5.915-6.738-8.358l-.002-.002-.014-.013c-.988-.917-2.008-1.864-2.934-2.837-3.354-3.523-5.684-8.804-3.33-12.657 2.966-4.858 10.713-3.688 13.908-2.96a86.052 86.052 0 0 1 20.13 7.332l.014.007c1.667.855 3.556 1.823 5.529 1.474 3.783-.658 4.952-5.055 5.598-9.269 1.094-7.138 5.006-15.803 12.431-16.737a20.25 20.25 0 0 1 6.334.539c1.826.411 3.691.626 5.563.639a25.61 25.61 0 0 0 6.3-1.258c1.073-.31 2.182-.63 3.279-.863 8.826-1.867 18.816 2.088 24.29 9.624a27.324 27.324 0 0 1 2.695 26.338 58.774 58.774 0 0 1-2.91 5.632 36.458 36.458 0 0 0-4.189 9.434 13.433 13.433 0 0 0 1.824 10.276 7.646 7.646 0 0 0 5.358 3.415c1.355.108 2.717.026 4.048-.244a10.57 10.57 0 0 1 4.527-.072c.997.345 1.945.819 2.819 1.41 1.578.963 3.209 1.958 5.092 1.537a3.768 3.768 0 0 0 2.771-2.524 7.917 7.917 0 0 0-1.181-6.978 26.25 26.25 0 0 0-2.697-2.93l-.002-.002c-1.594-1.567-3.098-3.046-3.789-5.017-.969-2.769-.069-5.633.884-8.665v-.001c.777-2.468 1.579-5.021 1.34-7.602a22.729 22.729 0 0 0-1.88-6.238c-1.355-3.327-2.635-6.469-.824-9.094a4.797 4.797 0 0 1 3.876-2.008 10.025 10.025 0 0 1 7.607 3.559 31.505 31.505 0 0 1 3.531 5.828 30.006 30.006 0 0 0 3.973 6.387 30.613 30.613 0 0 0 3.108 2.917 14.619 14.619 0 0 1 5.469 7.087c.367.919.793 1.813 1.275 2.676a9.758 9.758 0 0 0 9.201 5.014 7.686 7.686 0 0 0 5.083-2.969 6.414 6.414 0 0 0 1.359-4.856c-.337-2.235-1.816-4.08-3.246-5.865l-.001-.001c-1.666-2.077-3.238-4.039-2.834-6.377.48-2.765 3.755-4.371 6.743-4.528a14.536 14.536 0 0 1 12.101 6.166c3.091 4.099 4.065 9.082 2.607 13.333-.351.963-.75 1.907-1.195 2.83a21.897 21.897 0 0 0-1.606 4.222c-1.033 4.487-.803 7.587 3.325 12.075a3.713 3.713 0 0 1 .575 4.441 14.204 14.204 0 0 1-3.419 4.251c-23.911 21.963-87.765 31.163-101.641 24.438-1.531-.741-2.269-1.638-2.192-2.669a2.123 2.123 0 0 1 .76-1.579ZM234.794 463.688a10.626 10.626 0 0 0 6.585 2.073h.001c.085 0 .169 0 .255-.002 2.184-.042 4.74-1.1 5.187-3.324.335-1.659-.593-3.394-2.755-5.156a40.238 40.238 0 0 0-13.12-7.13 7.408 7.408 0 0 0-3.694-.462 3.154 3.154 0 0 0-2.69 2.806c-.001 1.965 1.316 3.29 2.278 4.257v.001c1.762 1.769 6.547 5.831 7.953 6.937Zm.619-.785c-1.353-1.065-6.158-5.144-7.863-6.857-.885-.891-1.988-2-1.987-3.553.001-.911.958-1.644 1.882-1.825a6.626 6.626 0 0 1 3.195.432 39.27 39.27 0 0 1 12.795 6.954c1.853 1.509 2.662 2.917 2.407 4.184-.339 1.683-2.428 2.486-4.226 2.521a9.636 9.636 0 0 1-6.203-1.856Z" fill="#000"/><path d="M398.154 324.423c3.416-3.36 9.73-2.396 14.084-2.174a43.12 43.12 0 0 1 14.242 2.828c4.669 1.917 10.01 5.177 12.182 9.932 1.326 2.9.988 5.785-1.509 7.898-1.643 1.391-3.375 2.415-4.436 4.363-2.091 3.84-1.65 10.098-6.622 11.667-4.688 1.48-9.793-1.66-14.65-.834-5.188.881-9.321 4.336-14.17 6.104-3.074 1.122-6.465 1.232-8.818-1.382a9.295 9.295 0 0 1-1.753-8.738 18.525 18.525 0 0 1 5.378-8.025c1.624-1.565 3.439-3.062 4.565-5.054 3.055-5.407-2.493-11.662 1.507-16.585.402-.496-.301-1.207-.707-.707a7.52 7.52 0 0 0-1.767 6.18c.441 3.561 2.024 7.195.103 10.607-1.456 2.586-4.065 4.318-6.021 6.49a17.024 17.024 0 0 0-4.209 7.568c-.915 4.171.778 9.272 4.997 10.943 5.455 2.161 11.32-2.604 16.007-4.746a17.184 17.184 0 0 1 10.398-1.534c2.824.475 5.828 1.448 8.711.849 4.959-1.032 5.642-5.962 6.988-10.028a10.17 10.17 0 0 1 2.421-4.238c1.007-.999 2.296-1.667 3.315-2.655a6.577 6.577 0 0 0 2.018-5.778c-.69-5.137-5.41-8.816-9.578-11.254a39.018 39.018 0 0 0-17.066-4.778c-4.964-.36-12.383-1.496-16.317 2.374-.46.452.248 1.159.707.707Z" fill="#000"/><path fill-rule="evenodd" clip-rule="evenodd" d="M203.998 364.772a9.344 9.344 0 0 0 5.805 1.879 11.468 11.468 0 0 0 4.895-1.108 5.885 5.885 0 0 0 3.162-2.955c.804-2.014-.182-4.173-1.373-5.522a17.587 17.587 0 0 0-2.901-2.463l-.014-.011a34.697 34.697 0 0 1-1.353-1.021 10.38 10.38 0 0 1-1.423-1.525c-1.034-1.26-2.206-2.687-4.219-2.687-2.776 0-4.55 2.208-5.129 6.385-.481 3.458-.621 6.526 2.55 9.028Zm-1.56-8.891c.35-2.519 1.352-5.522 4.139-5.522 1.541 0 2.466 1.127 3.446 2.321.465.608.99 1.168 1.569 1.671.455.367.93.713 1.404 1.059a16.548 16.548 0 0 1 2.741 2.319c.949 1.074 1.831 2.894 1.194 4.488a4.94 4.94 0 0 1-2.661 2.422c-3.298 1.566-7.177 1.304-9.652-.652-2.519-1.988-2.71-4.289-2.18-8.106Z" fill="#000"/><path d="M109.11 407.648a4.907 4.907 0 0 0-4.757.413 14.475 14.475 0 0 0-3.54 3.491c-2.646 3.292-5.026 6.34-7.927 9.411-1.516 1.605-1.61 2.577-1 3.285a52.384 52.384 0 0 0 4.215 4.312c1.806 1.55 4.724-2.168 7.559-4.726 1.112-1.003 3.077.034 3.578 1.178.225.514.322 1.074.283 1.634a5.602 5.602 0 0 1-1.964 3.547c-1.499 1.376-3.621 2.574-2.989 4.976.229.786.679 1.49 1.297 2.027a63.33 63.33 0 0 0 8.538 6.53 4.613 4.613 0 0 0 3.319 1.017 4.335 4.335 0 0 0 2.185-1.584 7.144 7.144 0 0 0 2.139-4.732c-.122-2.835-2.916-4.65-4.889-6.689a4.924 4.924 0 0 1-1.655-3.323c.044-.695.24-1.373.574-1.984 1.003-2.041 2.57-3.782 3.434-5.886.864-2.104.792-4.893-1.038-6.243l-7.362-6.654Z" fill="#000"/><path d="M258.246 179.391v.01c-.01 1.18-.03 2.35-.04 3.53-2.41 24.02-3.33 51.04-12.06 83.22-1.17 4.32-2.48 8.74-3.96 13.25a129.191 129.191 0 0 1-19.92 38.55c-7.87 10.55-27.68 29.57-37.05 37.82-28.6 25.2-48.08 42.68-67.31 57.44-3.29 2.04-5.58.91-7.99-1.75-2.42-2.66-.67-5.44 1.4-7.79 9.58-10.85 45.7-48.61 65.69-74.22 7.59-9.72 13.94-18.71 17.43-25.95 4.77-9.86 9.49-24.54 9.14-45.15-.21-12.77-2.35-27.81-7.64-45.4-5.27-17.56-14.14-35.69-11.85-57.67 1.64-15.73 10.27-32.75 31.14-40.67a.194.194 0 0 0 .07-.02c1.37-.52 2.8-1 4.28-1.44a88.67 88.67 0 0 1 17.12-3.77 116.387 116.387 0 0 1 17.23-1.05 15.384 15.384 0 0 0-3.13 5.39c-1.89 5.59.1 13.52 1.57 19.22 1.47 5.71 3.49 11.35 3.75 17.24.24 5.27-1.85 10.92-1.93 16.19-.07 4.85.32 9.19 3.9 12.85.05.06.1.11.16.17Z" fill="#fff"/><path d="M258.086 179.221c-.63 5.74-1.14 11.66-1.671 17.8-1.75 20.39-3.71 43.11-10.809 69.18-1.15 4.26-2.441 8.61-3.9 13.05a129.354 129.354 0 0 1-19.84 38.4c-7.951 10.66-28.01 29.84-36.98 37.75l-9.461 8.34c-23.689 20.9-40.809 36.01-57.779 49.04-2.731 1.69-4.731 1.25-7.36-1.65-1.74-1.91-1.32-4.04 1.409-7.13 2.461-2.79 6.651-7.33 11.961-13.08 15.49-16.78 38.89-42.14 53.75-61.16 8.779-11.25 14.33-19.52 17.48-26.04 6.41-13.25 9.5-28.32 9.24-45.09-.201-14.11-2.771-29.386-7.711-45.83-1.129-3.76-2.399-7.47-3.74-11.4-4.859-14.21-9.879-28.9-8.089-46.07 1.01-9.72 6.46-33.23 35.16-41.71 8.39-2.95 21.85-4.82 32.45-4.82.44 0 .88 0 1.32.01.13-.16.27-.32.41-.48l.02-.02c-.29-.03-6.49-.62-17.25 1.07a88.728 88.728 0 0 0-17.12 3.77c-1.48.44-2.91.92-4.28 1.44a.194.194 0 0 1-.07.02 50.28 50.28 0 0 0-10.44 4.72.427.427 0 0 0-.12.08c-16.51 10.87-20.24 27.87-21.07 35.82-1.82 17.38 3.24 32.18 8.14 46.5 1.33 3.91 2.6 7.61 3.73 11.36 4.84 16.12 7.39 31.12 7.65 45 .33 16.83-2.71 31.94-9.13 45.19-3.12 6.46-8.64 14.67-17.37 25.86-14.83 18.99-38.22 44.33-53.69 61.1-5.32 5.75-9.51 10.3-11.98 13.1-2.09 2.36-4.13 5.46-1.4 8.46 1.39 1.53 3.04 2.94 5.19 2.94a6.578 6.578 0 0 0 3.48-1.14c17.04-13.08 34.17-28.19 57.87-49.11l9.46-8.34c9-7.93 29.13-27.19 37.12-37.9a130.306 130.306 0 0 0 19.99-38.69c1.5-4.6 2.843-9.1 4.03-13.5 7.03-25.98 8.98-48.62 10.73-68.95.23-2.7.463-5.353.7-7.96.04-2.07.06-4.15.09-6.22.01-1.18.03-2.35.04-3.53v-.01c-.06-.06-.11-.11-.16-.17Z" fill="#000"/><path d="M258.245 179.391v.01c-.01 1.18-.03 2.35-.04 3.53-.03 2.07-.05 4.15-.09 6.22-.35 22.45-1.28 44.6-4.9 66.86-.62 3.81-1.75 8.23-5.32 9.7a5.606 5.606 0 0 1-1.21.35c-.178.04-.358.07-.54.09-.18.02-.36.04-.54.05a18.59 18.59 0 0 1-3.25-.15 271.209 271.209 0 0 1-32.04-5.44 29.244 29.244 0 0 1-6.19-1.98c-.18-.09-.37-.18-.55-.28-.15-.09-.31-.17-.46-.26a11.2 11.2 0 0 1-1.92-1.45c-2.79-2.65-3.77-6.64-4.6-10.39-5.66-25.57-9.28-48.71-12.87-74.64 0 0-6.33-35.67 20.94-52.2a.442.442 0 0 1 .12-.08 50.327 50.327 0 0 1 10.44-4.72.188.188 0 0 0 .07-.02 138.423 138.423 0 0 1 21.4-5.21c10.76-1.69 16.96-1.1 17.25-1.07l-.02.02a15.395 15.395 0 0 0-3.13 5.39c-1.89 5.59.1 13.52 1.57 19.22 1.47 5.71 3.49 11.35 3.75 17.24.24 5.27-1.85 10.92-1.93 16.19-.07 4.85.32 9.19 3.9 12.85.05.06.1.11.16.17Z" fill="#000"/><path d="M425.046 226.094c-1.86 3.51-5.71 10.62-18.41 8.29a25.978 25.978 0 0 1-12.53-5.68c-.938.479-1.923.861-2.94 1.14a3.01 3.01 0 0 1-3.08-.9c-1.06-1.3-.12-3.13.85-4.5-.66-.55-1.13-.97-1.24-1.08-4.02-3.82-7.55-7.85-5.37-13.58 1.84-4.81 10.28-11.13 10.68-15.37.31-3.19-3.8-7.87-6.24-10.28-5.13-4.62-8.32-6.22-14.98-8.91a17.361 17.361 0 0 0-2.05-.49c.19-.39.33-.81.48-1.21 1.43-3.84 4.42-7.43 8.46-8.37.301-.072.592-.176.87-.31 6.09 5.56 11.36 11.87 17.41 17.71.77.83 2.78 2.74 3.23 3.23 9.11 10 11.48 11.22 18.46 19.11 7.02 7.92 8.59 17.07 6.4 21.2Z" fill="#fff"/><path fill-rule="evenodd" clip-rule="evenodd" d="M394.033 229.294a29.03 29.03 0 0 0 17.365 6.054c9.308 0 12.46-5.947 14.089-9.021 2.361-4.45.587-13.808-6.468-21.765-3.477-3.932-5.869-6.267-8.401-8.738l-.015-.015c-2.567-2.506-5.48-5.349-10.049-10.364a51.255 51.255 0 0 0-1.311-1.308l-.008-.008c-.701-.687-1.493-1.464-1.931-1.936-2.675-2.581-5.235-5.296-7.712-7.923l-.022-.023-.017-.019c-3.089-3.275-6.281-6.661-9.67-9.754l-.253-.232-.308.154a3.695 3.695 0 0 1-.76.27c-3.827.89-7.123 4.136-8.814 8.681l-.104.282a9.705 9.705 0 0 1-.358.886l-.29.598.656.113c.657.115 1.307.269 1.947.46 6.495 2.624 9.655 4.155 14.815 8.803 1.51 1.49 6.411 6.608 6.094 9.877-.201 2.131-2.775 5.039-5.264 7.851l-.003.004c-2.215 2.503-4.505 5.091-5.383 7.384-2.295 6.032 1.455 10.283 5.484 14.11.099.1.435.403.926.82-1.309 1.994-1.5 3.583-.57 4.724a3.512 3.512 0 0 0 3.542 1.078 13.193 13.193 0 0 0 2.793-1.043Zm.396-.973-.251-.213-.295.147c-.89.461-1.825.827-2.791 1.093a2.51 2.51 0 0 1-2.618-.721c-.671-.822-.378-2.133.87-3.895l.266-.378-.354-.295a26.106 26.106 0 0 1-1.215-1.059c-3.952-3.754-7.326-7.577-5.248-13.039.812-2.123 3.042-4.643 5.199-7.08l.001-.001.004-.005c2.713-3.065 5.275-5.961 5.507-8.414.35-3.606-4.351-8.673-6.403-10.7-5.273-4.748-8.659-6.389-15.172-9.017a19.145 19.145 0 0 0-1.49-.385l.144-.387.102-.275c1.215-3.266 3.983-7.098 8.112-8.059.222-.054.44-.123.652-.206 3.27 3.007 6.368 6.292 9.367 9.472l.027.029.005.005c2.49 2.641 5.064 5.371 7.742 7.955.417.45 1.198 1.217 1.9 1.905l.054.053c.567.556 1.074 1.053 1.272 1.269 4.588 5.036 7.511 7.889 10.088 10.405l.015.015c2.629 2.564 4.898 4.78 8.353 8.684 6.676 7.532 8.485 16.575 6.333 20.634l-.004.007c-1.775 3.349-5.464 10.306-17.874 8.026a25.616 25.616 0 0 1-12.298-5.57Z" fill="#000"/><path d="M400.996 229.552a.5.5 0 0 1-.492-.416 5.171 5.171 0 0 1 3.825-5.702.5.5 0 0 1 .219.976 4.132 4.132 0 0 0-3.058 4.557.5.5 0 0 1-.494.585Z" fill="#000"/><path d="M402.879 224.762a.498.498 0 0 1-.348-.142 5.33 5.33 0 0 1-1.059-1.452.501.501 0 1 1 .897-.444c.217.439.508.838.859 1.179a.501.501 0 0 1-.349.859ZM401.274 226.338a.514.514 0 0 1-.124-.016 5.04 5.04 0 0 1-1.436-.617.499.499 0 1 1 .533-.846c.356.224.744.391 1.151.494a.501.501 0 0 1-.124.985ZM400.514 228.486l-.026-.001-1.492-.079a.501.501 0 0 1 .053-.999l1.491.079a.501.501 0 0 1-.026 1ZM384.627 220.103a.5.5 0 0 1-.448-.722 6.679 6.679 0 0 1 5.871-3.639h.053a.5.5 0 1 1-.053 1 5.66 5.66 0 0 0-4.975 3.083.5.5 0 0 1-.448.278ZM429.066 235.14c-4.43 5.81-12.45 10.56-19.66 7.93a7.261 7.261 0 0 1-4.26-3.64 5.148 5.148 0 0 1 .89-5.61c5.2-4.51 11.11-7.86 12.92-14.08a7.469 7.469 0 0 0-.66-5.85 7.827 7.827 0 0 0-3.41-2.77 4.056 4.056 0 0 0 3.48-3.56 4.906 4.906 0 0 0-4.37-4.83 4.744 4.744 0 0 0-3.82 1.2 4.302 4.302 0 0 1-.9-3.6 4.752 4.752 0 0 1 4.85-3.74c4.15.28 8.75 3.46 12.03 6.77a30.215 30.215 0 0 1 6.28 9.16c3.21 7.09 1.35 16.43-3.37 22.62Z" fill="#000"/><path fill-rule="evenodd" clip-rule="evenodd" d="M435.926 224.064c.088.004.175.006.261.006a4.869 4.869 0 0 0 3.925-1.813c1.1-1.526 1.412-3.804.929-6.774a6.984 6.984 0 0 0-2.489-4.815 5.667 5.667 0 0 0-4.144-1.023 4.862 4.862 0 0 0-3.39 1.67l-.136.178 2.068 10.921.06.159a3.43 3.43 0 0 0 2.916 1.491Zm.048-.999a2.571 2.571 0 0 1-2.059-.929l-1.965-10.378a4.058 4.058 0 0 1 2.565-1.119 4.692 4.692 0 0 1 3.388.789 5.979 5.979 0 0 1 2.152 4.216c.431 2.66.172 4.744-.753 6.028a3.985 3.985 0 0 1-3.328 1.393Z" fill="#000"/><path d="M440.469 214.539c7.296.427 15.47 5.217 21.03 11.244 12.292 13.322 19.769 36 20.289 56.401.146 5.724-.129 11.559-2.037 16.957-1.909 5.399-5.642 10.361-10.879 12.676-6.004 2.655-21.679 2.196-28.8-7.337-5.879-7.871-6.942-18.395-4.305-27.859 2.636-9.463 7.678-18.109 10.454-27.532 2.775-9.424 1.558-20.578-5.588-28.852l-.164-5.698ZM414.506 211.654a3.472 3.472 0 0 1-1.48-.327.5.5 0 0 1 .425-.905c.877.371 1.88.28 2.675-.243a3.433 3.433 0 0 0 1.738-2.645 4.406 4.406 0 0 0-3.922-4.308 4.22 4.22 0 0 0-3.415 1.066 3.163 3.163 0 0 0-.824 3.264.5.5 0 1 1-.935.352 4.132 4.132 0 0 1 1.061-4.333 5.217 5.217 0 0 1 4.228-1.342 5.372 5.372 0 0 1 4.806 5.362 4.443 4.443 0 0 1-2.226 3.443 4.188 4.188 0 0 1-2.131.616Z" fill="#000"/><path d="M414.927 208.677a.5.5 0 0 1-.364-.843 1.204 1.204 0 0 0-.053-1.432c-.373-.5-.97-.782-1.593-.751a.497.497 0 0 1-.365-.12.496.496 0 0 1-.167-.346.499.499 0 0 1 .466-.532 2.872 2.872 0 0 1 2.471 1.166 2.176 2.176 0 0 1-.031 2.7.497.497 0 0 1-.364.158Z" fill="#000"/><path d="M314.773 209.196c-5.874 12.1-11.456 25.03-15.122 37.971-1.319 4.657-2.347 9.577-1.338 14.311 1.117 5.248 4.587 9.636 7.954 13.814 11.398 14.143 25.01 32.615 36.76 47.449a28.973 28.973 0 0 0 9.934 8.027c1.866.916 3.736 1.8 5.286 2.739a29.534 29.534 0 0 1 5.152 3.764c.395.373 1.276 1.214.761 1.818-.361.425-2.392-.454-2.905-.673a48.9 48.9 0 0 1-5.493-2.859.534.534 0 0 0-.66.822c3.312 3.615 10.891 10.21 14.655 14.156.398.438.748.918 1.044 1.432a.803.803 0 0 1-.617 1.205c-.394.062-.908-.183-1.643-.813-2.56-2.195-4.836-4.014-7.385-6.222-.206-.178-1.33-1.024-1.849-.827-.411.156-.654.516-.347.854 2.747 2.721 5.695 4.836 8.352 7.645a19.849 19.849 0 0 1 2.264 2.523c.26.393.2.915-.14 1.24-.653.644-1.52.061-1.903-.3-2.442-2.295-4.847-4.612-7.289-6.908-1.076-1.011-2.816-2.672-3.421-2.279-.334.309-.084.708.23 1.126 2.98 3.321 5.733 5.821 8.719 9.135.654.725 1.063 1.618.461 2.053-.517.433-2.03-.7-3.696-2.367-2.149-2.149-3.664-3.822-6.086-5.94-.697-.61-2.125-1.787-2.583-1.231 0 0-.914.069 6.462 7.516 1.308 1.322 1.299 2.181.994 2.481-.622.523-2.151-.583-3.026-1.387l-5.971-5.907a72.815 72.815 0 0 1-7.029-8.122c-2.83-3.482-6.228-8.299-6.685-14.68a4.243 4.243 0 0 0-1.148-2.611c-13.861-14.708-29.366-31.747-43.138-46.329-4.88-5.167-9.904-10.571-12.097-17.331-2.096-6.459-1.375-13.462-.39-20.181a282.792 282.792 0 0 1 9.949-43.513" fill="#fff"/><path d="M360.915 361.48c-1.04 0-2.349-1.082-2.955-1.64l-5.985-5.92a52.68 52.68 0 0 1-5.595-6.325c-.483-.608-.97-1.222-1.47-1.837-3.104-3.819-6.34-8.583-6.796-14.959a3.759 3.759 0 0 0-1.013-2.303c-6.74-7.153-13.988-14.985-20.996-22.559-7.408-8.004-15.067-16.28-22.141-23.771-4.659-4.933-9.94-10.524-12.21-17.52-2.162-6.662-1.345-14.027-.409-20.408a284.173 284.173 0 0 1 9.967-43.59l.955.299a282.913 282.913 0 0 0-9.932 43.437c-.962 6.555-1.726 13.496.37 19.954 2.2 6.781 7.399 12.286 11.985 17.142 7.079 7.494 14.74 15.772 22.148 23.778 7.008 7.573 14.254 15.403 20.991 22.552a4.761 4.761 0 0 1 1.283 2.917c.436 6.1 3.568 10.702 6.574 14.4.503.618.992 1.235 1.477 1.847a52.27 52.27 0 0 0 5.501 6.223l5.986 5.92c1.223 1.123 2.196 1.487 2.352 1.359.022-.043.062-.645-1.028-1.746-6.97-7.038-6.741-7.649-6.606-8.015l.113-.299.162-.025a.921.921 0 0 1 .473-.171c.589-.033 1.425.412 2.664 1.497 1.803 1.576 3.126 2.928 4.529 4.36.502.512 1.019 1.042 1.581 1.603 2.377 2.375 3.072 2.31 3.069 2.312a.203.203 0 0 0 .066-.136 1.95 1.95 0 0 0-.624-1.174c-1.469-1.631-2.908-3.09-4.299-4.501-1.429-1.449-2.907-2.947-4.42-4.635-.286-.377-.893-1.182-.2-1.826.926-.604 2.249.534 4.025 2.206l.08.075a563.042 563.042 0 0 1 3.706 3.513c1.191 1.134 2.385 2.266 3.582 3.396.129.121.8.711 1.21.306a.467.467 0 0 0 .064-.623 12.398 12.398 0 0 0-1.62-1.843 48.026 48.026 0 0 1-.581-.596 60.146 60.146 0 0 0-4.513-4.172c-1.265-1.092-2.574-2.221-3.827-3.462a.94.94 0 0 1-.261-.879c.111-.379.405-.678.782-.797.886-.339 2.295.866 2.354.916 1.369 1.186 2.659 2.259 3.956 3.338 1.119.931 2.243 1.866 3.427 2.882.765.655 1.109.722 1.24.698a.409.409 0 0 0 .286-.189c.013-.028.057-.113-.035-.293a8.001 8.001 0 0 0-.961-1.315c-1.784-1.869-4.476-4.381-7.08-6.811-2.869-2.676-5.834-5.444-7.583-7.352a1.033 1.033 0 0 1 1.278-1.594l.408.235a44.89 44.89 0 0 0 5.032 2.598 7.285 7.285 0 0 0 2.359.75c.031-.133-.072-.427-.754-1.072a29.159 29.159 0 0 0-5.068-3.7c-1.315-.796-2.846-1.544-4.467-2.336l-.781-.381a29.63 29.63 0 0 1-10.104-8.166c-5.369-6.777-11.221-14.437-16.88-21.845-6.73-8.81-13.688-17.92-19.878-25.6-3.228-4.007-6.889-8.548-8.055-14.024-1.049-4.933.092-10.124 1.347-14.551 3.175-11.206 7.989-23.298 15.152-38.053l.901.436c-7.138 14.702-11.933 26.741-15.09 37.889-1.284 4.527-2.333 9.364-1.331 14.071 1.115 5.242 4.696 9.685 7.855 13.604 6.197 7.69 13.16 16.805 19.893 25.62 5.657 7.404 11.506 15.062 16.869 21.832a28.61 28.61 0 0 0 9.762 7.889l.778.381c1.643.801 3.193 1.559 4.547 2.379a29.958 29.958 0 0 1 5.235 3.829c.403.379 1.627 1.534.8 2.506-.434.506-1.371.363-3.451-.525a46.46 46.46 0 0 1-5.169-2.664l-.408-.234c1.679 1.929 4.631 4.683 7.485 7.346 2.614 2.441 5.319 4.963 7.12 6.853.432.473.809.991 1.127 1.547.21.371.224.821.038 1.204a1.398 1.398 0 0 1-1.021.724c-.563.082-1.194-.197-2.046-.926a282.637 282.637 0 0 0-3.417-2.872c-1.302-1.084-2.597-2.162-3.971-3.352a3.243 3.243 0 0 0-1.356-.734.36.36 0 0 0-.158.107c1.226 1.138 2.521 2.255 3.774 3.335a61.329 61.329 0 0 1 4.587 4.242c.169.179.362.375.565.58a12.958 12.958 0 0 1 1.764 2.029c.38.59.289 1.368-.218 1.854a1.83 1.83 0 0 1-2.595-.29 614.045 614.045 0 0 1-3.587-3.4 1027.347 1027.347 0 0 0-3.703-3.509l-.08-.075a13.627 13.627 0 0 0-2.607-2.094c.073.121.153.238.239.351 1.471 1.636 2.94 3.126 4.361 4.567 1.399 1.419 2.845 2.886 4.33 4.533a2.87 2.87 0 0 1 .876 1.949c-.034.34-.214.648-.494.844-.474.396-1.423.501-4.343-2.418-.565-.564-1.084-1.095-1.589-1.61-1.388-1.418-2.698-2.757-4.472-4.308a8.053 8.053 0 0 0-1.521-1.118 62.442 62.442 0 0 0 6.084 6.676 3.55 3.55 0 0 1 1.307 2.368 1.005 1.005 0 0 1-1.077 1.085Z" fill="#000"/><path d="M266.452 102.888c12.628-1.117 29.208 4.775 40.349 9.224 42.081 16.801 65.19 38.187 72.689 46.899a6.245 6.245 0 0 1 1.692 3.361c.097 1.242-.805 2.367-2.503 2.784-4.039.932-7.033 4.528-8.459 8.365a5.084 5.084 0 0 1-1.129 2.127 4.433 4.433 0 0 1-2.762.807c-8.901.547-13.942 1.077-21.565 5.551-3.46 2.031-7.515 6.17-10.966 8.217-4.883 2.896-8.519 4.057-15.093 4.607a64.128 64.128 0 0 1-14.706-1.395c-13.872-3.116-22.308-4.645-34.371-8.076-2.971-.845-8.195-3.172-10.542-5.182-4.507-3.861-4.976-8.531-4.896-13.802.08-5.271 2.166-10.924 1.929-16.19-.266-5.888-2.282-11.531-3.754-17.238-1.473-5.707-3.459-13.638-1.566-19.22 1.892-5.581 6.538-10.033 15.653-10.839Z" fill="#fff"/><path fill-rule="evenodd" clip-rule="evenodd" d="M303.889 193.924a64.354 64.354 0 0 0 13.443 1.424c.477 0 .95-.006 1.415-.018 6.542-.547 10.262-1.684 15.306-4.675a48.44 48.44 0 0 0 5.5-4.124 46.905 46.905 0 0 1 5.464-4.092c7.585-4.452 12.535-4.942 21.343-5.483a3.76 3.76 0 0 0 4.229-2.988l.099-.271c1.216-3.269 3.983-7.102 8.11-8.053 1.872-.461 3.003-1.76 2.882-3.309a6.536 6.536 0 0 0-1.811-3.648c-3.928-4.564-25.901-28.28-72.882-47.038-11.309-4.515-27.817-10.388-40.579-9.257-10.475.926-14.528 6.589-16.083 11.176-1.975 5.824.149 14.057 1.555 19.505v.001c.348 1.349.727 2.695 1.106 4.041l.001.005c1.195 4.252 2.431 8.649 2.632 13.089a39.002 39.002 0 0 1-.952 8.6 46.471 46.471 0 0 0-.977 7.56c-.075 4.918.255 10.064 5.071 14.19 2.511 2.15 7.939 4.489 10.731 5.283 8.842 2.515 15.636 3.988 24.238 5.851 3.112.675 6.44 1.396 10.159 2.231Zm-52.617-80.034c2.123-6.263 7.246-9.796 15.224-10.502 12.549-1.114 28.907 4.713 40.12 9.19 46.765 18.671 68.593 42.229 72.495 46.761a5.632 5.632 0 0 1 1.573 3.073c.081 1.052-.732 1.918-2.117 2.259-4.508 1.039-7.51 5.164-8.817 8.678l-.101.279a2.827 2.827 0 0 1-3.35 2.329c-8.714.536-14.021 1.061-21.788 5.62a47.554 47.554 0 0 0-5.594 4.182 47.547 47.547 0 0 1-5.374 4.035c-4.895 2.904-8.51 4.007-14.85 4.537a63.129 63.129 0 0 1-14.585-1.382 1344.11 1344.11 0 0 0-10.166-2.233l-.009-.002c-8.58-1.859-15.358-3.328-24.168-5.834-3.131-.891-8.153-3.196-10.353-5.081-4.491-3.846-4.796-8.54-4.722-13.415.118-2.487.439-4.959.961-7.394.651-2.897.975-5.857.967-8.826-.206-4.557-1.458-9.011-2.67-13.319v-.001c-.376-1.339-.753-2.678-1.099-4.02-1.376-5.333-3.456-13.393-1.577-18.934Z" fill="#000"/><path fill-rule="evenodd" clip-rule="evenodd" d="M276.942 122.215a3.933 3.933 0 1 0 7.866 0 3.933 3.933 0 0 0-7.866 0Zm1.224-1.123a2.933 2.933 0 1 1 5.42 2.243 2.933 2.933 0 0 1-5.42-2.243ZM298.97 144.314a3.933 3.933 0 1 0 7.267-3.01 3.933 3.933 0 0 0-7.267 3.01Zm.924-2.629a2.933 2.933 0 1 1 5.42 2.246 2.933 2.933 0 0 1-5.42-2.246Z" fill="#000"/><path d="M333.2 127.889a3.934 3.934 0 0 1-3.382-5.928l.861.507a2.934 2.934 0 0 0 5.057 2.977l.861.508a3.938 3.938 0 0 1-3.397 1.936Z" fill="#000"/><path fill-rule="evenodd" clip-rule="evenodd" d="M266.642 155.02a3.933 3.933 0 1 0 7.866 0 3.933 3.933 0 0 0-7.866 0Zm1.223-1.123a2.932 2.932 0 1 1 5.42 2.243 2.932 2.932 0 0 1-5.42-2.243ZM358.858 156.525a3.934 3.934 0 0 0 3.635 2.428 3.933 3.933 0 1 0-3.635-2.428Zm.924-2.629a2.933 2.933 0 1 1 5.42 2.247 2.933 2.933 0 0 1-5.42-2.247Z" fill="#000"/><path d="M303.581 156.82a234.935 234.935 0 0 0-15.446 33.975c-.732 2.022-1.432 4.285-.595 6.266.784 1.854 2.698 2.929 4.502 3.824a126.154 126.154 0 0 0 16.931 6.913c3.838 1.25 8.094 2.302 11.821.753 3.553-1.475 5.785-4.964 7.71-8.295a243.643 243.643 0 0 0 15.58-32.228" fill="#fff"/><path d="M303.15 156.567a239.881 239.881 0 0 0-11.968 24.944c-1.584 3.865-3.861 8.194-4.424 12.365-.465 3.441 1.484 5.56 4.352 7.094a102.61 102.61 0 0 0 11.692 5.17c3.873 1.484 7.969 3.144 12.123 3.583 8.643.913 12.47-6.364 16.1-12.908a248.184 248.184 0 0 0 13.541-28.655c.238-.598-.729-.857-.964-.266a246.718 246.718 0 0 1-10.318 22.602c-1.784 3.433-3.629 6.845-5.602 10.174-1.952 3.295-4.333 6.748-8.237 7.8-4.015 1.082-8.292-.442-12.075-1.735a124.72 124.72 0 0 1-11.773-4.705 49.372 49.372 0 0 1-4.657-2.292c-2.707-1.614-3.699-3.765-2.948-6.86a78.016 78.016 0 0 1 3.977-10.669 237.597 237.597 0 0 1 12.044-25.137c.311-.564-.552-1.069-.863-.505Z" fill="#000"/><path d="M324.778 205.606a3.931 3.931 0 0 1 .315-6.808 3.932 3.932 0 0 1 3.931.186l-.539.842a2.933 2.933 0 1 0-3.168 4.939l-.539.841Z" fill="#000"/><path fill-rule="evenodd" clip-rule="evenodd" d="M298.97 188.041a3.93 3.93 0 0 0 3.634 2.427 3.938 3.938 0 0 0 3.933-3.933 3.934 3.934 0 1 0-7.567 1.506Zm.924-2.629a2.932 2.932 0 0 1 2.71-1.81 2.934 2.934 0 1 1-2.71 1.81ZM330.611 168.175a3.933 3.933 0 1 0 7.867.001 3.933 3.933 0 0 0-7.867-.001Zm1 .001a2.934 2.934 0 0 1 2.933-2.934 2.934 2.934 0 1 1-2.933 2.934Z" fill="#000"/><path d="M409.893 33.876a14.67 14.67 0 0 0-6.349-4.929.508.508 0 0 0-.684.18c-1.403 2.858-2.837 5.698-3.233 8.896h1c-.097-3.218-.585-6.386-.114-9.599a.515.515 0 0 0-.349-.615 32.032 32.032 0 0 1-8.563-3.514l-.252.932c3.319-.228 6.717-.034 9.929-1.035a.515.515 0 0 0 .349-.616 71.29 71.29 0 0 1-.606-10.417l-.982.133a149.612 149.612 0 0 0 3.22 8.75.51.51 0 0 0 .735.298c3.18-1.662 5.671-4.538 8.55-6.64l-.684-.685a111.157 111.157 0 0 1-5.845 9.89c-.612.997-1.067 1.397-.722 2.548.732 2.438 2.531 4.71 3.737 6.928.307.566 1.171.062.863-.505-.615-1.131-1.264-2.242-1.903-3.36-.506-.884-1.638-2.298-1.732-3.329-.099-1.08.741-1.972 1.343-2.948a96.46 96.46 0 0 0 5.122-8.72c.193-.401-.24-1.007-.684-.683-2.88 2.104-5.373 4.98-8.55 6.641l.734.299a155.92 155.92 0 0 1-3.22-8.75.502.502 0 0 0-.982.133 72.974 72.974 0 0 0 .642 10.683l.349-.615c-3.123.974-6.435.779-9.663 1a.504.504 0 0 0-.253.932 32.925 32.925 0 0 0 8.802 3.614l-.349-.615c-.485 3.309-.022 6.548.078 9.865a.5.5 0 0 0 1 0c.372-3.004 1.78-5.71 3.096-8.392l-.684.18a13.806 13.806 0 0 1 5.99 4.57c.352.536 1.218.036.864-.505ZM535.949 239.922a14.68 14.68 0 0 0-6.349-4.93.509.509 0 0 0-.684.18c-1.758 3.691-3.469 7.848-3.916 11.936h1c-.174-4.221.017-8.45.57-12.638a.513.513 0 0 0-.35-.615c-2.902-.794-5.948-.876-8.563-2.503l-.252.931c2.756-.287 6.369-.206 8.778-1.742a.496.496 0 0 0 .247-.431c-.338-3.685-.126-7.45-.175-11.147l-.982.133c1.215 3.523 2.945 6.837 4.372 10.273.084.259.351.41.615.349 2.105-.301 4.06-1.263 6.156-1.655l-.487-.836c-1.019.909-1.981 1.885-2.949 2.849-.508.506-1.742 1.333-1.947 2.06-.205.729.588 1.968.894 2.578.974 1.944 2.124 3.8 3.159 5.712.306.567 1.17.062.863-.504-.82-1.517-1.7-3-2.523-4.515-.414-.76-1.499-2.428-1.332-3.018.179-.634 1.731-1.745 2.205-2.213.767-.758 1.532-1.524 2.337-2.242.404-.359-.035-.92-.486-.835-2.096.392-4.05 1.353-6.156 1.655l.616.349c-1.427-3.435-3.158-6.752-4.373-10.273a.502.502 0 0 0-.982.133c.043 3.249-.014 6.502.098 9.75.008.229.143.976.025 1.156-.283.432-1.933.607-2.408.7-1.835.361-3.707.52-5.565.714a.504.504 0 0 0-.252.932c2.696 1.678 5.803 1.784 8.802 2.604l-.35-.615a74.924 74.924 0 0 0-.605 12.904.5.5 0 0 0 1 0c.425-3.887 2.111-7.928 3.779-11.431l-.684.179a13.811 13.811 0 0 1 5.991 4.571c.351.536 1.217.035.863-.505ZM51.73 165.145a14.673 14.673 0 0 0-6.349-4.929.51.51 0 0 0-.684.179c-1.31 2.562-2.898 4.829-3.274 7.74h1c-.086-2.848-.505-5.596-.072-8.442a.515.515 0 0 0-.35-.615 27.821 27.821 0 0 1-7.669-3.229l-.252.932c2.74-.189 5.378-.181 8.019-1.024a.517.517 0 0 0 .349-.615 34.572 34.572 0 0 1 .393-10.582h-.965c.95 3.095 1.319 6.335 2.461 9.373.078.262.35.416.615.349a50.22 50.22 0 0 0 6.924-2.452l-.684-.684a22.59 22.59 0 0 1-3.078 4.32c-.395.466-1.571 1.362-1.737 2.003-.214.829.613 1.935 1.003 2.588 1.127 1.888 2.42 3.667 3.487 5.593.312.563 1.176.059.863-.505-.96-1.731-2.09-3.348-3.136-5.027a28.131 28.131 0 0 1-.924-1.582c-.607-1.131-.427-.269-.168-.862.385-.883 1.646-1.869 2.259-2.636a19.933 19.933 0 0 0 2.294-3.387.505.505 0 0 0-.684-.684 48.355 48.355 0 0 1-6.685 2.351l.615.349c-1.142-3.038-1.51-6.278-2.46-9.373-.133-.433-.881-.516-.965 0a35.955 35.955 0 0 0-.392 11.113l.349-.615a32.13 32.13 0 0 1-7.753.989.505.505 0 0 0-.252.932 28.608 28.608 0 0 0 7.907 3.329l-.349-.615c-.446 2.938-.052 5.763.037 8.708a.5.5 0 0 0 1 0c.348-2.693 1.93-4.875 3.137-7.235l-.684.179a13.808 13.808 0 0 1 5.99 4.571c.352.536 1.218.036.864-.505ZM134.956 21.207a14.671 14.671 0 0 0-6.349-4.929.51.51 0 0 0-.684.18c-1.311 2.562-2.898 4.829-3.274 7.74h1c-.086-2.849-.505-5.597-.073-8.443a.514.514 0 0 0-.349-.615c-3.157-.915-6.484-1.427-9.296-3.228l-.252.932c3.233-.22 6.517-.053 9.645-1.025a.517.517 0 0 0 .35-.615 34.561 34.561 0 0 1 .392-10.581h-.964c.95 3.094 1.319 6.334 2.461 9.372a.51.51 0 0 0 .615.35 50.185 50.185 0 0 0 6.924-2.452l-.684-.684a22.613 22.613 0 0 1-3.078 4.32c-.395.465-1.572 1.361-1.737 2.002-.214.83.613 1.935 1.003 2.588 1.127 1.888 2.419 3.668 3.487 5.593.312.563 1.176.06.863-.505-.96-1.73-2.091-3.348-3.136-5.026a27.886 27.886 0 0 1-.924-1.583c-.607-1.13-.427-.269-.169-.862.385-.883 1.647-1.869 2.26-2.636a19.878 19.878 0 0 0 2.294-3.387.504.504 0 0 0-.684-.684 48.385 48.385 0 0 1-6.685 2.351l.615.35c-1.142-3.039-1.511-6.278-2.461-9.373-.133-.433-.88-.517-.964 0a35.973 35.973 0 0 0-.393 11.113l.35-.615c-3.042.944-6.238.775-9.38.989a.505.505 0 0 0-.253.931c2.889 1.851 6.29 2.389 9.535 3.33l-.349-.616c-.447 2.938-.052 5.764.037 8.708a.5.5 0 0 0 1 0c.348-2.692 1.93-4.874 3.137-7.235l-.684.18a13.807 13.807 0 0 1 5.99 4.57c.352.537 1.218.036.864-.505Z" fill="#000"/><circle cx="315.044" cy="65.046" r="2.437" fill="#000"/><circle cx="102.857" cy="199.491" r="2.437" fill="#000"/><circle cx="193.063" cy="82.413" r="2.437" fill="#000"/><circle cx="2.59" cy="222.632" r="2.437" fill="#000"/><circle cx="516.758" cy="147.085" r="2.437" fill="#000"/><circle cx="489.174" cy="49.358" r="2.437" fill="#000"/><circle cx="503.516" cy="342.687" r="2.437" fill="#000"/><circle cx="406.479" cy="114.541" r="3.26" fill="#000"/><circle cx="209.016" cy="3.752" r="3.26" fill="#000"/><circle cx="97.161" cy="70.471" r="3.26" fill="#000"/><circle cx="46.111" cy="277.525" r="3.26" fill="#000"/><circle cx="20.26" cy="105.103" r="3.26" fill="#000"/></svg>