<svg width="452" height="699" fill="none" xmlns="http://www.w3.org/2000/svg"><path d="M223.601 251.685a2.144 2.144 0 0 0-.26.76c-.59 3.76-1.76 10.55-2.49 14.26-1.39 6.96-2.65 15.79-6.56 21.72a12.9 12.9 0 0 1-4.73 4.61 8.35 8.35 0 0 1-7.39-.42c-2.08-1.5-2.65-4.3-3.05-6.83-1.62-10.07-2.72-19.48-4.15-29.32-.01-.03-.49-3.53-.81-5.88a1.988 1.988 0 0 0-.19-.64c9.38-3.86 12.96-18.7 13.1-31.57a16.694 16.694 0 0 0 6.4 1.8c1.379.139 2.764.202 4.15.19-1.83 9.2-2.72 20.71 2.25 27.68a12.064 12.064 0 0 0 3.73 3.64Z" fill="#fff"/><path fill-rule="evenodd" clip-rule="evenodd" d="M201.879 293.023a7.921 7.921 0 0 0 4.424 1.182 7.961 7.961 0 0 0 3.482-.721 13.097 13.097 0 0 0 4.923-4.781c3.449-5.231 4.85-12.577 6.084-19.058l.04-.208c.171-.899.339-1.779.51-2.633.736-3.745 1.905-10.531 2.494-14.286.028-.206.096-.404.2-.583l.238-.419-.409-.253a11.563 11.563 0 0 1-3.587-3.506c-3.941-5.526-4.67-14.709-2.167-27.292l.121-.608-.619.01a37.102 37.102 0 0 1-4.096-.188 16.241 16.241 0 0 1-6.21-1.742l-.728-.39-.009.825c-.135 12.553-3.567 27.318-12.79 31.113l-.496.204.239.481c.074.153.122.316.143.485.74 5.447.81 5.89.811 5.89v-.002c.549 3.78 1.049 7.497 1.55 11.213l.007.054c.785 5.836 1.598 11.871 2.593 18.056.435 2.749 1.045 5.565 3.252 7.157Zm-7.222-42.501a2.607 2.607 0 0 0-.057-.303c9.149-4.164 12.684-18.542 12.958-31.04a17.79 17.79 0 0 0 5.866 1.496c1.319.125 2.5.189 3.59.195-2.417 12.559-1.593 21.798 2.439 27.452a12.537 12.537 0 0 0 3.516 3.553 2.54 2.54 0 0 0-.122.495c-.586 3.739-1.752 10.507-2.486 14.239-.167.841-.333 1.709-.503 2.595l-.048.254c-1.217 6.389-2.597 13.631-5.936 18.693a12.16 12.16 0 0 1-4.538 4.44 7.92 7.92 0 0 1-6.873-.379c-1.895-1.367-2.446-3.962-2.849-6.504-.992-6.173-1.804-12.201-2.589-18.031l-.039-.289c-.49-3.642-.982-7.287-1.523-11.01-.028-.166-.478-3.441-.806-5.856Z" fill="#000"/><path d="M223.291 670.619c-.79 3.76-5.68 4.65-8.64 7.09-3.47 2.85-3.381 4.56-4.09 10.34-.41 3.29-.04 7.43-3.02 8.89-1.97 1.07-7.54 1.01-9.25.68a3.42 3.42 0 0 1-3.16-3.51 6.33 6.33 0 0 1 2.619-5.4c3.351-2.37 3.341-6.05 3.331-9.71a31.467 31.467 0 0 1 .14-3.92c1.07-8.66 3.38-13.23 3.74-20.71.6-9.01 1.113-17.977 1.539-26.9l13.651.23a2601.28 2601.28 0 0 0-4.68 28.32 4.417 4.417 0 0 0 .1 1.78c.59 2.35 2.86 4.41 4.419 5.9 1.931 1.85 3.861 4.31 3.301 6.92Z" fill="#fff"/><path fill-rule="evenodd" clip-rule="evenodd" d="M198.195 698.11c1.097.164 2.205.238 3.314.22 2.273 0 4.958-.239 6.251-.942 2.665-1.306 2.907-4.51 3.12-7.337l.002-.033c.049-.65.098-1.294.175-1.909l.167-1.393v-.002c.557-4.716.726-6.14 3.745-8.619a20.166 20.166 0 0 1 3.345-2.058c2.406-1.276 4.894-2.597 5.465-5.314.49-2.282-.637-4.697-3.443-7.385l-.256-.244c-1.477-1.407-3.502-3.333-4.025-5.42a3.916 3.916 0 0 1-.09-1.576c1.592-9.96 3.123-19.222 4.679-28.315l.097-.574-14.717-.248-.023.483c-.435 9.04-.953 18.088-1.539 26.901-.24 3.6-.84 7.168-1.791 10.649a83.902 83.902 0 0 0-1.946 10.026 31.476 31.476 0 0 0-.145 3.98c.011 3.642.021 7.08-3.119 9.301a6.843 6.843 0 0 0-2.829 5.832 3.898 3.898 0 0 0 3.563 3.977Zm7.265-43.708c.576-8.653 1.086-17.541 1.516-26.425l12.584.212a2597.499 2597.499 0 0 0-4.584 27.756 5.006 5.006 0 0 0 .109 1.976c.594 2.363 2.738 4.405 4.304 5.896l.002.001.254.242c2.535 2.429 3.567 4.541 3.156 6.455v.002c-.475 2.259-2.651 3.415-4.956 4.637a20.951 20.951 0 0 0-3.512 2.168c-3.329 2.735-3.54 4.515-4.102 9.274v.002l-.166 1.389c-.081.64-.131 1.311-.182 1.989-.202 2.684-.412 5.46-2.581 6.523-1.812.984-7.257.948-8.916.63a2.94 2.94 0 0 1-2.755-3.041 5.832 5.832 0 0 1 2.408-4.971c3.563-2.52 3.552-6.382 3.541-10.12v-.002a30.8 30.8 0 0 1 .137-3.854 83.051 83.051 0 0 1 1.927-9.913 54.858 54.858 0 0 0 1.816-10.826Z" fill="#000"/><path d="M207.71 549.478c-.06.72-.38 2.54-1.57 3.2-.94.51-3.2.79-3.88-2.48-.77-3.67-2.96-9.01-4.18-12.56-.3-.86-.74-1.91-1.27-3.05a73.87 73.87 0 0 0-6.41-11.14c-2.89-3.24-26.12-15.34-30.66-17.77l6.67-12.49c8.4 6.63 17.36 13.62 26.49 21.79a5.052 5.052 0 0 0 2.69 1.179c2.85.48 7.062-.977 9.432.563 4.97 3.2.508 10.817.318 13.898-.37 5.95 2.87 12.9 2.37 18.86Z" fill="#fff"/><path fill-rule="evenodd" clip-rule="evenodd" d="M203.71 553.231c.37.171.773.258 1.181.256a3.199 3.199 0 0 0 1.492-.375c1.521-.844 1.788-3.143 1.826-3.595.261-3.108-.473-6.488-1.183-9.757l-.003-.01a34.848 34.848 0 0 1-1.183-9.104c.151-1.053.407-2.088.764-3.09h.001c1.126-3.669 2.67-8.696-1.31-11.257-1.584-1.029-3.808-.849-5.958-.674l-.015.001a15.758 15.758 0 0 1-3.645.037 4.536 4.536 0 0 1-2.444-1.061c-8.466-7.576-16.689-14.062-24.642-20.334l-.013-.01-2.327-1.836-7.188 13.458.441.235c.493.265 1.207.643 2.091 1.111l.033.017c7.114 3.77 25.887 13.718 28.373 16.503a73.646 73.646 0 0 1 6.356 11.05c.531 1.141.963 2.179 1.25 3.001.329.956.728 2.042 1.15 3.189l.045.122a74.995 74.995 0 0 1 2.969 9.189 3.825 3.825 0 0 0 1.939 2.934Zm-41.648-46.889-1.645-.873 6.152-11.522 1.39 1.096.033.026c7.934 6.258 16.139 12.729 24.566 20.269a5.457 5.457 0 0 0 2.95 1.31c1.295.145 2.603.136 3.896-.025 1.991-.163 4.046-.331 5.348.516 3.345 2.153 1.987 6.572.896 10.123a16.432 16.432 0 0 0-.806 3.322 35.48 35.48 0 0 0 1.204 9.379l.001.006c.695 3.198 1.414 6.504 1.166 9.464-.019.222-.215 2.194-1.311 2.802a2.057 2.057 0 0 1-1.771.089 2.91 2.91 0 0 1-1.381-2.231 75.511 75.511 0 0 0-3.01-9.33 181.707 181.707 0 0 1-1.188-3.293c-.298-.856-.743-1.926-1.288-3.096a74.667 74.667 0 0 0-6.491-11.262c-2.336-2.619-16.57-10.338-28.711-16.77Z" fill="#000"/><path d="M200.991 243.84c2.307 2.494 6.093 3.386 9.381 3.46 2.524.057 5.976-.267 7.753-2.319.419-.485-.285-1.195-.708-.708-1.596 1.845-4.787 2.078-7.045 2.027-2.998-.068-6.567-.889-8.674-3.167-.438-.473-1.144.235-.707.707Z" fill="#000"/><path d="M130.426 74.516a44.234 44.234 0 0 1-26.504-6.825c-5.28-3.378-9.861-7.9-15.58-10.462-7.018-3.145-15.254-3-22.521-.482a41.497 41.497 0 0 0-18.86 12.888c-2.505 2.885-7.522 10.847-5.434 15.51l23.552-6.956a9.03 9.03 0 0 1 4.283-.54 7.747 7.747 0 0 1 3.619 2.192 27.456 27.456 0 0 1 8.002 24.484c-.405 2.195-1.164 4.465-2.877 5.896a11.82 11.82 0 0 1-3.742 1.848l-22.601 7.998a8.808 8.808 0 0 0 2.599 3.674c11.656 8.399 32.734 9.833 44.529-.416 3.763-3.27 7.179-6.909 10.874-10.254 3.696-3.345 8.047-6.279 12.988-6.937l178.523-7.833a44.235 44.235 0 0 1 26.616 6.373c5.336 3.287 9.994 7.73 15.756 10.195 7.07 3.026 15.303 2.74 22.526.099a41.5 41.5 0 0 0 18.638-13.207c2.455-2.927 7.336-10.974 5.169-15.601l-23.43 7.356a9.033 9.033 0 0 1-4.274.613 7.748 7.748 0 0 1-3.655-2.13 27.456 27.456 0 0 1-8.417-24.344c.367-2.202 1.087-4.484 2.776-5.945a11.82 11.82 0 0 1 3.709-1.91l22.462-8.382a8.794 8.794 0 0 0-2.661-3.63c-11.797-8.199-32.896-9.274-44.515 1.175-3.707 3.332-7.06 7.03-10.699 10.437-3.638 3.407-7.938 6.415-12.867 7.157l-177.984 7.959Z" fill="#fff"/><path fill-rule="evenodd" clip-rule="evenodd" d="M54.07 124.144c5.986 4.313 14.616 6.891 23.247 6.89 8.009-.001 16.017-2.221 21.902-7.335 2.098-1.823 4.117-3.788 6.07-5.689l.074-.072c1.537-1.495 3.125-3.04 4.739-4.499 4.461-4.039 8.621-6.267 12.673-6.809l178.542-7.834a43.631 43.631 0 0 1 26.312 6.301c1.964 1.209 3.873 2.605 5.72 3.955l.018.013a52.508 52.508 0 0 0 10.085 6.261c6.789 2.906 15.135 2.946 22.894.109a41.943 41.943 0 0 0 18.849-13.356c2.679-3.193 7.485-11.338 5.239-16.135l-.186-.396-23.846 7.488a8.674 8.674 0 0 1-4.033.598 7.333 7.333 0 0 1-3.411-2.007 27.072 27.072 0 0 1-8.26-23.893c.451-2.704 1.28-4.498 2.61-5.649a11.427 11.427 0 0 1 3.558-1.82l22.848-8.526-.068-.407a9.178 9.178 0 0 0-2.869-3.957c-11.68-8.118-33.089-9.618-45.135 1.213-2.069 1.86-4.058 3.862-5.979 5.797l-.025.025c-1.525 1.535-3.1 3.121-4.703 4.622-4.392 4.114-8.514 6.413-12.548 7.023l-177.983 7.958h-.01a43.673 43.673 0 0 1-26.202-6.747c-1.947-1.245-3.836-2.676-5.663-4.06l-.006-.005a52.461 52.461 0 0 0-9.977-6.431c-6.739-3.022-15.08-3.204-22.89-.499a41.943 41.943 0 0 0-19.073 13.033c-2.733 3.147-7.677 11.209-5.512 16.043l.178.4 23.972-7.081a8.661 8.661 0 0 1 4.042-.53 7.312 7.312 0 0 1 3.374 2.066 27.067 27.067 0 0 1 7.855 24.029c-.498 2.696-1.358 4.477-2.706 5.604a11.417 11.417 0 0 1-3.59 1.76l-22.989 8.136.062.408a9.177 9.177 0 0 0 2.8 4.005Zm.584-.812a8.998 8.998 0 0 1-2.257-2.962l22.134-7.833a12.323 12.323 0 0 0 3.895-1.935c1.537-1.285 2.506-3.251 3.049-6.189a28.09 28.09 0 0 0-8.15-24.938 8.198 8.198 0 0 0-3.865-2.32 9.536 9.536 0 0 0-4.522.552l-23.113 6.826c-1.5-4.412 3.096-11.79 5.514-14.573a40.99 40.99 0 0 1 18.646-12.744c7.57-2.622 15.644-2.45 22.153.466a51.771 51.771 0 0 1 9.781 6.317l.041.03c1.832 1.388 3.725 2.821 5.693 4.08a44.74 44.74 0 0 0 26.796 6.903l178.035-7.963c4.294-.647 8.59-3.03 13.135-7.287 1.608-1.506 3.183-3.092 4.708-4.627l.045-.045c1.913-1.926 3.89-3.917 5.938-5.759 9.388-8.441 29.723-10.985 43.896-1.135a8.996 8.996 0 0 1 2.308 2.923l-21.998 8.209a12.34 12.34 0 0 0-3.862 2c-1.495 1.294-2.458 3.336-2.943 6.242a28.094 28.094 0 0 0 8.574 24.795 8.21 8.21 0 0 0 3.902 2.253 9.566 9.566 0 0 0 4.514-.628l22.993-7.22c1.574 4.386-2.896 11.842-5.265 14.667a41.001 41.001 0 0 1-18.427 13.058c-7.523 2.751-15.598 2.719-22.158-.088a51.855 51.855 0 0 1-9.888-6.15c-1.867-1.365-3.798-2.777-5.801-4.012a44.706 44.706 0 0 0-26.901-6.447l-178.567 7.837c-4.304.573-8.64 2.883-13.257 7.062-1.651 1.496-3.271 3.072-4.838 4.596l-.021.021c-1.937 1.885-3.939 3.832-6.008 5.63-9.53 8.282-29.907 10.478-43.91.388Z" fill="#000"/><path fill-rule="evenodd" clip-rule="evenodd" d="M122.611 90.309a8.277 8.277 0 0 0 8.694 8.06l173.241-8.77a8.278 8.278 0 0 0-.838-16.534l-173.241 8.77a8.278 8.278 0 0 0-7.856 8.474Zm181.148-16.245a7.276 7.276 0 0 1 7.643 7.085 7.277 7.277 0 0 1-6.907 7.451l-173.241 8.77a7.277 7.277 0 0 1-.737-14.536l173.242-8.77Z" fill="#000"/><path d="M232.838 115.023a31.093 31.093 0 0 0-9.485-7.799c-1.588-.814-2.798-1.239-4.723-2.28a8.381 8.381 0 0 1-3.286-2.922l3.595-.157c.642.484 1.341.889 2.08 1.206.481.206.926-.304.58-.696-2.791-3.154-9.023-8.246-12.196-11.69-.26-.281-1.497-1.713-.597-2.427.62-.493 1.355.182 1.524.343 2.096 1.999 4.086 3.404 6.242 5.338.173.156 1.02 1.007 1.549.705.419-.24-.038-.743-.038-.743-2.318-2.376-4.647-3.993-6.886-6.444-.585-.64-2.755-2.792-1.456-3.746.404-.297.987.036 1.311.35l6.187 6.023c.909.884 2.742 2.456 3.056 2.214.291-.26.083-.606-.181-.97-2.777-2.985-4.627-4.68-7.142-7.571-.55-.632-1.185-1.621-.574-2.171.968-.787 2.816 1.278 3.641 2.19 1.663 1.841 2.614 3.22 4.644 5.126.58.545 1.715 1.57 2.017 1.254 0 0 1.498.035-4.789-6.407-.769-.788-1.322-1.655-1.056-1.908.483-1.01 2.205-.375 3.708 1.372l3.346 3.82c1.924 2.08 4.304 5.237 6.242 7.706 2.378 3.031 5.224 7.218 5.521 12.703a4.463 4.463 0 0 0 1.718 2.843" fill="#fff"/><path d="M232.497 115.284a30.588 30.588 0 0 0-9.339-7.677c-.671-.343-1.273-.617-1.89-.898a41.317 41.317 0 0 1-2.842-1.387 8.995 8.995 0 0 1-3.464-3.102l-.308-.597 4.401-.193.114.073c.272.173.469.307.638.423.427.308.891.56 1.381.751.077.032.106-.01.106-.011-1.432-1.606-3.813-3.773-6.115-5.87-2.229-2.029-4.533-4.128-6.092-5.82a3.38 3.38 0 0 1-1.029-2.16c.025-.353.201-.678.481-.894.581-.463 1.362-.324 2.088.37 1.169 1.113 2.284 2.025 3.466 2.991.893.73 1.817 1.486 2.766 2.337.26.298.593.524.966.655a.606.606 0 0 0-.062-.087c-1.036-1.062-2.107-1.997-3.142-2.901a44.757 44.757 0 0 1-3.742-3.54l-.141-.151c-1.005-1.08-1.923-2.218-1.827-3.238.037-.4.248-.763.576-.993a1.493 1.493 0 0 1 1.865.39l6.187 6.021a17.918 17.918 0 0 0 2.317 1.933c-.026-.038-.055-.081-.09-.128a190.278 190.278 0 0 0-2.931-3.056c-1.369-1.406-2.664-2.735-4.188-4.486-1.008-1.16-1.205-2.17-.537-2.772 1.286-1.051 3.199 1.06 4.223 2.194.588.65 1.07 1.222 1.539 1.778a36.181 36.181 0 0 0 3.106 3.35c.415.422.876.796 1.375 1.115-.227-.511-1.136-1.952-4.749-5.655-.379-.388-1.259-1.364-1.247-2.04 0-.148.049-.292.139-.409.191-.364.549-.61.957-.656.942-.132 2.272.636 3.436 1.99l3.343 3.817c1.555 1.68 3.431 4.093 5.085 6.222l1.171 1.502c2.456 3.13 5.314 7.429 5.614 12.944.18.987.715 1.874 1.503 2.495l-.43.744a4.824 4.824 0 0 1-1.931-3.192c-.285-5.245-2.905-9.242-5.431-12.461L228.64 93.5c-1.645-2.116-3.508-4.514-5.046-6.176l-3.354-3.828c-1.091-1.269-2.15-1.767-2.674-1.702a.381.381 0 0 0-.324.232l-.019.04c.229.527.569.998.996 1.383 5.507 5.643 5.159 6.442 5.011 6.783a.583.583 0 0 1-.332.316c-.516.353-1.355-.251-2.508-1.333a36.751 36.751 0 0 1-3.173-3.423 69.314 69.314 0 0 0-1.496-1.729c-1.609-1.78-2.633-2.49-3.053-2.145-.295.267.15 1.008.628 1.557 1.508 1.733 2.793 3.053 4.154 4.45.913.937 1.872 1.921 2.978 3.11.25.339.76 1.04.153 1.582-.205.159-.754.584-3.641-2.226l-6.188-6.022c-.246-.24-.61-.42-.757-.313a.504.504 0 0 0-.229.381c-.073.777 1.143 2.081 1.601 2.572l.147.158a43.288 43.288 0 0 0 3.672 3.472c1.047.916 2.131 1.862 3.205 2.962.227.235.346.555.327.881a.748.748 0 0 1-.384.534c-.765.436-1.666-.402-2.006-.718a74.57 74.57 0 0 0-2.779-2.351c-1.142-.933-2.322-1.898-3.515-3.035-.185-.179-.649-.565-.961-.319a.38.38 0 0 0-.159.29c.092.579.376 1.11.805 1.511 1.533 1.664 3.823 3.75 6.039 5.767 2.425 2.208 4.717 4.295 6.162 5.929a.848.848 0 0 1 .069 1.079.93.93 0 0 1-1.138.296 7.072 7.072 0 0 1-1.531-.832 21.988 21.988 0 0 0-.499-.334l-2.707.119a9.28 9.28 0 0 0 2.72 2.147 41.31 41.31 0 0 0 2.788 1.362 44.3 44.3 0 0 1 1.927.914 31.576 31.576 0 0 1 9.63 7.92l-.682.522Z" fill="#000"/><path d="M189.656 117.331a28.338 28.338 0 0 1 7.774-8.765c1.43-1.067 2.552-1.688 4.277-3.035.919-.719 2.261-1.687 2.66-2.909l-3.439.074a9.836 9.836 0 0 1-1.89 1.386c-.44.283-.964-.145-.687-.589 2.225-3.575 7.522-9.635 10.076-13.56.209-.32 1.191-1.938.184-2.493-.694-.383-1.306.406-1.446.593-1.733 2.32-3.461 4.037-5.264 6.303-.145.183-.838 1.163-1.41.954-.453-.166-.087-.738-.087-.738 1.89-2.73 3.917-4.713 5.716-7.503.47-.729 2.251-3.212.81-3.936-.447-.226-.966.2-1.233.564l-5.097 6.97c-.749 1.023-2.293 2.878-2.644 2.692-.33-.208-.182-.584.017-.986 2.24-3.406 3.782-5.387 5.78-8.656.437-.715.898-1.796.204-2.237-1.086-.613-2.564 1.73-3.225 2.767-1.333 2.093-2.041 3.611-3.725 5.829-.481.634-1.429 1.833-1.779 1.572 0 0-1.471.285 3.653-7.115.627-.905 1.028-1.853.724-2.058-.645-.915-2.237-.001-3.428 1.972l-2.662 4.324c-1.55 2.37-3.371 5.88-4.87 8.639-1.84 3.385-3.947 7.988-3.326 13.446a4.467 4.467 0 0 1-1.219 3.089" fill="#fff"/><path fill-rule="evenodd" clip-rule="evenodd" d="m189.276 117.129.76.401a27.98 27.98 0 0 1 7.651-8.622c.604-.45 1.152-.82 1.715-1.201.771-.52 1.569-1.058 2.57-1.84l.207-.161a7.085 7.085 0 0 0 2.596-2.953l.189-.576-4.204.091-.118.107a7.748 7.748 0 0 1-1.415 1.076l-.42.268c-.071.046-.107.008-.091-.001 1.127-1.81 3.108-4.339 5.024-6.785l.008-.01c1.86-2.374 3.784-4.829 5.039-6.758.492-.66.726-1.48.655-2.3a1.239 1.239 0 0 0-.624-.803c-.65-.359-1.396-.092-1.997.712-.967 1.295-1.916 2.38-2.92 3.53-.758.869-1.543 1.766-2.382 2.824-.433.562-.681.71-.798.747a.493.493 0 0 1 .038-.081c.854-1.236 1.754-2.337 2.624-3.401a44.446 44.446 0 0 0 3.097-4.113l.113-.17c.813-1.232 1.529-2.51 1.264-3.5a1.366 1.366 0 0 0-.733-.883 1.487 1.487 0 0 0-1.773.695l-5.097 6.969c-.59.82-1.248 1.588-1.969 2.296l.047-.1c.888-1.35 1.665-2.475 2.405-3.545l.038-.054c1.102-1.596 2.148-3.11 3.344-5.07.803-1.312.827-2.34.049-2.833-1.423-.809-2.956 1.59-3.798 2.909-.452.71-.833 1.354-1.204 1.982a36.132 36.132 0 0 1-2.5 3.818 7.97 7.97 0 0 1-1.171 1.33c.137-.539.79-2.11 3.739-6.369.31-.446 1.015-1.555.889-2.22a.67.67 0 0 0-.204-.38 1.228 1.228 0 0 0-1.053-.487c-.962.033-2.133 1.005-3.053 2.53l-2.657 4.315c-1.259 1.926-2.706 4.617-3.982 6.99l-.905 1.68c-1.901 3.494-4 8.211-3.376 13.699a4.047 4.047 0 0 1-1.067 2.71l.547.662a4.817 4.817 0 0 0 1.373-3.469c-.594-5.219 1.323-9.598 3.276-13.192l.909-1.683c1.267-2.358 2.705-5.032 3.95-6.937l2.664-4.327c.863-1.43 1.824-2.101 2.351-2.12a.388.388 0 0 1 .358.175l.026.036a4.013 4.013 0 0 1-.751 1.529c-4.489 6.482-4.013 7.212-3.81 7.524a.582.582 0 0 0 .381.256c.574.262 1.295-.475 2.25-1.732a36.781 36.781 0 0 0 2.555-3.901l.011-.019c.363-.614.736-1.245 1.198-1.97 1.269-1.99 2.159-2.863 2.613-2.603.356.225.039 1.03-.34 1.65-1.199 1.96-2.246 3.477-3.357 5.083a167.173 167.173 0 0 0-2.441 3.606c-.164.331-.548 1.107.166 1.556.203.109.812.434 3.192-2.818l5.097-6.97c.199-.27.534-.516.693-.433a.503.503 0 0 1 .291.337c.202.754-.782 2.244-1.152 2.805l-.117.178a43.35 43.35 0 0 1-3.04 4.035l-.006.006c-.879 1.076-1.788 2.188-2.669 3.462a1.16 1.16 0 0 0-.168.91.747.747 0 0 0 .468.463c.82.302 1.569-.669 1.891-1.087l.002-.002a76.385 76.385 0 0 1 2.291-2.71l.02-.023c.971-1.111 1.974-2.26 2.961-3.58.192-.256.561-.658.895-.475a.385.385 0 0 1 .205.259 2.625 2.625 0 0 1-.541 1.624c-1.233 1.894-3.142 4.33-4.988 6.686l-.008.01c-2.022 2.581-3.932 5.019-5.085 6.871a.85.85 0 0 0 .112 1.075.936.936 0 0 0 1.172.102l.416-.266c.507-.299.98-.653 1.41-1.055l2.586-.056a8.586 8.586 0 0 1-2.031 1.963l-.21.163a40.923 40.923 0 0 1-2.52 1.806c-.574.387-1.133.765-1.749 1.224a28.514 28.514 0 0 0-7.897 8.909Z" fill="#000"/><path d="M189.911 120.022c-14.63 24.55-24.59 50.31-29.3 80.32a59.156 59.156 0 0 0 4.97 35c3.98 8.28 11.69 14.68 20.18 15.55-.023.206-.016.415.02.62a124.47 124.47 0 0 1 2.23 20.3c.09 8.47-.84 19.34-2.93 27.44-1.6 6.22-5.39 13.33-9.04 16.91 2.51-13.42-.72-27.43-5.24-34.92-5.83-9.76-14.71-18.99-20.81-30.33-6.46-12.01-8.65-19.11-8.75-29.75a120.816 120.816 0 0 1 3.46-28.46c3.26-13.24 15.56-49.76 37.19-77.68a2.304 2.304 0 0 1 2.82-.67l4.23 2.44a2.274 2.274 0 0 1 .97 3.23Z" fill="#fff"/><path fill-rule="evenodd" clip-rule="evenodd" d="m175.55 316.069-.292 1.56 1.134-1.112c3.691-3.62 7.548-10.829 9.173-17.142 2.294-8.892 3.026-20.072 2.946-27.57a116.505 116.505 0 0 0-1.988-18.879l-.251-1.509a1.665 1.665 0 0 1-.013-.478l.048-.495-.495-.051c-7.95-.814-15.713-6.808-19.781-15.269a58.642 58.642 0 0 1-4.926-34.706c4.518-28.788 13.808-54.254 29.235-80.14a2.79 2.79 0 0 0 .279-2.238 2.75 2.75 0 0 0-1.428-1.683l-4.264-2.457a2.81 2.81 0 0 0-3.432.814c-20.996 27.103-33.566 62.786-37.279 77.867a120.71 120.71 0 0 0-3.475 28.584c.1 10.61 2.157 17.615 8.81 29.982a138.493 138.493 0 0 0 11.854 17.56 147.615 147.615 0 0 1 8.968 12.792c4.28 7.092 7.727 20.935 5.177 34.57Zm6.737-200.744a1.82 1.82 0 0 1 1.439-.705 1.7 1.7 0 0 1 .735.164l4.266 2.458c.452.212.793.608.935 1.087a1.79 1.79 0 0 1-.18 1.434l-.001.002c-15.495 26.001-24.825 51.58-29.364 80.498a59.628 59.628 0 0 0 5.014 35.294c4.136 8.607 11.996 14.753 20.124 15.779.006.086.017.171.033.256l.249 1.498a115.653 115.653 0 0 1 1.974 18.726c.08 7.433-.644 18.511-2.914 27.31a42.186 42.186 0 0 1-7.784 15.47c2.036-13.347-1.382-26.652-5.583-33.612a148.625 148.625 0 0 0-9.026-12.879 137.808 137.808 0 0 1-11.772-17.431c-6.563-12.201-8.593-19.097-8.691-29.518a119.724 119.724 0 0 1 3.446-28.336c3.695-15.01 16.205-50.523 37.1-77.495Z" fill="#000"/><path d="M277.312 234.486c-6.81 14.74-14.91 23.23-26.03 41.66-8.7 14.28-7.84 30.91-4.44 45.91.54 2.37 1.62 6.29 2.44 9.18a8.215 8.215 0 0 0-1.19-.84c-7.83-4.61-14.37-18.64-16.53-31.59-2.42-14.48-3.14-30.19-.24-44.63.031-.162.048-.326.05-.49a16.876 16.876 0 0 0 1.86-.22c4.47-.8 9.1-3.87 12.28-7.11 16.83-17.17 26.19-52.38 21.42-75.95-4.63-22.83-17.87-38.2-33.9-53.15a1.993 1.993 0 0 1-.04-2.88l3.77-4.09a2 2 0 0 1 2.71-.09 146.093 146.093 0 0 1 32.94 39.44 129.423 129.423 0 0 1 10.88 25.53c6.42 22.32 2.82 40.28-5.98 59.32Z" fill="#fff"/><path fill-rule="evenodd" clip-rule="evenodd" d="m248.955 331.616 1.264 1.092-.456-1.607c-.659-2.32-1.85-6.593-2.434-9.154-4.263-18.809-2.831-33.706 4.38-45.541 4.503-7.463 8.56-13.367 12.14-18.576l.001-.001.001-.002c5.285-7.689 9.849-14.331 13.914-23.13 10.011-21.658 11.807-39.502 6.007-59.668a128.858 128.858 0 0 0-10.93-25.645 146.445 146.445 0 0 0-33.045-39.566 2.517 2.517 0 0 0-3.403.131l-3.751 4.071a2.453 2.453 0 0 0-.747 1.796c.004.686.292 1.34.795 1.807 17.045 15.898 29.306 30.974 33.75 52.883 4.89 24.165-4.858 58.74-21.286 75.501-2.774 2.826-7.385 6.141-12.011 6.968-.597.104-1.2.176-1.805.214l-.468.03v.469a2.06 2.06 0 0 1-.041.391c-2.625 13.078-2.545 28.155.238 44.811 2.028 12.159 8.439 27.034 16.767 31.937a7.66 7.66 0 0 1 1.12.789Zm-17.144-77.342c.008-.04.016-.08.021-.12.513-.045 1.011-.11 1.487-.194 4.126-.739 8.817-3.45 12.55-7.252 16.629-16.967 26.5-51.954 21.552-76.4-4.496-22.17-16.863-37.387-34.047-53.415a1.495 1.495 0 0 1-.015-2.177l3.754-4.072a1.508 1.508 0 0 1 2.033-.067 145.538 145.538 0 0 1 32.835 39.314 129.801 129.801 0 0 1 10.83 25.415c5.727 19.914 3.947 37.551-5.954 58.971v.001c-4.029 8.722-8.571 15.332-13.831 22.984-3.588 5.221-7.654 11.139-12.171 18.625-7.353 12.067-8.824 27.206-4.501 46.282.486 2.137 1.39 5.443 2.061 7.84l-.07-.042c-8.066-4.749-14.301-19.311-16.291-31.242-2.764-16.535-2.846-31.49-.243-44.451Z" fill="#000"/><path d="M259.821 432.7c-2.86 15.29-7.89 32.68-11.07 46.42-10.113 43.711-17.734 99.568-25.914 147.581a2.195 2.195 0 0 1-1.669 1.779c-5.05 1.15-11.869.273-15.195-.287a2.215 2.215 0 0 1-1.85-2.341c1.145-16.225 8.679-129.268 2.278-209.182 0 0-1.48-24.01-6.67-27.86-3.4-2.53-8.15-2.91-18.38 3.42 0 0-49.92 33.29-65.01 43.09-5.49 3.78-4.96 7.7-3 11.98a10.098 10.098 0 0 0 2.03 2.94c17.51 17.56 35.06 27.57 51.87 41.29 1.824 1.477-3.852 10.567-7.065 14.391a2.207 2.207 0 0 1-2.737.538c-19.314-10.344-44.143-24.915-58.708-33.299a175.434 175.434 0 0 1-23.35-15.88 28.368 28.368 0 0 1-9.71-13.34c-3.68-10.6 3.07-20.08 7-24.56 23.35-26.57 72.91-62.67 87.21-77.18a54.433 54.433 0 0 0 13.522-22.259 7.528 7.528 0 0 1 2.195-3.352c3.783-3.425 7.81-10.856 9.483-17.329 2.09-8.1 2.564-19.032 2.474-27.502a123.622 123.622 0 0 0-2.24-20.284 2.222 2.222 0 0 1 2.05-2.576l4.858-.221a2.218 2.218 0 0 1 2.347 1.914c.318 2.345.8 5.845.807 5.879 1.43 9.84 2.124 19.25 3.744 29.32.4 2.53.97 5.33 3.05 6.83a8.341 8.341 0 0 0 7.386.421 12.9 12.9 0 0 0 4.73-4.61c3.91-5.93 4.678-14.763 6.068-21.723.737-3.705 1.903-10.498 2.493-14.253a2.22 2.22 0 0 1 2.739-1.807l4.568 1.074a2.23 2.23 0 0 1 1.63 2.619c-2.905 14.443-2.647 29.983-.224 44.469 2.164 12.947 8.704 26.981 16.529 31.588a8.87 8.87 0 0 1 4.063 4.991c2.993 9.756 6.361 19.343 8.588 31.141a161.983 161.983 0 0 1-.92 66.17Z" fill="#000"/><path d="M193.962 249.947a18.906 18.906 0 0 1-8.2.95 2.224 2.224 0 0 1 2.07-1.96l3.99-.26a2.182 2.182 0 0 1 2.14 1.27ZM231.371 253.687a13.454 13.454 0 0 1-7.769-2 2.235 2.235 0 0 1 2.48-1.04l3.609.91a2.215 2.215 0 0 1 1.68 2.13Z" fill="#000"/><path d="M218.317 177.308c-5.044.448-8.641 5.059-11.185 8.955a38.502 38.502 0 0 0-5.693 13.661 22.472 22.472 0 0 0-.191 11.095c1.365 5.116 5.528 8.538 12.226 9.154 6.852.63 11.649-.171 14.942-4.318 3.84-4.836 4.836-10.539 5.36-15.808a33.041 33.041 0 0 0-1.591-12.782c-1.169-3.476-5.049-10.739-13.868-9.957Z" fill="#fff"/><path fill-rule="evenodd" clip-rule="evenodd" d="M213.428 220.672c1.354.125 2.606.188 3.768.188 5.547 0 9.039-1.453 11.612-4.693 3.887-4.895 4.924-10.616 5.465-16.07a33.47 33.47 0 0 0-1.614-12.99c-.63-1.876-4.292-11.198-14.386-10.296-5.236.465-8.928 5.15-11.56 9.18a38.815 38.815 0 0 0-5.761 13.821 22.838 22.838 0 0 0-.187 11.337c1.474 5.526 5.971 8.907 12.663 9.523Zm-5.877-34.134c2.507-3.841 6.002-8.304 10.81-8.73 9.366-.829 12.762 7.867 13.35 9.618a32.437 32.437 0 0 1 1.568 12.573c-.528 5.301-1.529 10.854-5.254 15.546-2.873 3.618-7.073 4.812-14.505 4.131-6.244-.574-10.431-3.694-11.788-8.785a21.879 21.879 0 0 1 .194-10.852 37.935 37.935 0 0 1 5.625-13.501Z" fill="#000"/><path d="M216.584 211.815a5.107 5.107 0 0 1-2.287-.526.5.5 0 0 1 .448-.895 4.461 4.461 0 0 0 5.317-1.222.498.498 0 0 1 .859.114.499.499 0 0 1-.066.495 5.417 5.417 0 0 1-4.271 2.034ZM214.99 203.762a2.454 2.454 0 0 1-2.37-1.055 2.195 2.195 0 0 1 .113-2.147 3.016 3.016 0 0 1 2.193-1.305 7.993 7.993 0 0 1 2.347.217.5.5 0 1 1-.231.974 6.969 6.969 0 0 0-1.999-.198 2.004 2.004 0 0 0-1.459.835 1.207 1.207 0 0 0-.093 1.133c.257.457.958.559 1.529.546a9.603 9.603 0 0 0 2.184-.224.5.5 0 1 1 .231.972c-.791.177-1.599.261-2.409.252h-.036ZM210.491 195.683a2.808 2.808 0 0 1-2.973-2.399.5.5 0 0 1 .984-.177 1.803 1.803 0 0 0 1.989 1.576c1.319 0 2.112-.47 2.356-1.399a.499.499 0 0 1 .967.255c-.211.8-.923 2.144-3.323 2.144ZM224.164 196.97c-.105 0-.212-.003-.323-.009a3.117 3.117 0 0 1-3.053-2.64.503.503 0 0 1 .674-.546.5.5 0 0 1 .315.389 2.096 2.096 0 0 0 2.119 1.799 2.266 2.266 0 0 0 2.591-1.42.5.5 0 1 1 .963.269 3.08 3.08 0 0 1-3.286 2.158ZM234.786 198.053c.398.601.32 1.398-.188 1.909-.538.439.229 1.198.763.762a2.585 2.585 0 0 0 .357-3.215c-.415-.546-1.352-.009-.932.544Z" fill="#000"/><path d="M248.062 222.831a7.014 7.014 0 0 1-4.02 1.55 13.584 13.584 0 0 1-14.151-10.37l-.16-.03c2.77-4.4 3.59-9.34 4.04-13.94a31.364 31.364 0 0 0-.76-9.79 26.981 26.981 0 0 0-2.51-1.58 2.621 2.621 0 0 1-.96-.62 2.566 2.566 0 0 1-.43-.95c-.58-1.94-1.16-3.883-1.74-5.83a16.883 16.883 0 0 1-.57 4.54 1.766 1.766 0 0 1-2.12 1.25 36.679 36.679 0 0 0-6.51-.95 1.776 1.776 0 0 1-1.66-2.03l.47-3.19c-.82 1.77-3.649 4.84-5.899 4.79-.821-.02-2.191-.16-3.371-.3-.2.3-.39.59-.58.88a38.517 38.517 0 0 0-5.69 13.66 23.981 23.981 0 0 0-.58 9.25c-4.43 4.23-13.72 7.93-19.4 5.92-3.18-1.13-4.79-5.39-3.96-8.66 1.94-7.63 13.67-18.76 16.65-21.96 4.89-5.23 12.65-11.61 18.46-14.16 7.3-3.22 14.82-3.26 20.28 1.37a23.434 23.434 0 0 1 5.53 7.85c3.44 7.14 5.54 14.83 7.63 22.47 1 3.65 1.997 7.3 2.99 10.95.92 3.38 1.62 7.55-.979 9.88Z" fill="#000"/><circle cx="221.363" cy="299.265" r="3.593" fill="#fff"/><circle cx="193.262" cy="298.358" r="3.593" fill="#fff"/><path d="M223.291 670.617c-.79 3.76-5.68 4.65-8.64 7.09-3.47 2.85-3.381 4.56-4.09 10.34-.41 3.29-.04 7.43-3.02 8.89-1.97 1.07-7.54 1.01-9.25.68a3.42 3.42 0 0 1-3.16-3.51 6.33 6.33 0 0 1 2.619-5.4c3.351-2.37 3.341-6.05 3.331-9.71a12.856 12.856 0 0 0 9.88-6.84 25.156 25.156 0 0 0 1.51-4.12 6778.94 6778.94 0 0 1 3.1-10.24c.59 2.35 2.86 4.41 4.419 5.9 1.931 1.85 3.861 4.31 3.301 6.92ZM207.711 549.478c-.06.72-.38 2.54-1.57 3.2-.94.51-3.2.79-3.88-2.48-.77-3.67-2.96-9.01-4.18-12.56-.3-.86-1.068-2.603-1.598-3.743 1.67-3.26 1.936-6.515 1.548-10.337a18.339 18.339 0 0 0-2.44-7.4c2.85.48 7.062-.978 9.432.563 4.97 3.199.508 10.817.318 13.897-.37 5.95 2.87 12.9 2.37 18.86Z" fill="#000"/><path d="M209.045 623.109a.616.616 0 0 1-.075-.005c-3.871-.579-3.849-.948-3.829-1.273a.51.51 0 0 1 .494-.472c.1-.001.199.027.285.08 1.047.306 2.117.532 3.198.676a.5.5 0 0 1-.073.994ZM215.217 623.552c-1.22 0-2.446-.05-3.643-.148a.5.5 0 0 1 .082-.997c1.465.12 2.935.164 4.478.136h.009a.5.5 0 0 1 .01 1c-.318.006-.63.009-.936.009ZM218.734 623.414a.5.5 0 0 1-.038-.999 45.886 45.886 0 0 0 3.441-.394.5.5 0 0 1 .15.988 47.263 47.263 0 0 1-3.514.404l-.039.001ZM152.086 502.545a.383.383 0 0 1-.218-.078.508.508 0 0 1-.186-.65.497.497 0 0 1 .218-.224 22.005 22.005 0 0 0 2.16-2.456.5.5 0 0 1 .789.613c-1.835 2.362-2.455 2.795-2.763 2.795ZM155.973 497.825a.499.499 0 0 1-.416-.777 35.488 35.488 0 0 0 2.247-3.887.499.499 0 1 1 .896.444 36.516 36.516 0 0 1-2.311 3.998.498.498 0 0 1-.416.222ZM159.321 491.504a.499.499 0 0 1-.464-.686 30.79 30.79 0 0 0 1.107-3.264.5.5 0 0 1 .963.266 31.518 31.518 0 0 1-1.142 3.371.497.497 0 0 1-.464.313ZM233.318 195.716a1.93 1.93 0 0 1 1.918-.477c.835.22 1.505.841 1.786 1.657.427.964.541 2.037.326 3.069a3.452 3.452 0 0 1-1.763 2.579c-.911.43-2.905.15-3.138-.838l.871-5.99Z" fill="#fff"/><path d="M233.7 196.099a1.767 1.767 0 0 1 2.696.74c.434.814.6 1.744.476 2.658a2.977 2.977 0 0 1-1.678 2.622c-.601.197-1.951.133-2.226-.554-.256-.637-1.299-.359-1.04.286a2.79 2.79 0 0 0 3.125 1.391 3.692 3.692 0 0 0 2.825-3.203 5.228 5.228 0 0 0-1.136-4.549 2.756 2.756 0 0 0-3.805-.153c-.517.465.247 1.225.763.762Z" fill="#000"/><path d="M340.944 399.068a41.475 41.475 0 0 0 10.346-21.205c.588-3.564.344-9.192-3.92-9.636a5.42 5.42 0 0 0-5.597 3.198c-2.245 4.229.057 10.572 3.543 13.853 3.487 3.282 8.501 4.534 13.288 4.403 14.594-.397 26.171-11.874 36.107-22.572" stroke="#000" stroke-linecap="round"/><path d="M23.654 329.82c4.559-7.377 10.685-14.062 18.608-17.854 7.955-3.807 18.489-6.024 26.565-1.397 2.056 1.178 3.604 2.649 3.553 5.161-.051 2.542-1.531 3.979-3.677 5.018a18.702 18.702 0 0 1-11.588 1.462 18.9 18.9 0 0 1-15.058-15.375 23.21 23.21 0 0 1 10.393-22.884c.542-.343.041-1.209-.505-.863a24.307 24.307 0 0 0-11.105 21.924 19.934 19.934 0 0 0 14.767 17.879c5.763 1.512 18.66.541 17.74-8.026-.448-4.175-5.145-6.128-8.71-7.084a29.343 29.343 0 0 0-14.923.435c-11.73 3.065-20.636 10.926-26.924 21.099-.339.549.526 1.051.864.504v.001ZM338.427 280.113l4.173-6.778c.338-.55-.527-1.052-.864-.505l-4.173 6.778c-.338.55.527 1.052.864.505ZM115.65 7.52 119.822.74c.339-.55-.526-1.052-.863-.505l-4.173 6.778c-.338.55.526 1.053.864.505ZM421.743 296.695l4.299 6.152c.366.524 1.234.025.864-.505l-4.299-6.151c-.366-.524-1.234-.025-.864.504ZM271.492 16.992l4.299 6.152c.366.524 1.234.024.864-.505l-4.299-6.151c-.366-.524-1.234-.025-.864.504ZM364.391 176.947l7.582-7.574a.5.5 0 0 0-.707-.707l-7.582 7.574a.501.501 0 0 0 .707.707ZM444.522 220.422l5.706 6.842c.413.495 1.117-.216.708-.707l-5.707-6.843c-.412-.494-1.116.216-.707.708ZM447.886 421.742l2.428 11.377c.135.629 1.099.363.965-.265l-2.429-11.378c-.134-.629-1.098-.362-.964.266ZM392.577 532.087l4.977-6.016c.407-.492-.297-1.204-.707-.707l-4.977 6.015c-.408.493.296 1.204.707.708ZM294.809 477.128v-10.411a.501.501 0 0 0-1 0v10.411a.5.5 0 0 0 1 0ZM15.8 512.051a28.12 28.12 0 0 0 6.397-5.309c.428-.478-.277-1.188-.707-.707a27.212 27.212 0 0 1-6.195 5.153.5.5 0 0 0 .504.863ZM20.125 395.522a76.279 76.279 0 0 0 7.607 7.822c.48.426 1.189-.278.707-.708a76.26 76.26 0 0 1-7.607-7.821c-.415-.493-1.12.218-.707.707ZM64.869 207.811l3.816 8.463c.264.586 1.126.078.864-.504l-3.817-8.463c-.264-.586-1.126-.078-.863.504ZM14.22 234.604l4.697-8.217a.5.5 0 0 0-.863-.505l-4.698 8.217a.5.5 0 0 0 .864.505ZM.448 117.152l8.889 10.259c.422.488 1.127-.222.707-.707l-8.889-10.259c-.422-.487-1.127.223-.707.707Z" fill="#000"/></svg>