<svg width="550" height="580" fill="none" xmlns="http://www.w3.org/2000/svg"><path opacity=".01" fill="#fff" d="M0 0h550v580H0z"/><path fill-rule="evenodd" clip-rule="evenodd" d="m371.559 164.987 80.356 407.405a3.498 3.498 0 0 1-2.756 4.111 3.5 3.5 0 0 1-4.111-2.756L367.41 180.12l-60.311 248.079 25.45 144.262a3.505 3.505 0 0 1-.579 2.616 3.507 3.507 0 0 1-2.872 1.493 3.5 3.5 0 0 1-3.442-2.892L302.98 445.141l-31.302 128.756a3.5 3.5 0 0 1-6.802-1.655l18.849-77.531-113.043-5.57-22.791 84.837a3.5 3.5 0 1 1-6.76-1.817L165.351 482l.007-.131.028.002 89.442-332.95a3.5 3.5 0 0 1 6.761 1.816l-2.076 7.727.216 1.224 104.195 5.134 2.6-10.694a3.5 3.5 0 1 1 6.803 1.653l-2.042 8.401c.124.256.216.527.274.805Zm-27.252 80.529 17.934-73.769-101.264-4.989 13.263 75.18 70.067 3.578Zm-40.958 161.43-13.332-75.573 33.05 1.51-18.026 74.146-1.692-.083Zm-36.282-165.374-11.844-67.137-17.631 65.632 29.475 1.505Zm1.248 7.073 13.29 75.336-65.748-3.004 19.878-73.996 32.58 1.664Zm27.864 157.947-13.327-75.547-68.855-3.146-19.79 73.67 101.972 5.023Zm-7.408-82.283-13.284-75.298 67.137 3.429-17.872 73.513-35.981-1.644ZM172.54 482.223l112.869 5.562 14.542-59.816-2.524-14.306-105.079-5.177-19.808 73.737Z" fill="#000"/><path d="M272.058 467.614c.76 1.684.064 3.277-.099 4.888a5.587 5.587 0 0 0 1.462 4.696c1.686 1.622 4.29 1.918 6.557 2.496 2.807.716 6.29 1.209 9.096 1.924 1.1.271 2.034.992 2.575 1.986.518 1.383.442 3.783-1.204 3.963-1.139.125-7.245.092-9.264-.022-5.1-.132-7.223-.073-12.324-.205a4.555 4.555 0 0 1-2.566-.781 8.14 8.14 0 0 1-1.172-2.293c-.722-1.444-2.707-2.526-3.402-.616-.628 2.301-1.349 2.791-2.734 2.872a8.893 8.893 0 0 1-4.224-.663c-3.002-3.073.897-14.976 5.39-19.679l11.909 1.434ZM215.509 517.867c.731 1.697.514 3.8.435 5.417-.085 1.738.182 6.402 9.289 10.3 2.663 1.14 5.859 2.588 8.434 3.915a4.025 4.025 0 0 1 2.063 2.513c.195 1.463-.418 3.785-2.061 3.592a80.438 80.438 0 0 1-8.456-1.312c-4.941-1.273-7.02-1.831-11.961-3.104a7.845 7.845 0 0 1-2.96-1.35c-.394-.366-.452-1.833-.606-2.774-.171-1.48-.408-1.89-1.519-2.078-.939-.16-1.506.532-1.869 1.966-.507 2.33-1.202 2.858-2.58 3.011a8.906 8.906 0 0 1-4.254-.441c-3.416-1.598 1.477-18.61 4.522-20.764l11.523 1.109Z" fill="#000"/><path d="M336.055 172.617a46.95 46.95 0 0 0 12.66-1.647c4.651-1.408 8.035-3.3 8.026-6.258-.475-1.796-2.459-2.847-5.273-3.33a4.176 4.176 0 0 1-1.667-.609 9.548 9.548 0 0 1-.849-.772c-.577-.509-1.785-1.475-2.818-1.28-7.113.57-11.585 7.318-11.576 8.011l1.497 5.885Z" fill="#fff"/><path d="M336.055 173.121a35.233 35.233 0 0 0 8.607-.722c3.486-.591 7.451-1.519 10.311-3.724 1.518-1.169 2.993-3.234 1.795-5.119a5.33 5.33 0 0 0-2.459-1.892 24.73 24.73 0 0 0-2.708-.761 7.91 7.91 0 0 1-2.504-1.426c-4.496-3.37-10.857 1.281-13.741 4.976-.729.934-1.323 1.652-1.18 2.809a46.211 46.211 0 0 0 1.397 5.492.5.5 0 0 0 .964-.266l-.981-3.856c-.316-1.244-.674-1.701-.128-2.564 2.283-3.603 9.026-9.174 13.17-5.71 1.826 1.526 3.882 1.313 5.877 2.486 4.424 2.603-1.024 5.864-3.561 6.853a35.156 35.156 0 0 1-14.859 2.424c-.641-.054-.638.946 0 1ZM196.659 262.727c10.033 80.08 15.027 171.452 6.617 247.752-.295 2.082-.929 6.798 2.699 7.379a38.35 38.35 0 0 0 7.12.726c3.652.014 4.333-3.574 5.074-5.757 5.02-18.179 26.006-145.109 26.62-214.115l-48.13-35.985Z" fill="#000"/><path d="M274.29 54.136a47.145 47.145 0 0 0-5.251-15.336c-4.964-9.376-10.909-9.658-14.774-8.743-4.546 1.076-8.492 5.332-9.831 15.827-1.333 10.447-2.181 18.38-3.703 31.815-.076.666-.467 2.38-.632 3.03-2.861 11.287-17.134 15.19-26.07 22.879-11.239 9.669-22.584 28.221-27.342 42.262-5.669 16.731-9.845 34.182-5.003 47.417 3.856 9.569 12.101 12.048 27.764 13.752 11.304 1.23 31.174 1.441 40.999-3.917a28.875 28.875 0 0 0 13.389-15.703c1.884-5.018 1.88-9.275 2.204-14.624.98-16.207-7.548-41.289-2.778-48.991.702-1.299 2.321-2.183 5.24-2.02 35.988 2.008 48.356 2.132 57.37 1.963 5.239-.098 13.693-.944 17.316-6.499 3.109-4.767 1.038-12.455-3.197-18.978-7.711-11.874-35.965-36.189-48.034-44.134 0 0-3.159-2.234-5.179-.003-2.636 2.91-.965 4.437-.965 4.437 17.779 16.685 35.64 35.268 39.44 40.875 5.762 8.503-5.407 7.794-13.625 6.486-14.723-2.703-22.704-4.457-37.809-7.328-6.694-1.272-22.11-4.617-24.684-12.138-.745-2.18-.189-7.56 2.417-9.435 3.453-2.484 11.528.147 16.363-1.647 5.744-2.131 6.194-7.877 6.679-12.983.057-.603.097-1.215.118-1.837" fill="#fff"/><path d="M243.106 54.327c-1.586-.003-2.402-1.344-2.828-2.865a22.145 22.145 0 0 1-.827-4.625 30.181 30.181 0 0 1 1.45-10.96 17.164 17.164 0 0 1 25.744-8.913 10.033 10.033 0 0 1 3.78 4.115 5.53 5.53 0 0 1-.345 5.398 6.183 6.183 0 0 1-5.01 2.211 24.952 24.952 0 0 1-5.591-.932 17.134 17.134 0 0 0-7.603-.32 7.741 7.741 0 0 0-5.681 4.667c-.706 2.066-.233 4.32-.117 6.5.116 2.18.967 5.73-2.972 5.724Z" fill="#000"/><path d="M274.29 54.133c.128 1.138 1.37 2.019 2.488 2.485.811.268 1.602.59 2.369.964 1.247.843.727 2.37-.688 2.952a7.492 7.492 0 0 1-3.747.025" fill="#fff"/><path fill-rule="evenodd" clip-rule="evenodd" d="M292.246 53.724c12.768 8.406 40.575 32.583 48.164 44.27 3.843 5.917 6.7 14.153 3.197 19.523-2.801 4.294-8.764 6.557-17.724 6.726-8.041.151-19.768.136-57.408-1.964-2.424-.134-4.078.473-4.773 1.758-2.615 4.225-1.055 14.165.597 24.688l.001.005c1.312 8.357 2.668 16.999 2.239 24.09-.041.678-.077 1.338-.112 1.985v.001c-.242 4.471-.451 8.332-2.123 12.784a29.32 29.32 0 0 1-13.617 15.966c-6.628 3.615-17.602 4.695-27.369 4.695-4.65.004-9.298-.236-13.924-.719-15.948-1.736-24.232-4.282-28.173-14.062-5.151-14.078-.038-32.921 4.992-47.765 5.134-15.151 16.952-33.414 27.49-42.48a73.685 73.685 0 0 1 10.034-6.812c7.204-4.34 14.009-8.44 15.877-15.811.18-.71.551-2.354.62-2.963l.907-8.05c1.018-9.05 1.752-15.588 2.797-23.773 1.208-9.465 4.644-14.932 10.212-16.25 6.232-1.475 11.39 1.551 15.331 8.996a47.628 47.628 0 0 1 5.288 15.404c.001.005.004.01.006.014.003.005.006.01.007.017.286 1.346 1.604 1.834 2.888 2.309 1.357.502 2.674.989 2.692 2.459.032 2.617-3.206 2.62-5.187 2.371l-.007.152c-.02.388-.04.776-.076 1.155l-.024.258c-.487 5.129-1.038 10.942-6.979 13.146-2.346.87-5.354.744-8.263.622l-.026-.001c-3.218-.134-6.256-.26-7.956.964-2.4 1.727-2.9 6.924-2.235 8.866 1.2 3.51 6.391 8.406 24.303 11.81a1917.042 1917.042 0 0 1 16.753 3.271c6.538 1.298 12.713 2.524 21.053 4.056 10.296 1.637 13.469.389 14.32-.947.652-1.026.249-2.63-1.199-4.766-3.883-5.73-21.911-24.41-39.368-40.791-.079-.072-2-1.896.936-5.138 1.831-2.025 4.621-.931 5.839-.069Zm33.617 69.519c8.609-.162 14.298-2.273 16.906-6.272 3.241-4.969.473-12.779-3.197-18.432-7.528-11.595-35.173-35.618-47.89-43.99-.127-.088-2.837-1.957-4.534-.085-2.238 2.472-1.044 3.687-.992 3.738 17.5 16.422 35.594 35.18 39.511 40.959 1.692 2.497 2.1 4.47 1.215 5.863-1.491 2.345-6.509 2.801-15.332 1.396-8.36-1.534-14.538-2.761-21.079-4.061l-.041-.008c-5.003-.993-10.18-2.021-16.704-3.261-14.76-2.804-23.192-7-25.064-12.467-.784-2.293-.241-7.96 2.598-10.003 1.981-1.425 5.188-1.292 8.585-1.151h.025c2.807.119 5.715.24 7.871-.56 5.353-1.986 5.85-7.23 6.331-12.302l.025-.26c.056-.592.094-1.194.115-1.806h.01a.544.544 0 0 1 .625-.474l.169.028c1.209.204 2.996.506 3.909-.456 1.185-1.25-.581-1.904-1.537-2.253-1.529-.558-3.22-1.376-3.589-3.118a.447.447 0 0 1-.001-.064h-.002a46.61 46.61 0 0 0-5.199-15.175c-3.701-6.99-8.485-9.845-14.216-8.49-5.122 1.212-8.302 6.395-9.451 15.404-1.044 8.177-1.778 14.713-2.795 23.759l-.907 8.049c-.08.709-.488 2.477-.644 3.096-1.969 7.77-9.271 12.169-16.331 16.422a73.082 73.082 0 0 0-9.898 6.713c-10.42 8.965-22.111 27.04-27.195 42.044-4.977 14.689-10.044 33.315-5.006 47.085 3.745 9.293 11.804 11.735 27.349 13.427 10.412 1.132 30.705 1.594 40.705-3.86a28.338 28.338 0 0 0 13.159-15.439c1.619-4.309 1.824-8.099 2.061-12.488.036-.649.072-1.311.113-1.991.422-6.985-.926-15.574-2.23-23.88l-.001-.004c-1.681-10.711-3.268-20.826-.473-25.34.608-1.125 2.101-2.456 5.694-2.255 37.602 2.098 49.31 2.114 57.332 1.962Z" fill="#000"/><path d="M264.058 49.914a6.497 6.497 0 0 1 5.107-2.343.75.75 0 0 0 0-1.5 8.08 8.08 0 0 0-6.403 3.086c-.588.765.715 1.512 1.296.757Z" fill="#000"/><circle cx="268.492" cy="51.904" r=".975" fill="#000"/><path d="M285.259 57.161c-3.002-2.608-6.025-6.476-8.634-8.57a18.082 18.082 0 0 0-6.824-3.9 21.61 21.61 0 0 0-5.791-.212c-2.668.065-5.061.001-5.761-.754-.434-.47-.688-1.777.893-2.388 4.545-1.774 5.671-2.457 10.406-2.715 4.095-.223 6.755.611 10.565 2.005 4.356 1.594 8.695 5.868 11.038 12a4.515 4.515 0 0 0-4.149 1.279 5.764 5.764 0 0 0-1.743 3.255Z" fill="#fff"/><path d="M285.613 56.81c-4.217-3.773-7.555-8.619-12.621-11.37a13.261 13.261 0 0 0-6.912-1.53c-1.53.034-3.062.144-4.594.072a4.537 4.537 0 0 1-2.291-.326c-1.37-.998-.065-1.828 1.98-2.586 5.387-1.996 10.77-2.605 16.319-.828a20.382 20.382 0 0 1 13.175 12.52l.615-.614a5.717 5.717 0 0 0-6.524 5.016c-.051.641.949.638 1 0a4.729 4.729 0 0 1 5.258-4.052c.332.069.769-.232.615-.615-2.485-6.192-6.717-10.792-13.073-12.952-6.526-2.216-12.464-1.498-18.737.992-1.28.508-3.136 1.496-2.176 3.194 1.028 1.818 4.696 1.29 6.363 1.25a19.184 19.184 0 0 1 6.443.43 18.196 18.196 0 0 1 5.819 3.536c3.129 2.586 5.611 5.865 8.634 8.57.478.428 1.188-.277.707-.707Z" fill="#000"/><path d="M237.535 122.891c4.271 15.006 9.88 35.973 14.328 39.451 2.714 2.123 7.638 3.374 11.512 3.727 29.874 2.726 45.877 1.85 72.259-.477l.042-.006c.172-.032 1.399-.14 2.05 2.985.887 4.257-1.482 4.791-1.482 4.791-25.541 7.662-51.026 9.566-77.893 8.204-7.271-.369-16.289-2.136-20.774-5.789-3.136-2.554-7.106-9.304-8.854-12.26-8.311-14.058-10.702-20.87-16.902-35.978" fill="#fff"/><path d="M273.908 182.473c-5.054 0-10.239-.136-15.583-.407-7.124-.362-16.398-2.102-21.064-5.901-3.167-2.58-7.042-9.135-8.904-12.284l-.064-.109c-7.268-12.293-10.074-19.193-14.724-30.625-.688-1.692-1.418-3.488-2.21-5.418a.5.5 0 1 1 .925-.38c.793 1.932 1.523 3.728 2.212 5.421 4.631 11.389 7.427 18.264 14.657 30.493l.065.108c1.689 2.859 5.646 9.552 8.675 12.018 4.478 3.648 13.517 5.325 20.483 5.678 29.441 1.493 54.139-1.108 77.724-8.184.104-.027 1.902-.537 1.136-4.21-.468-2.238-1.229-2.634-1.471-2.595-26.901 2.377-42.779 3.195-72.436.49-3.59-.328-8.828-1.527-11.774-3.832-4.204-3.287-9.088-20.568-13.398-35.815l-1.103-3.894a.5.5 0 0 1 .962-.273l1.103 3.895c4.057 14.352 9.106 32.214 13.052 35.299 2.775 2.171 7.794 3.308 11.249 3.623 29.577 2.7 45.419 1.884 72.171-.477.436-.079 1.905-.072 2.624 3.375.977 4.685-1.744 5.354-1.861 5.381-19.386 5.817-39.542 8.623-62.446 8.623ZM193.527 157.597l3.482 2.907c.491.409 1.202-.295.707-.708l-3.482-2.907c-.491-.409-1.202.295-.707.708ZM252.779 117.376l-4.144 1.847c-.586.262-.078 1.124.505.864l4.143-1.847c.587-.262.079-1.124-.504-.864Z" fill="#000"/><path d="m266.21 145.439-4.143 1.847c-.587.261-.079 1.123.505.863l4.143-1.847c.587-.261.078-1.123-.505-.863ZM286.79 173.184l3.081 3.329c.438.474 1.144-.235.707-.707l-3.081-3.329c-.438-.474-1.144.235-.707.707ZM229.523 109.175l-2.852-3.528c-.404-.5-1.108.211-.707.707l2.852 3.528c.404.501 1.108-.211.707-.707ZM280.423 101.502l-1.55-4.263c-.218-.6-1.185-.341-.964.266l1.55 4.263c.218.6 1.185.341.964-.266ZM299.866 116.119l4.129-1.878c.585-.266.077-1.128-.505-.863l-4.129 1.878c-.585.266-.077 1.128.505.863ZM337.044 108.021l.577-4.499c.081-.636-.92-.631-1 0l-.577 4.499c-.082.637.919.631 1 0ZM323.082 81.353l2.157-3.99c.306-.567-.558-1.072-.864-.505l-2.156 3.99c-.306.567.557 1.072.863.505ZM329.299 121.622l3.179 3.236c.452.46 1.159-.248.707-.707l-3.179-3.236c-.451-.46-1.158.247-.707.707ZM197.359 189.55l-3.979 2.179c-.565.309-.061 1.173.505.863l3.978-2.178c.565-.309.061-1.173-.504-.864ZM213.371 171.371l4.079-1.983c.579-.282.072-1.144-.505-.864l-4.079 1.984c-.579.281-.072 1.144.505.863ZM235.221 193.401l3.305 3.107c.468.441 1.177-.265.707-.707l-3.305-3.107c-.469-.441-1.177.265-.707.707ZM233.31 153.013l4.529-.254c.639-.036.644-1.036 0-1l-4.529.254c-.64.036-.644 1.036 0 1ZM257.917 179.764l-2.858 3.523c-.402.496.302 1.207.708.707l2.857-3.523c.402-.495-.301-1.207-.707-.707ZM315.819 175.629l-1.383 4.32c-.196.614.769.877.965.266l1.383-4.32c.196-.615-.769-.878-.965-.266ZM191.626 127.167l3.305 3.107c.469.441 1.177-.265.707-.707l-3.305-3.107c-.468-.441-1.177.265-.707.707ZM218.204 195.979l-1.049-3.948a.5.5 0 0 0-.964.265l1.049 3.949a.5.5 0 0 0 .964-.266ZM177.914 178.203l4.084.085a.5.5 0 0 0 0-1l-4.084-.085a.5.5 0 0 0 0 1ZM265.46 66.683c.684 1.426 2.004 2.773 3.704 2.622.636-.056.642-1.057 0-1-1.361.121-2.302-1.004-2.84-2.127-.278-.58-1.141-.073-.864.505Z" fill="#000"/><path d="M247.64 49.24c-.609-1.38-2.557-1.667-3.877-.934-1.48.823-2.086 2.221-1.954 4.173a4.945 4.945 0 0 0 2.481 3.828 3.728 3.728 0 0 0 4.463-.413l-1.113-6.654Z" fill="#fff"/><path d="M248.072 48.99a3.27 3.27 0 0 0-4.1-1.325 4.312 4.312 0 0 0-2.667 3.888c-.274 4.01 4.36 7.712 7.801 4.698.485-.425-.225-1.13-.707-.708-2.608 2.285-6.115-.598-6.108-3.537a3.56 3.56 0 0 1 1.373-3.047 2.404 2.404 0 0 1 3.544.537c.313.562 1.177.058.864-.505ZM249.289 40.563a.5.5 0 0 0 0-1 .5.5 0 0 0 0 1ZM252.508 40.023a.5.5 0 0 0 0-1 .5.5 0 0 0 0 1ZM250.711 43.422a.5.5 0 0 0 0-1 .5.5 0 0 0 0 1ZM247.479 43.75a.5.5 0 0 0 0-1 .5.5 0 0 0 0 1Z" fill="#000"/><path d="M245.373 49.645a2.398 2.398 0 0 0-1.562 3.479.5.5 0 0 0 .864-.505 1.39 1.39 0 0 1 .964-2.01c.629-.132.363-1.096-.266-.964Z" fill="#000"/><path d="M245.442 52.336c.439.437.582 1.09.367 1.67-.23.602.736.862.964.266a2.537 2.537 0 0 0-.826-2.8c-.529-.368-1.03.498-.505.864Z" fill="#000"/><path d="M255.201 91.11c.432-1.62.6-3.3.497-4.975a7.86 7.86 0 0 0-1.113-3.592c-1.858-2.691-5.819-2.152-7.008-2.313-3.522-.475-6.661-1.11-9.311-2.66-1.153-.946-2.873-.506-3.092.368a18.406 18.406 0 0 1-2.499 6.338c-.871 1.335-1.735 2.606-1.483 4.18.319 1.995 3.063 3.12 5.052 3.478 3.516.636 6.324 1.115 9.882 1.452 3.166.3 8.332 1.004 9.075-2.276Z" fill="#fff"/><path d="M255.683 91.24c.621-2.895 1.118-6.473-.745-9.054-1.611-2.233-4.268-2.26-6.749-2.423a27.747 27.747 0 0 1-6.231-1.163c-1.631-.501-3.17-1.825-4.825-2.035-3.142-.399-3.013 3.92-4 5.913-1.102 2.227-3.621 4.751-1.899 7.33 1.724 2.584 5.796 2.795 8.502 3.237a54.88 54.88 0 0 0 10.973 1.103c2.159-.093 4.266-.665 4.974-2.909.194-.615-.771-.878-.965-.265-.808 2.562-4.244 2.261-6.387 2.11-2.788-.197-5.572-.553-8.33-1.004-2.299-.375-5.519-.504-7.318-2.205-2.519-2.381.765-5.5 1.735-7.833a20.28 20.28 0 0 1 1.009-3.086c1.398-2.143 3.337-.475 4.783.095a27.195 27.195 0 0 0 7.367 1.675c1.84.168 3.782-.065 5.427.987 2.962 1.894 2.332 6.384 1.714 9.26-.134.628.829.896.965.266Z" fill="#000"/><path d="M249.031 82.603a18.744 18.744 0 0 0 1.125 8.752c.225.597 1.192.338.965-.266a18.132 18.132 0 0 1-1.09-8.486c.066-.64-.934-.635-1 0ZM243.767 82.057c-.48 2.835-.673 5.725-1.326 8.529-.146.626.818.893.964.266.653-2.804.846-5.695 1.326-8.53.107-.629-.857-.9-.964-.265Z" fill="#000"/><path d="M283.678 58.615c.543-2.814 3.911-5.981 7.523-7.351a2.89 2.89 0 0 1 1.596-.217c1.616.337 3.512 3.136 3.625 3.358.353.53.253 1.24-.231 1.652-.426.402-5.152 3.917-7.154 5.798a5.604 5.604 0 0 1-1.458.915c-1.566.429-4.321-1.983-3.901-4.155Z" fill="#fff"/><path fill-rule="evenodd" clip-rule="evenodd" d="M286.796 53.278c1.479-1.224 3.939-3.017 6.001-2.732 2.661.368 4.893 3.73 3.832 5.518-.524.884-1.516 1.586-2.425 2.23-.316.224-.623.442-.896.657-.602.474-1.187.986-1.772 1.498-.827.725-1.656 1.45-2.538 2.073-2.717 1.918-6.021-.84-5.82-3.908a.442.442 0 0 1 .013-.051c.002-.012.002-.024.002-.036 0-.014 0-.03.003-.046.329-2.41 1.934-3.825 3.6-5.203Zm5.628 5.263c.947-.646 1.894-1.292 2.708-2.077 2.26-2.178-1.145-5.672-3.798-4.72-2.832 1.018-7.156 4.858-7.156 6.945-.002 2.102 1.914 4.273 3.91 3.249a14.34 14.34 0 0 0 2.257-1.881c.656-.545 1.367-1.03 2.079-1.516Z" fill="#000"/><path d="M335.982 163.105a13.798 13.798 0 0 1 3.631 9.872 2.886 2.886 0 0 1-.455 1.545c-.968 1.337-4.297 1.923-4.547 1.935a1.255 1.255 0 0 1-1.412-.887c-.193-.553-1.468-6.303-2.366-8.899a5.328 5.328 0 0 1-.448-1.806c.443-1.526 4.349-2.929 5.597-1.76Z" fill="#fff"/><path fill-rule="evenodd" clip-rule="evenodd" d="M336.335 162.75c1.954 1.604 2.814 4.002 3.387 6.368.406 1.677.929 4.244-.21 5.756-1.216 1.614-5.696 3.274-6.796.827a31.25 31.25 0 0 1-1.232-4.931c-.151-.586-.395-1.24-.647-1.916-.455-1.224-.938-2.52-.942-3.609-.011-2.513 4.387-3.774 6.26-2.617l.007.004.033.018c.014.007.027.013.039.021.007.005.011.01.016.016a.071.071 0 0 0 .012.013.52.52 0 0 0 .03.02c.014.009.028.017.043.03Zm-1.448 13.158a6.465 6.465 0 0 0 3.289-1.164c1.51-1.721.887-4.626.244-6.557-.579-1.739-1.358-3.638-2.746-4.677-1.1-.676-3.8-.165-4.508 1.019-.416.697-.019 1.738.303 2.583.093.244.179.472.238.67.497 1.668.909 3.361 1.321 5.052l.327 1.335.05.208c.203.85.342 1.428 1.482 1.531Z" fill="#000"/><path d="M306.101 325.437c0 13.17-4.13 32.839-6.7 45.049a880.833 880.833 0 0 1-25.73 95.32c-1.41 3.6-4.55 3.271-8.08 2.591-3.52-.69-6.58-1.76-6.33-4.88 1.19-14.42 9.3-70.64 10-103.13.27-12.33-.85-23.74-2.6-29.91-3.7-13.22-21.79-30.58-42.22-44.9-15.01-10.53-32.39-24.62-40.4-39.05-8.12-14.59-6.89-36.73 1.16-47.55 4.66 5.01 12.29 6.76 24.25 8.06 11.3 1.23 31.17 1.44 41-3.92 14.66 26.47 27 46.63 45.36 85.92 4.18 8.939 10.29 24.239 10.29 36.4Z" fill="#000"/><path d="M214.983 210.803c-.117 8.729.252 17.752 3.928 25.826 3.35 7.357 9.041 13.293 14.892 18.73 13.5 12.548 27.378 24.649 37.987 39.881a101.331 101.331 0 0 1 11.368 20.04 66.194 66.194 0 0 1 4.622 24.671c-.003 10.111-1.853 20.118-3.561 30.049-1.643 9.549-3.39 19.081-5.182 28.603-3.968 21.085-8.178 42.124-12.001 63.236-.114.629.849.899.964.266 3.425-18.914 7.163-37.769 10.755-56.651a2678.037 2678.037 0 0 0 5.289-28.66c1.675-9.474 3.519-18.986 4.353-28.579a68.985 68.985 0 0 0-10.613-45.67c-9.219-15.141-21.393-27.87-34.39-39.805-7.161-6.575-15.018-12.833-20.468-20.993-6.193-9.272-7.089-20.085-6.943-30.944a.501.501 0 0 0-1 0Z" fill="#fff"/><path d="M238.539 210.66c.616 7.557 6.079 13.161 8.369 20.142 2.968 9.046-3.167 18.85-11.154 23.025-.571.299-.066 1.162.504.864 7.12-3.722 13.377-12.286 12.407-20.628-.994-8.543-8.422-14.768-9.126-23.403-.052-.637-1.052-.643-1 0Z" fill="#fff"/><path d="M238.308 81.056a18.42 18.42 0 0 1-2.865 8.067c-.349.543.516 1.045.863.505a19.508 19.508 0 0 0 3.002-8.572c.069-.64-.932-.635-1 0ZM344.621 162.71a13.465 13.465 0 0 1 5.128-1.598c.634-.064.641-1.065 0-1a14.77 14.77 0 0 0-5.633 1.735c-.565.308-.061 1.172.505.863ZM344.621 166.098a21.367 21.367 0 0 1 9.854-3.316c.642-.023.645-1.023 0-1a22.413 22.413 0 0 0-10.359 3.452.501.501 0 0 0 .505.864ZM348.967 167.744a13.476 13.476 0 0 1 7.23-2.197.5.5 0 0 0 0-1 14.395 14.395 0 0 0-7.735 2.334c-.527.362-.027 1.229.505.863ZM92.205 386.058c-4.128-6.361-3.88-14.7-.145-21.195a18.538 18.538 0 0 1 7.784-7.485c3.819-1.869 10.61-2.461 12.321 2.614 1.602 4.747-2.499 9.208-6.884 10.177-4.592 1.014-9.616-.561-13.661-2.714a33.483 33.483 0 0 1-14.716-16.457 32.55 32.55 0 0 1-.776-24.45c.231-.601-.735-.861-.964-.266-6.4 16.656 2.815 37.486 19.642 43.689 4.515 1.665 10.219 2.453 14.466-.365 3.072-2.038 5.073-6.253 3.858-9.88-1.235-3.685-5.218-5.008-8.781-4.667a16.68 16.68 0 0 0-10.523 5.669c-6.256 6.932-7.628 17.909-2.484 25.835.349.538 1.215.037.863-.505Z" fill="#000"/><path d="M459.098 297.578c-1.282-4.241-.633-8.818 4.097-11.972 4.37-2.913 11.912-2.236 12.617 2.24.206 2.39-1.926 3.667-4.324 3.568-2.384-.098-4.418-2.037-4.86-5.808a19.086 19.086 0 0 1 .731-8.176M105.688 69.604c6.876-3.335 12.816-12.295 7.63-15.408-3.671-2.097-7.37 1.758-6.015 5.3 1.165 3.05 5.216 5.409 8.471 5.155a14.501 14.501 0 0 0 8.957-3.688" stroke="#000" stroke-linecap="round"/><path d="m541.696 333.266 4.564-4.112c.48-.432-.23-1.138-.707-.708l-4.565 4.113c-.479.432.23 1.137.708.707ZM375.98 359.208l-5.197-3.277c-.546-.344-1.049.521-.505.863l5.197 3.277c.546.345 1.049-.52.505-.863ZM147.704 306.732l5.413 2.906c.567.304 1.073-.559.505-.863l-5.413-2.906c-.567-.305-1.073.558-.505.863ZM190.923.927l5.413 2.906c.567.305 1.073-.558.505-.863L191.427.064c-.567-.304-1.072.559-.504.863ZM150.411 436.467l5.413 2.905c.567.305 1.073-.558.505-.863l-5.413-2.906c-.567-.304-1.073.559-.505.864ZM426.287 150.459v7.301a.5.5 0 0 0 1 0v-7.3a.5.5 0 0 0-1 0v-.001ZM93.632 246.291l5.813-4.797c.497-.41-.214-1.114-.707-.708l-5.814 4.798c-.496.41.215 1.114.708.707ZM482.892 37.114l5.308 1.621c.617.189.881-.776.266-.964l-5.309-1.622c-.616-.188-.88.777-.265.965ZM467.042 415.684l5.309 1.622c.617.188.88-.777.266-.965l-5.309-1.621c-.617-.189-.881.776-.266.964ZM29.605 63.968l3.921-7.525c.297-.57-.565-1.076-.863-.505l-3.922 7.526c-.297.57.566 1.076.864.504ZM25.207 172.767l-4.803-6.996c-.362-.527-1.23-.028-.864.505l4.803 6.995c.362.528 1.23.028.864-.504ZM19.714 404.386l-.802 5.719c-.088.629.875.901.964.265l.803-5.718c.088-.63-.875-.902-.965-.266Z" fill="#000"/><circle cx="528.68" cy="164.075" r="3.223" stroke="#000" stroke-width="1.178"/><circle cx="390.855" cy="25.588" r="2.736" stroke="#000"/><circle cx="5.572" cy="266.761" r="2.175" stroke="#000" stroke-width=".795"/><circle cx="112.333" cy="154.111" r="2.736" stroke="#000"/></svg>