<svg width="76" height="76" fill="none" xmlns="http://www.w3.org/2000/svg"><path fill-rule="evenodd" clip-rule="evenodd" d="m65.632 29.915 8.741-10.251a2.5 2.5 0 0 0-.815-3.951L48.328 3.24a.5.5 0 1 0-.444.896l25.248 12.48a1.5 1.5 0 0 1 .489 2.387l-8.86 10.39-11.916-6.945a.5.5 0 1 0-.504.864l11.474 6.688-26.151 12.49-26.129-12.48 10.994-6.106a.5.5 0 1 0-.486-.874l-11.234 6.24-8.722-10.16a1.501 1.501 0 0 1 .49-2.392L27.135 4.134a.5.5 0 1 0-.457-.89L2.138 15.82a2.501 2.501 0 0 0-.797 3.956l8.538 9.949-8.592 8.096a2.5 2.5 0 0 0 .512 4.011l8.146 4.525v14.46a2.513 2.513 0 0 0 1.422 2.255l25.22 12.045a2.49 2.49 0 0 0 2.155 0l25.22-12.045a2.512 2.512 0 0 0 1.422-2.256V46.15l8.04-4.395a2.5 2.5 0 0 0 .515-4.013l-8.306-7.827ZM1.514 39.832a1.485 1.485 0 0 1 .459-1.284l8.448-7.96 26.203 12.514-10.508 9.899a1.495 1.495 0 0 1-1.744.226L2.282 40.956a1.483 1.483 0 0 1-.768-1.124Zm9.431 20.984c.002.578.333 1.103.854 1.354l25.22 12.045c.047.02.096.036.145.05V43.966l-10.362 9.762a2.494 2.494 0 0 1-2.912.375l-12.945-7.19v13.903Zm53.439 0a1.507 1.507 0 0 1-.854 1.354L38.31 74.215c-.047.02-.096.036-.146.05v-29.73l9.758 9.194a2.495 2.495 0 0 0 2.914.374l13.548-7.406v14.12Zm8.56-19.939c.424-.228.71-.647.77-1.125a1.486 1.486 0 0 0-.46-1.282l-8.359-7.876-26.592 12.7L48.607 53c.473.446 1.18.537 1.75.224l22.587-12.348Z" fill="#000"/><path d="M36.312 25.756a1.508 1.508 0 0 0 2.101 0l8.163-8.006a.5.5 0 0 0-.702-.714l-8.011 7.858V.5a.5.5 0 1 0-1 0v24.395l-8.013-7.859a.5.5 0 0 0-.701.714l8.163 8.006Z" fill="#000"/></svg>