<svg width="76" height="76" fill="none" xmlns="http://www.w3.org/2000/svg"><path d="M8.132 26.549a.506.506 0 0 0 .62-.359l6.017-22.545a3.556 3.556 0 0 1 4.342-2.512l18.628 4.972a3.547 3.547 0 0 1 2.512 4.341l-1.299 4.868a.507.507 0 0 0 .36.62c.219.058.45-.04.56-.24a5.696 5.696 0 1 1-1.818 6.618.499.499 0 0 0-.35-.358.51.51 0 0 0-.62.359l-2.85 10.678a.506.506 0 1 0 .979.261l2.512-9.41a6.714 6.714 0 0 0 5.887 3.068 6.711 6.711 0 1 0-3.326-12.665l.944-3.537A4.559 4.559 0 0 0 38 5.126L19.372.154a4.565 4.565 0 0 0-5.582 3.23L7.773 25.93a.506.506 0 0 0 .359.62Z" fill="#000"/><path d="m72.201 13.865-22.62-5.724a.507.507 0 1 0-.249.982l22.621 5.725a3.547 3.547 0 0 1 2.567 4.309l-4.73 18.69a3.548 3.548 0 0 1-4.309 2.569l-4.883-1.236a.5.5 0 0 0-.368.925 5.694 5.694 0 1 1-6.623-1.742.464.464 0 0 0 .05-.033.483.483 0 0 0 .285-.312.507.507 0 0 0-.367-.616l-10.714-2.711a.507.507 0 1 0-.249.982l9.443 2.39a6.703 6.703 0 0 0 4.062 12.277 6.687 6.687 0 0 0 5.567-9.84l3.55.899a4.56 4.56 0 0 0 5.539-3.303l4.73-18.69a4.565 4.565 0 0 0-3.302-5.54Z" fill="#000"/><path d="M67.944 48.852a.504.504 0 0 0-.616.366L61.57 71.83a3.547 3.547 0 0 1-4.313 2.563l-18.684-4.758a3.551 3.551 0 0 1-2.562-4.313l1.243-4.882a.507.507 0 0 0-.366-.616.495.495 0 0 0-.558.246 5.693 5.693 0 0 1-9.217-4.18A5.698 5.698 0 0 1 38.07 53.43c.056.22.254.373.48.372a.507.507 0 0 0 .491-.381l2.727-10.71a.506.506 0 1 0-.981-.25l-2.404 9.44a6.704 6.704 0 1 0-10.08 8.682 6.661 6.661 0 0 0 7.629.942l-.904 3.548a4.56 4.56 0 0 0 3.294 5.544l18.684 4.758c.37.095.751.143 1.133.143a4.566 4.566 0 0 0 4.411-3.436l5.759-22.613a.506.506 0 0 0-.366-.616Z" fill="#000"/><path d="M26.224 66.838 3.659 60.896a3.546 3.546 0 0 1-2.527-4.333l4.91-18.645a3.551 3.551 0 0 1 4.333-2.527l4.871 1.283a.501.501 0 0 0 .378-.92 5.694 5.694 0 0 1 4.254-9.184 5.699 5.699 0 0 1 2.365 10.982.497.497 0 0 0-.3.732c.068.116.179.2.309.235l10.687 2.814a.507.507 0 0 0 .259-.98l-9.42-2.48a6.72 6.72 0 1 0-9.604-2.529l-3.54-.932a4.56 4.56 0 0 0-5.572 3.248L.152 56.305a4.56 4.56 0 0 0 3.248 5.57l22.565 5.943a.506.506 0 1 0 .259-.98Z" fill="#000"/></svg>