<svg width="71" height="74" fill="none" xmlns="http://www.w3.org/2000/svg"><path fill-rule="evenodd" clip-rule="evenodd" d="m70.462.591-.001.003c.763 16.87-4.126 30.027-14.521 39.12.324 1.397 1.393 7.33-2.655 11.564a145.098 145.098 0 0 1-4.442 4.47 2.497 2.497 0 0 1-2.197.662 2.5 2.5 0 0 1-1.825-1.39l-3.303-6.854a41.292 41.292 0 0 1-8.7 2.268l-.24.028-12.4-12.369.026-.24a41.379 41.379 0 0 1 2.257-8.743c-.876-.375-2.737-1.265-6.87-3.242l-.007-.004a2.525 2.525 0 0 1-.74-4.02 145.421 145.421 0 0 1 4.458-4.455c4.223-4.06 10.16-3.007 11.556-2.687C39.931 4.272 53.088-.656 69.983.07a.47.47 0 0 1 .065.016c.17.02.316.135.375.296.01.03.016.06.02.09.007.024.013.05.017.076v.037l.002.006Zm-15.523 38.73a.494.494 0 0 1 .14-.174c10.21-8.813 15.047-21.63 14.394-38.088C53.007.458 40.211 5.326 31.427 15.56l-.017.02h-.001l-.003.002a.496.496 0 0 1-.16.12.432.432 0 0 1-.05.017.485.485 0 0 1-.143.03c-.009.001-.016.006-.024.006a.529.529 0 0 1-.063-.01.468.468 0 0 1-.068-.006c-.065-.018-6.61-1.757-10.902 2.37a144.047 144.047 0 0 0-4.427 4.424 1.524 1.524 0 0 0 .447 2.428l7.272 3.479.415.196-.16.431a43.193 43.193 0 0 0-2.314 8.662l11.71 11.68a43.202 43.202 0 0 0 8.655-2.34c.455-.106.456-.105 4.08 7.42l.047.096a1.525 1.525 0 0 0 2.43.44 143.71 143.71 0 0 0 4.412-4.44c4.115-4.304 2.356-10.843 2.338-10.91a.479.479 0 0 1-.01-.124.17.17 0 0 0-.001-.021c-.001-.01-.003-.02-.002-.029a.49.49 0 0 1 .043-.158c.004-.008.004-.016.008-.024Z" fill="#000"/><path fill-rule="evenodd" clip-rule="evenodd" d="M39.445 23.594a7.797 7.797 0 0 1 7.798-7.797 7.806 7.806 0 0 1 7.797 7.797 7.797 7.797 0 0 1-15.595 0Zm1.518 2.601a6.797 6.797 0 0 0 6.28 4.196 6.805 6.805 0 0 0 6.797-6.797 6.797 6.797 0 1 0-13.077 2.601Z" fill="#000"/><path d="M24.82 52.771a.5.5 0 0 0-.513.858 6.395 6.395 0 0 1 2.923 5.396 8.548 8.548 0 0 1-2.49 5.87 12.834 12.834 0 0 1-5.71 3.288c-.952.276-1.954.475-2.922.667l-.807.162A65.53 65.53 0 0 0 4.86 72.075c-.131.05-.264.108-.396.172a1.52 1.52 0 0 1-1.376-.02 1.27 1.27 0 0 1-.677-.964c-.265-1.98-.19-3.991.22-5.947a26.02 26.02 0 0 1 3.423-8.311c.757-1.24.786-2.276.08-2.843a2.095 2.095 0 0 0-1.127-.379l-3.236-.37a1.768 1.768 0 0 1-.268-.044c-.003-.009-.026-.094.084-.382a13.639 13.639 0 0 1 6.348-7.633c3.139-1.536 7.07-.988 9.144 1.275a.5.5 0 0 0 .737-.676c-2.4-2.619-6.74-3.25-10.32-1.497A14.626 14.626 0 0 0 .651 52.63c-.223.44-.19.968.086 1.378.244.245.573.387.919.397l3.236.37c.215.005.426.061.614.164.314.253.048.963-.307 1.544a27.023 27.023 0 0 0-3.55 8.634 18.62 18.62 0 0 0-.23 6.284 2.28 2.28 0 0 0 1.196 1.706c.361.192.765.293 1.175.292.383 0 .761-.086 1.106-.252a4.49 4.49 0 0 1 .323-.14A64.578 64.578 0 0 1 15.5 69.99l.802-.16c.989-.196 2.012-.4 3.007-.688a13.83 13.83 0 0 0 6.15-3.556 9.553 9.553 0 0 0 2.77-6.57 7.415 7.415 0 0 0-3.41-6.246Z" fill="#000"/></svg>