<svg width="76" height="69" fill="none" xmlns="http://www.w3.org/2000/svg"><path d="M43.346 8.922H32.064a.5.5 0 1 0 0 1h11.282a.5.5 0 0 0 0-1Z" fill="#000"/><path fill-rule="evenodd" clip-rule="evenodd" d="M61.956 49.897h9.06a4.505 4.505 0 0 1 4.5 4.5v10.109a4.505 4.505 0 0 1-4.5 4.5H50.5a4.505 4.505 0 0 1-4.5-4.5V54.397a4.505 4.505 0 0 1 4.5-4.5h10.456v-6.263a3.504 3.504 0 0 0-3.5-3.5H18.757a3.504 3.504 0 0 0-3.5 3.5v6.263h9.758a4.505 4.505 0 0 1 4.5 4.5v10.109a4.505 4.505 0 0 1-4.5 4.5H4.5a4.505 4.505 0 0 1-4.5-4.5V54.397a4.505 4.505 0 0 1 4.5-4.5h9.757v-6.263a4.505 4.505 0 0 1 4.5-4.5h18.447v-10.38h-9.706a4.505 4.505 0 0 1-4.5-4.5V4.5a4.505 4.505 0 0 1 4.5-4.5h19.754a4.505 4.505 0 0 1 4.5 4.5v19.754a4.505 4.505 0 0 1-4.5 4.5h-9.048v10.38h19.252a4.505 4.505 0 0 1 4.5 4.5v6.263Zm-33.44 4.5a3.504 3.504 0 0 0-3.5-3.5H4.5a3.504 3.504 0 0 0-3.5 3.5v10.109a3.504 3.504 0 0 0 3.5 3.5h20.515a3.504 3.504 0 0 0 3.5-3.5V54.397Zm-1.018-26.643a3.504 3.504 0 0 1-3.5-3.5V4.5a3.504 3.504 0 0 1 3.5-3.5h19.754a3.504 3.504 0 0 1 3.5 3.5v19.754a3.504 3.504 0 0 1-3.5 3.5H27.498Zm43.517 40.252a3.504 3.504 0 0 0 3.5-3.5V54.397a3.504 3.504 0 0 0-3.5-3.5H50.5a3.504 3.504 0 0 0-3.5 3.5v10.109a3.504 3.504 0 0 0 3.5 3.5h20.515Z" fill="#000"/><path d="M43.346 17.922H32.064a.5.5 0 1 0 0 1h11.282a.5.5 0 0 0 0-1ZM66.398 58.953H55.116a.5.5 0 0 0 0 1h11.282a.5.5 0 1 0 0-1ZM9.116 59.953h11.282a.5.5 0 1 0 0-1H9.116a.5.5 0 0 0 0 1Z" fill="#000"/></svg>