<svg xmlns="http://www.w3.org/2000/svg"><symbol id="visa" viewBox="0 0 80 27"><svg><path d="M34.586 25.664H28.15L32.176.774h6.435l-4.025 24.89ZM57.917 1.38C56.647.876 54.634.32 52.145.32c-6.356 0-10.832 3.39-10.859 8.235-.053 3.575 3.204 5.56 5.64 6.752 2.49 1.218 3.337 2.013 3.337 3.1-.026 1.667-2.012 2.435-3.865 2.435-2.57 0-3.946-.396-6.039-1.324l-.847-.397-.9 5.587c1.509.688 4.29 1.298 7.177 1.325 6.753 0 11.15-3.337 11.201-8.5.026-2.834-1.694-5.005-5.402-6.78-2.25-1.138-3.63-1.906-3.63-3.071.027-1.06 1.167-2.145 3.708-2.145 2.092-.053 3.63.45 4.794.953l.582.265.875-5.375Z" fill="#151515"/><path fill-rule="evenodd" clip-rule="evenodd" d="M69.437.773h4.978l5.192 24.89h-5.959s-.583-2.86-.768-3.733h-8.263l-1.35 3.733h-6.753l9.56-22.824c.662-1.616 1.828-2.066 3.363-2.066Zm-.397 9.109s-2.04 5.534-2.57 6.964h5.35c-.264-1.245-1.483-7.202-1.483-7.202l-.45-2.145c-.19.552-.463 1.311-.648 1.824-.125.347-.21.58-.199.559Z" fill="#151515"/><path d="m22.775.773-6.303 16.973-.688-3.442c-1.166-3.972-4.82-8.287-8.898-10.433l5.773 21.766h6.806L29.58.773h-6.806Z" fill="#151515"/><path d="M10.62.773H.265l-.106.503c8.077 2.066 13.427 7.045 15.625 13.029l-2.251-11.44c-.37-1.589-1.51-2.04-2.913-2.092Z" fill="#151515"/></svg></symbol><symbol id="master-card" viewBox="0 0 56 34"><svg><circle cx="39" cy="17" r="17" fill="#393939"/><circle cx="17" cy="17" r="17" fill="#151515"/><path fill-rule="evenodd" clip-rule="evenodd" d="M28 29.924c3.67-3.118 6-7.768 6-12.962S31.67 7.118 28 4c-3.67 3.118-6 7.768-6 12.962s2.33 9.844 6 12.962Z" fill="#636363"/></svg></symbol><symbol id="pay-pal" viewBox="0 0 112 28"><svg><path fill-rule="evenodd" clip-rule="evenodd" d="M41.739 6.094h-6.177a.858.858 0 0 0-.848.724l-2.499 15.84a.515.515 0 0 0 .51.594h2.949a.858.858 0 0 0 .848-.725l.674-4.272a.858.858 0 0 1 .847-.726h1.955c4.07 0 6.418-1.969 7.031-5.87.276-1.708.012-3.049-.788-3.988-.878-1.032-2.435-1.577-4.502-1.577Zm.712 5.785c-.337 2.216-2.03 2.216-3.669 2.216h-.932l.654-4.14a.515.515 0 0 1 .509-.434h.427c1.116 0 2.168 0 2.712.636.324.38.423.943.3 1.722Zm14.794-.071h2.958a.513.513 0 0 1 .507.594l-1.599 10.124a.858.858 0 0 1-.848.725H55.6a.515.515 0 0 1-.508-.596l.132-.822s-1.46 1.694-4.094 1.694c-1.535 0-2.825-.443-3.726-1.505-.983-1.155-1.385-2.812-1.102-4.544.544-3.473 3.336-5.949 6.604-5.949 1.426 0 2.854.311 3.494 1.24l.207.3.13-.827a.515.515 0 0 1 .51-.434Zm-1.165 5.757c-.285 1.69-1.627 2.824-3.337 2.824-.86 0-1.546-.275-1.986-.797-.438-.519-.604-1.257-.465-2.079.267-1.675 1.63-2.847 3.315-2.847.84 0 1.523.28 1.973.806.45.532.63 1.274.5 2.093Zm16.905-5.757h2.972a.515.515 0 0 1 .423.808l-9.886 14.27a.857.857 0 0 1-.706.37H62.82a.515.515 0 0 1-.42-.814l3.078-4.345-3.274-9.608a.515.515 0 0 1 .489-.681h2.92a.86.86 0 0 1 .825.612l1.737 5.803 4.1-6.039a.862.862 0 0 1 .711-.376ZM105.215 22.659l2.536-16.13a.515.515 0 0 1 .507-.435h2.854a.513.513 0 0 1 .508.595l-2.5 15.839a.857.857 0 0 1-.848.725h-2.549a.514.514 0 0 1-.508-.594ZM85.799 6.095h-6.178a.858.858 0 0 0-.847.724l-2.498 15.84a.513.513 0 0 0 .508.594h3.17a.6.6 0 0 0 .592-.507l.71-4.49a.858.858 0 0 1 .847-.726h1.954c4.07 0 6.418-1.969 7.032-5.87.277-1.708.01-3.049-.789-3.988-.877-1.032-2.433-1.577-4.5-1.577Zm.713 5.785c-.337 2.216-2.03 2.216-3.669 2.216h-.931l.655-4.14a.513.513 0 0 1 .507-.434h.428c1.114 0 2.167 0 2.711.636.324.38.423.943.3 1.722Zm14.795-.072h2.956a.515.515 0 0 1 .511.595l-1.6 10.124a.858.858 0 0 1-.847.725h-2.664a.515.515 0 0 1-.51-.596l.132-.822s-1.46 1.694-4.094 1.694c-1.534 0-2.822-.443-3.726-1.505-.982-1.155-1.382-2.812-1.1-4.544.543-3.473 3.334-5.949 6.603-5.949 1.425 0 2.852.311 3.493 1.24l.207.3.131-.827a.513.513 0 0 1 .508-.434Zm-1.167 5.758c-.284 1.69-1.627 2.824-3.337 2.824-.858 0-1.546-.276-1.987-.797-.437-.519-.601-1.257-.464-2.079.268-1.675 1.63-2.847 3.315-2.847.84 0 1.523.28 1.973.806.452.532.631 1.274.5 2.093Z" fill="#151515"/><path d="m6.563 26.33.472-3-1.052-.025H.958L4.45 1.164a.285.285 0 0 1 .283-.242h8.473c2.812 0 4.753.585 5.767 1.74.475.542.777 1.109.924 1.732.153.654.156 1.435.006 2.388l-.01.07v.61l.474.27c.363.183.69.432.962.733.407.463.67 1.052.78 1.75.115.718.077 1.573-.11 2.54-.217 1.113-.568 2.082-1.04 2.875a5.914 5.914 0 0 1-1.65 1.806c-.628.447-1.375.785-2.22 1.002-.818.213-1.75.32-2.774.32h-.66c-.47 0-.929.17-1.288.475a1.995 1.995 0 0 0-.672 1.2l-.05.27-.835 5.288-.037.194c-.01.062-.028.092-.053.113a.14.14 0 0 1-.087.032h-4.07Z" fill="#253B80"/><path d="M20.818 6.922c-.025.162-.054.327-.087.497-1.117 5.736-4.94 7.718-9.822 7.718H8.425c-.597 0-1.1.433-1.193 1.022L5.958 24.23l-.36 2.288a.636.636 0 0 0 .627.735h4.409c.522 0 .966-.379 1.048-.894l.043-.224.83-5.267.053-.29a1.06 1.06 0 0 1 1.048-.895h.66c4.27 0 7.615-1.735 8.592-6.753.408-2.096.197-3.847-.883-5.078a4.215 4.215 0 0 0-1.207-.93Z" fill="#636363"/><path d="M19.649 6.456a8.807 8.807 0 0 0-1.087-.241 13.804 13.804 0 0 0-2.19-.16H9.73c-.523 0-.967.38-1.047.896L7.27 15.898l-.04.261a1.207 1.207 0 0 1 1.193-1.022h2.485c4.882 0 8.705-1.983 9.822-7.718.033-.17.061-.335.087-.497a5.954 5.954 0 0 0-.919-.387 8.198 8.198 0 0 0-.25-.079Z" fill="#393939"/><path d="M8.684 6.954c.08-.516.524-.897 1.046-.895h6.64c.788 0 1.522.051 2.192.16.454.071.9.178 1.338.319.33.109.636.238.918.387.333-2.12-.002-3.563-1.149-4.87C18.407.616 16.125 0 13.207 0H4.735a1.21 1.21 0 0 0-1.197 1.023L.009 23.392a.728.728 0 0 0 .718.841h5.23l1.314-8.332 1.413-8.947Z" fill="#151515"/></svg></symbol></svg>